<svg version="1.2" xmlns="http://www.w3.org/2000/svg" viewBox="0 0 268 226" width="268" height="226"><style>.a{fill:#ff7e58}</style><path class="a" d="m196.5 6.5c-15.8-6-31.1-7.5-47.6-3.9-17.6 3.8-35 10.2-51.7 16.7-18 6.9-35.7 15.3-51.4 26.5-13.2 9.3-24.1 22.1-33.5 35.1-9.1 12.5-13.5 26.2-11.6 41.6 0.3 2.9-0.2 8.8 3.2 9.9 2.8 1 6.8-1.7 9-2.9 10.3-5.8 19.3-13.6 29.8-19 17.9-9.1 35.6-18.8 53.6-27.9 20.1-10.2 41.1-18.8 60.9-29.8 10-5.6 19.7-11.9 29.6-17.7 8.9-5.1 18.1-9.3 27.2-14 0.7-0.4 1-1.6 0.3-2.1-5.4-4.7-11.2-9.6-17.8-12.5-1.6-0.7-2.4 1.9-0.8 2.6 6.1 2.7 11.6 7.3 16.6 11.7q0.2-1.1 0.4-2.1c-14.6 7.6-28.9 15.1-43 23.6-15 9.1-30.6 16.9-46.5 24.4-16.2 7.5-32.2 15.4-48 23.9-13.5 7.2-27.8 13.5-40.8 21.6-8.6 5.4-17 13.1-26.5 16.8-3.4 1.3-3.4 0.1-4-3-0.9-3.9-1.1-8.1-1.1-12 0-9.2 3.3-17.9 7.9-25.8 17.3-29.3 45.2-48.4 75.9-61.7 17.2-7.4 35.3-13.9 53.5-19 8.8-2.4 18.2-4.6 27.4-4.5 9.7 0.1 19.2 2.7 28.2 6.1 1.6 0.6 2.4-2 0.8-2.6zm15.3 12q-0.7 0.3-1.3 0.6c-0.6 0.3-0.8 0.9-0.7 1.5q0 0.1 0 0.2c0.2 1.1 1.5 1.3 2.3 0.7 0.3-0.2 0.6-0.5 0.9-0.7 1.5-0.8 0.3-3.2-1.2-2.3-0.6 0.3-1.1 0.7-1.6 1q1.2 0.4 2.3 0.7 0-0.1-0.1-0.2-0.3 0.8-0.7 1.5 0.7-0.3 1.3-0.7c1.5-0.8 0.3-3.2-1.2-2.3zm0.7 0.1c-9-10-23.3-15.7-36.3-17.9-12.8-2.3-26 1-37.9 5.6-0.4 0.1-0.2 0.6 0.2 0.6 13.3-3.1 25.8-7 39.6-4.1 12.8 2.6 23.9 8.1 34.1 16.2 0.2 0.2 0.5-0.2 0.3-0.4zm-33.2-9.4q0.1 0 0.1 0c0.1-0.2 0.1-0.5 0-0.8-0.8-1.3-2.6-2.1-4-2.7-1.2-0.5-3.3-1.6-4.4-0.5-0.2 0.2-0.4 0.5-0.3 0.8 0.5 1.6 3.2 2 4.6 2.5 0.7 0.2 3.4 1.7 4 0.7zm-4.5-0.1c-0.8-0.8-1.8-1.3-2.9-1.8-1-0.5-2.3-1.1-3.4-0.7-0.4 0.1-0.6 0.6-0.3 1 0.8 0.8 2 0.9 3 1.2 1.2 0.3 2.2 0.7 3.4 0.8 0.3 0.1 0.4-0.3 0.2-0.5zm-3.5 1.2c-0.7-1-2-1.4-3.1-1.9-1.3-0.6-2.5-1.1-4-0.9-0.4 0-0.9 0.6-0.4 0.9 1.1 1 2.2 1.3 3.6 1.7 1.2 0.4 2.5 0.9 3.8 0.7 0.2-0.1 0.3-0.4 0.1-0.5zm-108.4 61.1c1.7-0.9 0.3-3.6-1.4-2.7-1.8 0.9-0.4 3.6 1.4 2.7zm80.7-39.5c0.2 1 1.7 1.4 2.4 1.9q0-1 0.1-2c-0.7 0.4-1.4 0.5-2.1 0.3-0.5-0.1-1.4-0.9-1.9-0.8q-0.2-0.3-0.3 0.4-0.5 0.5 0.2 0.5c0.2 0.1 0.7 0.2 1 0.3 0.6 0.2 1.1 0.4 1.8 0.5 0.8 0.2 1.4-1.2 0.8-1.7-1.1-0.9-2.8-1.5-4.2-1.4-1.1 0.1-1.8 1.1-1.4 2.1 0.4 1.1 1.9 1.7 2.9 2.1 1.4 0.5 2.9 0.6 4.2-0.2 0.7-0.4 0.9-1.6 0.1-2-0.5-0.2-4-1.6-3.6 0zm-81.3 36.9q-0.1 0.1-0.1 0.1c-0.3 0.2-0.3 0.5-0.3 0.8 0.2 1.1 0.5 2.1 0.5 3.2q-0.3 0.4 0.1 0 0-0.4 0-0.9c0-0.5 0-1-0.2-1.6q-0.1-0.4-0.2-0.9 0.2-0.7-0.5-0.6c-0.1 0.2 0.3 1.2 0.3 1.5 0.1 1.2 0 2.4 0.5 3.6 0.4 0.9 1.8 0.6 2.1-0.2 0.4-1.4 0.1-3.1-0.1-4.5-0.1-1-0.5-2.2-1.6-2.7-1.1-0.5-2.3-0.1-2.9 0.9-0.9 1.5-0.1 2.7 0.1 4.2 0.1 1.2-0.3 2.5 0.9 3.5 0.8 0.7 1.9 0.6 2.8 0 2.3-1.5 0.9-4.5-0.4-6.3-0.1-0.2-0.5-0.2-0.7-0.2-0.1 0-0.2 0-0.3 0.1zm-2.9 4.2c-0.9 0.8-0.7 2.9 0 3.8 0.2 0.2 0.6 0.2 0.8 0 0.8-0.8 0.7-2 0.3-3-0.1-0.3-0.6-1.3-1.1-0.8zm-2.6 1.7c-0.1 1.1-0.2 2 0.3 3 0.1 0.3 0.8 0.3 0.9-0.1 0.2-1.1-0.1-1.9-0.4-3-0.2-0.4-0.8-0.4-0.8 0.1zm-35.4 8.5c-0.2 0.6-0.5 0.9-0.6 1.5-0.1 0.8-0.2 1.7-0.3 2.5-0.1 1.6-0.1 3.2-0.2 4.9 0 1.4 2.3 1.9 2.6 0.4 0.3-1.7 0.6-3.4 0.4-5.2q-0.1-1.1-0.3-2.2c-0.2-1-0.5-1.2-1.1-1.9-0.1-0.2-0.4-0.1-0.5 0zm-3 3.7c-1.1 1.7-0.8 4-0.9 5.8-0.1 2.3-0.1 4.5 0.3 6.8 0.2 1.4 2.1 1 2.3-0.2 0.4-2.4 0.4-4.8 0.2-7.2-0.2-1.8-0.1-3.8-1.2-5.2-0.2-0.2-0.6-0.2-0.7 0zm-3.5 5c-0.3 3.8-0.5 7.3-0.3 11.1 0.1 1.7 2.6 1.8 2.6 0.1 0.1-4-0.6-7.4-1.7-11.3-0.1-0.3-0.6-0.3-0.6 0.1zm-5 3.5c-0.7 3.9-0.3 9.2 1.5 12.7 0.5 1 1.8 0.5 2-0.4 0.6-3.9-0.6-9-2.4-12.4-0.2-0.5-1-0.5-1.1 0.1zm188.9-77.5c-0.9-0.5-1.8-0.9-2.7-1.3-0.4-0.1-0.6 0.4-0.3 0.6 0.9 0.5 1.7 0.9 2.7 1.3 0.4 0.1 0.6-0.4 0.3-0.6zm0-0.1c-0.4-1-1.3-1.6-2.2-2.2-0.6-0.4-1.5 0.6-0.9 1.1 0.8 0.6 1.6 1.2 2.5 1.9q0.3-0.8 0.6-1.5c-0.7-0.3-1.3-0.5-2-1q-0.3 0.8-0.7 1.5 0.5 0.1 0.8 0.4c1 0.8 2.1-0.5 1.1-1.3-0.4-0.3-0.8-0.5-1.4-0.7-0.9-0.2-1.4 1-0.6 1.5 0.7 0.5 1.5 0.9 2.3 1.1 0.9 0.2 1.5-0.9 0.7-1.4-0.8-0.6-1.6-1.1-2.4-1.6q-0.3 0.6-0.6 1.3c1 0.2 1.7 0.9 2.6 1.2 0.2 0.1 0.3-0.1 0.2-0.3zm-84.8 11.1c0.2 0.8 0.8 1.3 1.1 1.9 0.5 0.9 0.6 1.8 0.6 2.8q0.8-0.3 1.6-0.6c-1.5-1.3-2.4-3.1-2.5-5.1q-0.8 0.4-1.6 0.8c1.5 1 2.4 2.4 2.8 4.2q0.8-0.6 1.6-1.2c-1-0.6-1.7-1.5-1.8-2.7q-0.9 0.4-1.7 0.9c0.7 0.5 1 1.4 1.7 2.1 0.4 0.4 1.1 0.3 1.3-0.3 0.5-1.6-0.6-2.8-1.8-3.7-0.9-0.7-1.8 0.3-1.7 1.2 0.1 1.9 1.2 3.5 2.8 4.4 0.9 0.4 1.9-0.2 1.7-1.2-0.5-2.3-1.8-4.2-3.8-5.5-0.6-0.3-1.7 0.1-1.6 0.9 0.2 2.5 1.2 4.8 3.2 6.5 0.6 0.5 1.6 0.3 1.6-0.6 0-1.8-0.8-4.9-2.8-5.4-0.4-0.1-0.8 0.2-0.7 0.6zm18.7 11.3q0.1-0.2 0.2-0.4-0.3 0.1-0.5 0.2c0.5 0.2-0.5-0.3-0.5-0.3-0.2-0.1-1.4-0.8-0.4-0.1 0.8 0.6 1.6 1.1 2.3 1.7q0.5-1 1-2c-1.8-0.2-3.5-0.9-5.1-1.6q-0.1 1.2-0.1 2.3c0.6-0.1 1.2 0 1.7 0.3q0.4 0.2 0.7 0.4 0.1 0.2 0.2 0.3 0.3 0.5 0.3-0.5c-0.1-0.2-1.3-0.4-1.6-0.5-0.2-0.1-1.5-0.8-1.4-1.1q-0.3 0.3-0.6 0.7c0.3-0.1 1.3 0.3 1.7 0.5q0.4 0.2 0.7 0.5 0.3 0.1 0.4 0.4 0.2 0.2 0-0.1c-0.5 1 1.1 2 1.9 1.2 2.1-2.3-1.6-4.5-3.5-4.8-1.1-0.2-2.7-0.3-2.9 1.1-0.3 1.2 0.7 2.4 1.6 3.1 1.3 1 5.8 2.8 5.9-0.4 0.1-2.6-3.6-3.6-5.6-3.4-1 0.1-1.3 1.7-0.4 2.1 1.9 0.9 3.8 1.7 6 1.9 1 0.1 1.7-1.3 0.9-2-1.2-1.1-3.7-3.3-5.5-2.3-2 1.2-0.3 3.6 1.2 4.3 1.2 0.6 3.6-0.1 2.9-1.9-0.5-1.3-2.5-1.2-2 0.4 0.1 0.1 0.4 0.3 0.5 0zm-1.6-13.7q0.3-0.2 0.7-0.4-0.4-0.2-0.9-0.5c-0.1 1 0.2 1.9 0.1 2.9q-0.2 1.8-1 3.3 0.6-0.1 1.3-0.3c-1.6-1.3-1.8-5.6-1.1-7.5 0.1-0.4-0.1-0.7 0.3 0.4 0.2 0.5 0.4 1 0.5 1.6 0.1 0.6 0.4 2.7-0.2 3.1q0.6-0.1 1.2-0.2c-0.7-0.2-0.6-4-0.5-4.7q-1.1 0.4-2.1 0.8 1 1.3 0.6 3 1.1-0.3 2.2-0.5c-0.6-0.5-0.7-1-0.8-1.7-0.2-1.1-2-1.2-2.2-0.1q-0.4 2.1 1.1 3.5c0.6 0.6 2 0.6 2.2-0.5 0.4-2 0-3.7-1.3-5.4-0.8-0.8-2.1-0.1-2.2 0.8-0.2 1.7-0.1 7.8 2.9 7.2 2.9-0.7 1.5-6.3 0.6-8-1.3-2.4-3.9-2.6-4.4 0.4-0.5 3-0.5 7.4 2.2 9.5 0.4 0.3 1.1 0.1 1.3-0.3 1.1-2.2 1.9-5.5 0.3-7.7-0.2-0.3-0.9-0.1-0.9 0.3q-0.1 0.3-0.2 0.7c0 0.2 0.2 0.4 0.3 0.3zm-31 17.7c0.2 0 0.7 2.5 0.7 2.8q0.2 0.8 0.3 1.6c0 0.1 0 1.6 0.1 1.6q0.6 0 1.2 0c-1-0.5-1.5-1.8-1.7-2.8-0.2-0.6-0.7-2.3-0.3-2.8q-0.5 0.3-1.1 0.6c0.6 0 1.2 1.8 1.3 2.3q0.2 0.7 0.1 1.4c0 0.4-0.3 1 0 1q0.5 0.1 0.9 0.1c-0.4-0.2-1-3.5-0.4-3.8q-0.8-0.2-1.7-0.5c0.6 0.9 0.8 1.8 1 2.8 0.2 1.3 2.2 1.1 2.3-0.2 0.1-1.4-0.3-2.6-1.1-3.7-0.4-0.5-1-0.9-1.6-0.5-1.9 1-1.6 4.1-1.1 5.9 0.3 0.8 0.6 2 1.6 2.3 0.8 0.2 1.7-0.2 2.1-0.9 1.2-1.7 0.7-4.4-0.1-6.1-0.7-1.4-3-4.1-4.4-1.9-1.1 1.6 0 4.9 0.8 6.5 0.7 1.2 2.8 3.8 4.1 1.7 0.9-1.6 0-4.7-0.7-6.3-0.3-0.8-1.6-3.5-2.7-1.8-0.2 0.3 0 0.6 0.4 0.7zm16.4 2.6c0.7 0.1 1.1 1.3 0.8 1.8q0.3-0.2 0.6-0.5c-0.6 0.2-1.5-0.8-1.8-1.1q-0.3-0.4-0.6-1c-0.1-0.1-0.3-1-0.4-1q-0.3 0.1-0.7 0.3 0.2 0.2 0.3 0.3c0.3 0.3 0.7 0.5 0.9 0.8q0.4 0.4 0.7 0.9c0.2 0.3 0.3 1.1 0.6 0.6q0.4-0.3 0.8-0.6 0.5 0.1-0.2-0.2-0.4-0.2-0.7-0.6c-0.5-0.5-0.7-1-0.8-1.6q-0.7 0.7-1.5 1.4c1.1 0.2 1.5 1 2 2 0.5 1 2.1 0.6 2.2-0.5 0.1-2.2-1.8-3.5-3.8-3.8-0.7-0.1-1.4 0.7-1.2 1.4 0.4 1.7 1.3 3.1 2.8 4 1.2 0.8 3.1 0.6 3-1.2-0.1-2-4.6-7.5-6.4-4.4-1.3 2.3 2.4 6.9 4.9 6.5 2.8-0.4 0.6-6.3-1.7-4.2-0.3 0.2-0.1 0.6 0.2 0.7zm-21.3 17.7c0.6 0.2 0.9 0.6 1.2 1.2 0.1 0.4 0.4 1.8-0.3 1.1-0.4-0.4-0.5-1.4-0.5-1.9-0.1-0.3-0.2-2.1 0.1-2.2q-0.3 0-0.7-0.1c0.6 0.3 1 1.2 1.3 1.8q0.2 0.7 0.3 1.4c0.1 0.4 0 1 0.1 1.3 0.1 0.3 0.3 0.8 0.1-0.1-0.2-0.4-0.4-0.8-0.5-1.3-0.2-0.4-0.8-2.2-0.3-2.5q-0.8-0.1-1.5-0.1c1.1 1.2 1.4 2.7 1.1 4.4q0.6-0.6 1.1-1.1 0 0 0 0c-0.5-0.8-2.1-0.5-1.8 0.6 0.3 0.9 0.7 1.3 1.5 1.6 0.5 0.2 1.2-0.2 1.3-0.8 0.7-2.2 0-4.6-1.6-6.2-0.5-0.4-1.1-0.4-1.6 0-1.5 1.2-0.6 3.8-0.1 5.3 0.4 1.3 1.4 3.8 3.3 2.7 1.6-1 1.4-3.6 1-5.1-0.4-1.3-1.6-3.9-3.3-3.8-3 0.2-1.9 7.9 0.7 8.4 1.5 0.3 2.1-1.7 1.8-2.8-0.2-1.4-1.2-2.3-2.5-2.5-0.4-0.1-0.6 0.5-0.2 0.7zm-13.2-14.2c0.2-0.5 2.2 0.7 2.5 1q0.5 0.4 0.9 0.8 0.2 0.3 0.4 0.6 0.6-0.2 0.1-0.2c-0.3-0.2-1-0.3-1.3-0.5q-0.6-0.3-1.2-0.7c-0.2-0.1-2.1-1.6-1.9-2q-0.4 0.3-0.8 0.6c1.4-0.5 2.9 1.1 3.9 1.7q0.2 0.2 0.3 0.3 0.1-0.3 0.2-0.6c-0.1-0.1-1-0.5-1.2-0.6-0.8-0.6-1.4-1.3-1.9-2.2q-0.8 1-1.5 1.9c1.3 0.2 1.8 1.3 3 1.8 0.6 0.3 1.3-0.4 1.3-1 0.2-2-2.2-3.1-3.9-3.4-1-0.1-1.7 1.2-1.2 1.9 1.1 1.9 3 4 5.3 4.3 2 0.3 3.4-1.4 2.3-3.3-1.1-1.8-3.2-3-5.3-3.3-2.1-0.3-3.5 1-2.5 3 1 2 3 3.3 5 4.1 1.6 0.6 3.9 0.2 3.5-2-0.4-1.7-2.5-3.1-4.1-3.4-0.7-0.1-3.1-0.1-2.4 1.3 0.1 0.2 0.4 0.1 0.5-0.1zm11.9-16.2c-0.5 0.6-0.1 1.5 0.1 2.2q0.4 0.8 0 0-0.2-0.5-0.3-1-0.2-1.1 0.1-2.1-0.8 0.3-1.6 0.6c0.9 0.6 1.1 1.6 0.7 2.6q0.9-0.3 1.8-0.6c-0.8-0.7-0.6-1.7-1.4-2.4-0.2-0.1-0.4-0.2-0.7-0.1-1.8 0.9-0.5 3.4 0.6 4.3 0.5 0.4 1.5 0.6 1.9-0.2 0.9-2 0.3-4.4-1.8-5.4-0.5-0.3-1.5-0.2-1.6 0.6-0.3 1.6-0.3 6.9 2.6 6.2 2.2-0.5 1.9-4.6-0.2-4.9-0.1 0-0.1 0.1-0.2 0.2zm-16.7 33.5c0.3-0.3 1.3 0.4 1.5 0.7q0.3 0.4 0.6 0.8c0.2 0.3 0.4 0.8 0.7 1q0.1 0.2 0.2 0.4 0.4-0.2 0-0.3c-0.2-0.5-1.2-1-1.6-1.4-0.3-0.3-1.2-1.6-1.3-1.6q-0.4 0.2-0.8 0.3c0.8 0 2.9 1.8 2.6 2.7q0.3-0.3 0.5-0.7 0.8 0.2 0-0.2-0.3-0.2-0.6-0.5c-0.4-0.4-0.6-0.8-0.9-1.4q-0.5 0.9-1 1.7c0.7 0 1.1 0.5 1.3 1.1 0.4 0.8 1.8 0.5 1.8-0.4 0-1.7-1.3-2.9-3-3-0.9 0-1.4 0.9-1 1.7 0.6 1.3 2 3.5 3.7 3.4 1.8 0 1.8-2 1.2-3.2-0.7-1.4-2.2-3.1-3.9-3.3-1.5-0.3-2.2 1-1.7 2.4 0.5 1.5 2.1 3 3.5 3.9 1 0.7 2.9 1.2 3.2-0.6 0.4-1.9-4.2-6.7-5.6-4-0.3 0.4 0.2 0.8 0.6 0.5zm-10.7-16.5c-0.3-1 0.8 0 0.8 0.1 0.3 0.4 0.5 0.8 0.7 1.2 0.5 1 0.5 1.9 0.8 3q0.1 0 0.3 0-0.3-0.2-0.5-0.6-0.3-0.5-0.5-1-0.3-0.8-0.4-1.6-0.1-0.2-0.1-0.5 0.1-1.1-0.2-0.4-0.4 0.1-0.8 0.1c0.5 0.1 1.1 1.3 1.3 1.7q0.2 0.6 0.2 1.3 0 0.2-0.1 0.5-0.3 0.5 0.5 0.1c0 0-1.1-1.3-1.2-1.6-0.3-0.7-0.3-1.5-0.3-2.3q-0.6 0.4-1.3 0.9 0 0-0.1-0.1c-0.1 1 1.3 1.2 1.6 0.3 0.3-0.7 0.1-1.4-0.4-1.9-0.7-0.6-1.7-0.2-1.8 0.7-0.2 2 0.5 4.1 1.9 5.5 1.4 1.3 2.9 0.4 3.3-1.2 0.6-1.9-0.6-4.2-2.1-5.5-1.4-1.1-2.7 0-2.6 1.6 0.1 1.9 0.8 4.4 2.3 5.7 1.5 1.1 3-0.1 2.8-1.8-0.2-1.7-1.2-4.4-2.8-5.2-0.7-0.3-1.8 0.1-1.5 1.1 0 0.1 0.3 0.1 0.2-0.1zm-14.7 26.1c0.3-0.8 1.2 0.8 1.3 1 0.3 0.6 0.6 1.1 0.7 1.8 0.3 1.1 0.1 2.2-0.6 3.1q0.8-0.1 1.5-0.1c-0.6-0.7-1.2-1.3-1.5-2.2-0.1-0.2-0.9-2.5-0.5-2.6q-0.4 0-0.8 0c0.3 0.1 0.6 0.8 0.8 1.2 0.2 0.4 0.1 1.2 0.3 1.5q0.8 0.2 0.4-0.1-0.3-0.3-0.4-0.6c-0.3-0.6-0.4-1.2-0.2-1.8q-0.8 0.2-1.6 0.5c0.8 0.5 1.2 1.2 1.2 2.1q0.7-0.5 1.4-1-0.2-0.1-0.5-0.2c-0.9-0.4-1.7 0.9-1 1.6q0.2 0.2 0.4 0.4c0.7 0.7 1.8 0.3 1.9-0.7 0.1-1.7-0.8-3.2-2.3-4-0.5-0.3-1.4-0.1-1.5 0.6-0.5 1.9 0.1 4.7 2.2 5.4 2.6 0.9 2.2-3.2 1.7-4.5-0.4-0.9-1.1-2-2.1-2.3-0.9-0.3-1.6 0.4-1.8 1.2-0.6 2.4 0.9 5.2 2.6 6.7 0.4 0.4 1 0.4 1.4-0.1 1.5-2.2 0.9-5-0.6-7-0.7-0.9-2.9-1.9-3 0 0 0.4 0.4 0.4 0.6 0.1zm-2 12.4c-0.8-0.7-1.4-1.5-2.2-2.3q-0.2 0.6-0.5 1.2c0.8 0 1.5 0.3 2 0.8 0.2 0.2 0.5 0.7 0.6 0.6 0-0.2-0.8-0.3-0.8-0.3-0.7-0.3-1.3-0.6-1.9-1-0.2-0.2-2-1.4-1.9-1.6q-0.3 0.3-0.5 0.6c0.6-0.4 1.9 0.3 2.4 0.6q0.5 0.3 1 0.7 0.2 0.1 0.5 0.4 0.5 0.7 0.1-0.2 0.2-0.4 0.5-0.7c-0.4 0.2-1.7-0.7-1.9-0.9-0.6-0.5-1.1-1-1.6-1.5q-0.4 0.9-0.8 1.8c1.2 0.1 1.7 0.9 2.5 1.6 0.7 0.6 2 0.1 1.8-0.9-0.4-1.9-2.5-2.8-4.2-2.9-1.1-0.1-1.4 1.2-0.9 1.9 1.1 1.4 2.9 2.9 4.7 3.2 1.4 0.2 2.7-0.8 2-2.3-0.8-1.6-7.4-5-7.6-1.6-0.1 1.4 1.9 2.8 3 3.6 1.2 0.8 3 1.8 4.5 1.3 1.4-0.6 1.3-2.2 0.5-3.2-1.1-1.2-2.6-1.6-4.1-1.4-0.7 0.1-0.7 1-0.2 1.3 0.8 0.5 1.7 1.1 2.5 1.7 0.3 0.3 0.9-0.1 0.5-0.5zm-4-24.1c0.7-0.3 0.9 3.1 0.9 3.4q-0.1 0.5-0.3 1 0.3 0.4-0.1-0.2c-0.2-0.6-0.4-1.1-0.5-1.7-0.1-0.2-0.2-1.7-0.2-1.7-0.7-0.1-0.3 1.6-0.1 1.9q-0.3 0.9 0.7 0.2-0.2-0.5-0.2-0.9-0.2-0.9-0.1-1.8-0.7 0.4-1.4 0.8c0.5 0.2 0.9 0.9 0.8 1.5-0.3 1.4 1.8 2.1 2.2 0.6 0.6-1.9-0.4-3.7-2.3-4.4-0.6-0.2-1.4 0.2-1.5 0.8-0.3 1.6-0.3 3.6 0.7 5 1 1.2 2.8 0.9 3.3-0.7 0.4-1.4 0-3.4-1.1-4.4-1.2-1.1-2.9-0.7-3.2 0.9-0.3 1.8 0.4 4 1.4 5.4 0.8 1.3 2.3 1.7 3.1 0.2 0.8-1.3 0.8-3.5 0.2-4.9-0.4-1-1.4-2.4-2.7-1.6-0.4 0.2 0 0.8 0.4 0.6zm9.4-18.3q0 0-0.1-0.1 0 0.2 0 0.4 0.1 0 0.1-0.1-0.2 0-0.4 0c-0.1-0.1-0.3 1-0.3 1.1 0 0.7-0.1 1.4-0.2 2.1-0.3 1 1.2 1.5 1.5 0.5 0.3-1.1 0.8-3.8-0.7-4.2-0.2 0-0.3 0.1-0.4 0.2q0 0.1 0 0.1c-0.1 0.2 0 0.3 0.1 0.4q0.1 0 0.1 0c0.3 0.1 0.5-0.2 0.3-0.4zm-3 3.1c-0.2 1.2-0.5 2.2-0.5 3.5 0 0.7 1.1 1 1.3 0.2 0.4-1.4 0.2-2.4-0.1-3.7-0.1-0.3-0.6-0.4-0.7 0zm-2.1 0.9c0.1 1.4-0.3 2.8 0.3 4.1 0.2 0.5 0.8 0.3 1-0.1 0.6-1.4 0-2.7-0.4-4.1-0.2-0.4-0.9-0.4-0.9 0.1zm-1.7 1.6c-0.1 0.7-0.5 1.2-0.5 1.9-0.1 0.5 0.1 1.1 0.2 1.6 0.2 0.8 1.5 0.7 1.4-0.1 0-0.5 0-1-0.1-1.5 0-0.6-0.3-1.2-0.3-1.8 0.1-0.5-0.7-0.6-0.7-0.1zm163.1-30.6c3.6 2 6.8 4.3 9.7 7.3 1.5 1.5 5.7 5 0.1 7-0.5 0.2-2.1-0.4-2.8-0.4-6.1-0.1-5.5 5.3-9.1 8.9-6.2 6.2-16.6 4.1-23.8 8.4-6.3 3.8-8.6 11.5-15.3 15.3-3.7 2.1-8 3.3-12.2 3.3-3.1 0-6.1-1.2-9.1-1.2-5.3-0.1-7.7 4.6-9.8 8.8-0.8 1.7-1.5 3.7-2.5 5.3-1.5 2.5-7.2 11.3-11.3 4.2-1.2-2-0.4-5.2-1.4-7.5-1.7-3.9-11.4-4.5-11.7-7.1-0.1-1.2-2.1-1.1-2.1 0.1 0.1 2.2 0.8 3.4 2.8 4.5 1.3 0.7 2.3 0.3 3.6 0.8 5.8 2.2 5.1 2.9 5.7 6.8 0.7 5.1 3.1 9.4 9 7.3 2.8-1 5-3.4 6.6-5.9 2.9-4.3 4.6-14.4 11-14.7 3.8-0.2 7.3 1.5 11.3 1.1 3.9-0.3 7.8-1.5 11.3-3.5 3-1.6 5.6-3.8 7.8-6.5 1.8-2.2 3-5 5-7 3.4-3.3 7.9-4.1 12.3-5.1 4.3-0.9 8.8-1.6 12.5-4.3 2.7-1.9 3-4.6 4.9-6.9 7.3-8.2 6.8 0.6 12.1-2.5 1.4-0.8 1.6-2.2 1.4-3.6-0.7-6.2-10.6-11.7-15.6-13.9-0.6-0.2-1 0.7-0.4 1zm-88.3 62.5c-2-1.6-4.2-1.3-5.7 1-1.1 1.8-0.5 4.3-0.6 6.2-0.3 5-2.4 9.3-6 12.7-6.9 6.2-15.1 4.4-23.2 6.6-6.8 1.9-10.4 8.7-15.8 12.8-4.5 3.3-8 4.7-13.7 2.7-2.1-0.7-3.4-2-6-2.1-5.2-0.2-8.5 3.6-11.5 7.4-2.8 3.4-5.6 6.7-9.2 9.4q-1.6 1-3.2 2.1-2.8-1.4-5.7-2.9c-0.4-0.6 0.5-1.9 0-2.6-2.9-4-10.1-3.5-10.6-9.1-0.1-1.3-2.4-1.1-2.3 0.2 0.1 2.3 0.1 4.1 1.6 5.7 1.4 1.6 3.1 1.3 4.7 2.1q2 1.8 4 3.6-0.4 1.1-0.3 2.3c0.3 0.6 0.3 1.3 0.7 1.8 0.7 1.2 2 2 3.3 2.3 5.1 1.4 10.6-4.1 13.8-7.3 2.7-2.6 5.2-7.4 8.2-9.5 4.8-3.5 7-2.8 12.2-0.1 1.1 0.5 1.4 1 2.5 1.3 4.6 1.3 9.9-2.7 13.2-5.2 3.8-2.9 6.5-7.1 10.3-10 4.5-3.3 9-2.8 14.2-3.5 6.5-0.9 13-3.6 17.1-9 1.3-1.7 2.3-3.6 3-5.6 0.7-2.1 1.1-14.5 4.6-12.8 0.4 0.2 0.7-0.3 0.4-0.5zm-99.7 60c-1.3-0.1-2.1 0.3-3.1 1.2-1.3 1.3-0.7 1.8-2.9 3.1-2.4 1.4-6.4 1.5-6.8-2.4-0.3-2.4 1.5-4.5 2.2-6.7 0.7-2.1-0.1-3.8 0.1-5.9 0.1-0.6-0.4-1.1-1-1.1q-0.2 0-0.5 0c-0.9-0.1-1.3 1.2-0.5 1.7q0.2 0.1 0.4 0.2-0.2-0.6-0.4-1.2c-0.4 1.3 0 2.1 0 3.4 0.1 2.3-1 3.9-1.6 5.9-0.6 2.1-1.2 5.3 0.3 7.2 1.3 1.6 3.6 1.6 5.5 1.3 1.4-0.3 2.6-0.7 3.7-1.5 1.7-1.4 2.2-4.3 4.7-4.8 0.2 0 0.2-0.4-0.1-0.4zm188.7-116.7c0.4-0.2 1.7 0.6 2.2 0.8q1.3 0.6 2.6 1.3c1.5 0.8 2.9 1.7 4.3 2.4 0.8 0.5 1.9-0.6 1.1-1.3-2.7-2.3-6.3-3.9-9.8-4.6-0.4-0.1-0.9 0.2-0.8 0.8q0.1 0.2 0.1 0.4c0 0.1 0.2 0.2 0.3 0.2zm2.1 2.8c1.6 1 3.1 2.2 4.7 3 0.9 0.5 1.6-0.7 0.8-1.3-1.4-1.1-3.4-1.8-5.2-2.3-0.4-0.1-0.6 0.4-0.3 0.6zm-86.7 50q0.2-0.5 0.6-0.7-0.3-0.4-0.7-0.8c-0.2 0.9 0 1.7 0.1 2.5 0.1 1 0.3 2 0.8 2.8 0.4 0.8 1.4 0.5 1.5-0.3 0.3-1.6-0.3-4-1.3-5.3-0.5-0.5-1.5 0.2-1.1 0.8q0.1 0.5 0.1 1 0 0 0 0zm-1.4 2c0.2 1.6 0.5 3.3 1.9 4.3 0.4 0.3 0.9 0 0.9-0.5 0.2-1.7-1.1-3-2.2-4.1-0.2-0.3-0.6 0-0.6 0.3zm-13.4 6.1c-0.4 0.7-0.1 1.5-0.2 2.3 0 0.9-0.2 1.9-0.3 2.9-0.1 0.7 0.9 0.9 1.2 0.4 0.6-1 0.8-2.1 0.7-3.3-0.1-0.8-0.1-2-1-2.4-0.1-0.1-0.3 0-0.4 0.1zm-3 2.6c0.4 1.1 0 2.8-0.2 3.9-0.2 0.8 1.3 1.3 1.6 0.5 0.4-0.9 0.6-1.6 0.4-2.6-0.2-1-0.7-1.4-1.3-2.2-0.2-0.3-0.7 0.1-0.5 0.4zm-2.1 1.4c-0.3 1.3-0.7 2.9-0.4 4.3 0.2 0.7 1 0.9 1.5 0.4 1.5-1.3 1-4-0.5-5.1-0.3-0.1-0.6 0.1-0.6 0.4zm-91.5 38.1c1.6-0.7 3 0.9 4.1 1.7 0.9 0.6 1.7-0.6 1.2-1.4-1.3-1.7-4.3-2.9-5.4-0.5 0 0.1 0.1 0.2 0.1 0.2zm4.4-1.2c1.9 0.1 2.2 1.9 3.1 3.2 0.3 0.7 1.3 0.6 1.5-0.1 0.4-1.3-0.3-2.4-1.3-3.2-1-0.8-2.2-0.9-3.4-0.7-0.4 0.1-0.3 0.7 0.1 0.8zm5.6 1.2c0.5 1.3 0.1 2.7-0.3 4-0.3 0.8 0.9 1.3 1.3 0.6 1.1-1.7 0.6-3.5-0.5-5-0.2-0.4-0.7 0.1-0.5 0.4zm32.8-19.4c0.8-0.6 4.4-3.9 4.6-1.4 0.1 1-0.4 1.6 0 2.7 0.2 0.7 0.6 1.3 1.2 1.8 0.3 0.3 0.8 0.4 1.1 0.6q0.3 0.2 0.7 0.2 0.2 2.1-1.2 1.3c-1.2-0.2-1.7-1.4-2.9-1.7-1.1-0.3-2.4 0.3-3.5 0.5-0.7 0.2-2.8 1-1.7-1.2 0.3-0.4 1-0.7 1.4-1.1 0.8-0.7 1.3-1.4 1.4-2.5 0.2-1-1.5-1.1-1.6 0-0.3 1.9-3.3 2.3-3.3 4.6 0 1.3 1.1 2.1 2.3 2.1 1.2 0 2.3-0.7 3.5-0.7 2.1 0 2 1.1 3.5 1.8 1.3 0.5 2.9 0.2 3.8-0.8 0.8-1 1-2.7-0.1-3.6-0.7-0.5-1.6-0.4-2.3-1-1.4-1.1-0.5-2.1-0.5-3.6 0.1-1.3-0.8-2.1-2.1-2-2.1 0.2-3.7 1.9-4.9 3.5-0.2 0.4 0.3 0.7 0.6 0.5zm132.6-74.5c0.5 0 1.6-0.3 1.9 0 0.7 0.5 0 0.7-0.5 1-0.8 0.5-2.4 1.5-3.4 1.4-1.1-0.2-0.2-1.1 0.3-1.4 0.5-0.4 1.1-0.5 1.7-0.6 0.9-0.2 1.4-0.4 1.7-1.3 0.2-0.4-0.3-1-0.7-0.8-2 0.6-4.9 0.9-5.5 3.4-0.1 0.8 0.2 1.9 1 2.3 0.9 0.5 2.1 0.2 3-0.1 1.6-0.5 4.8-1.7 4.5-3.8-0.3-2.2-3-1.9-4.2-0.7-0.2 0.2-0.1 0.6 0.2 0.6zm31.8 1.1c3.1 4.2 7.1 8.2 9.4 12.9 3.2 6.3-0.9 7.8-5.4 11.4-4.7 3.7-8.5 7.7-13.8 10.8-5.3 3.2-10.8 6.1-16.3 8.8-23.5 11.9-48 21.7-71.7 33.1-23.2 11.2-46 23.2-68.3 36-7.6 4.3-14.7 9.5-22.3 13.5-3.6 2-8.7 4.9-12.3 1.8-3.8-3.2-5.5-11.3-4.7-15.9 0.3-1.5-2-2.3-2.3-0.7-1.3 5.9 0.5 12.5 4.1 17.3 3.1 4.3 7.1 4 11.8 2.2 6.5-2.4 12.1-6.8 18-10.4 10.5-6.5 21.4-12.4 32.2-18.3 22.6-12.3 45.7-23.7 69.2-34.3 22.8-10.3 47-19.4 67.9-33.2 4.9-3.2 8.7-7.5 13.5-10.6 2.3-1.4 3.9-2.5 4.4-5.2 1.5-7.9-7.8-15.1-12.3-20.2-0.7-0.7-1.7 0.3-1.1 1zm-17.5 40.9c-15.3 6.8-28.5 17.6-38.9 30.8-4.8 6.2-9.4 12.9-12.5 20.1-1.5 3.4-1.8 6.1-2.4 9.6q0.7 2.5-1.4 4.1-1 3.9-4.5 1.6c-2.2-0.5-4.2-1.1-6.4-1.5-14.8-2.9-30.1-0.3-43.8 5.9-16.8 7.5-36.1 23.1-54.8 12.9-1.4-0.7-2.7 1.3-1.3 2.1 13.7 8.2 28.6 2.3 41.7-4.5 18.9-9.7 37.8-18.7 59.6-13.6 4.1 1 10.4 4.3 13.2-0.7 1.6-2.7 0.6-6.8 1.2-9.7 1-5.2 3.9-10 6.6-14.4 10.8-17.8 26.3-31.4 44.1-42 0.4-0.2 0.1-0.8-0.4-0.7zm-11.7 6.3c7.7-1.9 15.1-5.2 22.6-7.9 5.8-2.1 13.2-3.4 18.4-6.7 0.4-0.2 0.7-0.5 0.6-0.9 0-1.6-1-1.3-1.2-3-0.4-3 1-4.2 1.9-6.5 0.2-0.6-0.1-1.1-0.5-1.4q-0.4-0.3-0.7-0.6c-0.9-0.6-2.1 0.6-1.6 1.4 0.1 0.2-2 5.4-2.1 6.3-0.5 4.1 2.8-0.1-0.2 3.9-0.5 0.7-4.8 1.8-5.3 2-10.6 3.9-22.2 7.4-32 13.2-0.1 0 0 0.3 0.1 0.2zm40.3-14.8c8.9-0.6 11.8 9.3 14.2 16 2.1 5.7 0.5 8-4.4 11.5q-3.3 2.3-6.6 4.6c-10.1 7.1-20.4 14-31 20.5-9.8 6-19.8 11.6-30.2 16.5-10.8 5.2-22.3 8.9-33.1 14-10.6 5.1-19.9 12.3-30.5 17.3-10.8 5.1-22.2 9.1-33.4 13.3q-9.9 3.7-19.8 7.2c-5.1 1.9-14.8 6.9-19.8 2.7-3.3-2.8-9.2-12.8-6.9-16.5 1-1.6 5.5-3.1 7-3.9 3.1-1.7 6.2-3.5 9.2-5.2 1.2-0.7 0.3-2.6-0.9-1.9q-9.3 5.2-18.4 10.8c-0.4 0.2-0.5 0.7-0.4 1.1 2 5.1 4.2 9.9 7.1 14.5 1.2 1.9 2.4 4 4.6 4.7 3.2 1.2 7.5-0.6 10.5-1.5 5.4-1.7 10.7-3.8 15.9-5.7 20.9-7.6 42.4-13.9 61.3-25.8 19.1-12 40.6-18.4 60.5-29 20-10.7 38.8-23.4 57.1-36.8 2.5-1.8 5.4-3.3 5.8-6.5 0.4-3.7-2.9-9-4.1-12.5-2.3-6.3-6.5-12-13.8-10.8-0.8 0.2-0.7 1.4 0.1 1.4zm-195.7 93.1c-3.4 1.4-9.2 2.4-11.4 5.5-0.2 0.4-2.1 4.9-1.1 3.3-0.6 0.9-1.4 1.7-1.9 2.6-1.2 2.1-1.4 4.4-3.1 6.1-0.4 0.4-0.4 1.2 0.2 1.4 3.7 2 9.2-4.8 12.8-5.6 0.8-0.1 0.7-1.3-0.1-1.3-2 0-3.5 0.7-5.2 1.7-1.3 0.7-5.2 4.3-6.8 3.6q0.2 0.8 0.4 1.5c1.2-1.2 1.5-2 2.1-3.6 1.2-2.8 2.7-4.6 4.3-7.1 0.9-1.6-0.2-2 2.1-3.4 2.7-1.6 5.6-2 8.1-4.2 0.3-0.3-0.1-0.7-0.4-0.5zm120.4-47c-3.6 1.9-5.9 7.1-7.4 10.7-1.9 4.5-3.7 10-3.4 15 0.1 0.9 1.4 1.3 1.7 0.3 1.4-4.5 2-9 3.8-13.3 1.6-4 4.9-8.2 5.7-12.4 0.1-0.2-0.2-0.5-0.4-0.3zm-10.6 13.7c-0.7 1.1-1 2.4-1.4 3.7-0.3 1.1-1 2.2-0.4 3.3 0.1 0.2 0.4 0.3 0.7 0.2 1-0.5 1.2-1.9 1.5-2.9 0.4-1.3 0.8-2.6 0.8-4 0-0.6-0.9-1-1.2-0.3zm-2.1 1.1q0.1 0 0.1 0-0.1-0.4-0.2-0.7c-0.7 0.8-1 1.9-1.4 2.9-0.3 0.9-0.8 2-0.2 2.8 0.2 0.3 0.4 0.4 0.7 0.3 1-0.5 1-1.6 1.2-2.6 0.3-1 0.6-2.1 0.4-3.2-0.2-0.7-1.3-0.1-0.8 0.4 0-0.1 0.2 0.1 0.2 0.1zm-20.6 1.6c0.1 0.8 0.3 1.5 0.6 2.3 0.2 0.7 1.5 0.4 1.4-0.3-0.1-1-0.4-1.7-1-2.6-0.4-0.5-1.1 0-1 0.6zm-1.8 0.4c0.1 1.3 0.3 2.4 1.1 3.5 0.6 0.7 1.5-0.1 1.2-0.8-0.5-1-1.1-1.9-1.7-2.9-0.1-0.2-0.6-0.2-0.6 0.2zm-1.7 1c-0.1 1.1 0.3 2.7 1.4 3.2 0.2 0.2 0.6 0.1 0.7-0.3 0.3-1.2-0.5-2.5-1.5-3.2-0.2-0.2-0.6 0-0.6 0.3zm-1.7 1.4c0.4 0.9 0.6 1.8 1.1 2.6 0.2 0.4 1.1 0.2 0.9-0.4-0.3-0.8-0.8-1.6-1.3-2.4-0.2-0.4-0.8-0.2-0.7 0.2zm24.4-12.6c0.3 0.4 0.4 1.2 0.4 1.7 0 1 1.5 0.9 1.3-0.1-0.2-0.9-0.5-1.3-1.1-2-0.2-0.3-0.8 0.1-0.6 0.4zm107-31.6c6.5 5 13.9 10.2 11.8 19.7-1.4 6.3-6.5 11-11.1 15.1-8.7 7.7-18.2 14.7-28 21-19 12.2-39.3 22.3-59.8 31.7-20.9 9.5-41.8 19-63.2 27.2-18.3 7.1-56.4 21-60.2-10.4-0.3-1.7-3.3-1.5-3.2 0.3 1.3 16.9 15.5 25.2 31.4 23.7 21.7-1.9 43.3-13 63.1-21.5 41-17.8 83.2-35.9 117.8-64.9 7.2-6 15.6-12.7 17.1-22.5 1.6-10.3-6.5-16.7-14.9-20.6-0.8-0.4-1.5 0.6-0.8 1.2zm-211.3 109.6c4.5 14.1 11 25.7 27.4 24.6 17.4-1.3 35.6-9.2 51.6-15.7 18.6-7.6 36.6-16.7 54.1-26.6 17.2-9.7 34.9-19.7 50.6-31.5 1.1-0.7-0.2-2.4-1.3-1.8-14.9 8.5-28.9 18.5-43.8 27.2-15.1 8.8-30.7 17.1-46.7 24.3-16.2 7.3-33 13.6-50.2 18.3-7 2-14.5 4-21.8 2.7-10.3-2-15.3-13-19.4-21.7-0.2-0.2-0.6-0.1-0.5 0.2zm24.7 7.7c-1 0.7-2 1.5-3.1 2.1-0.7 0.5-1.7 1.2-2.5 1.5-0.5 0.2-0.7 0.8-0.2 1.1 1 0.7 1.9 0.2 2.7-0.5 1.3-1.2 2.4-2.5 3.5-3.8 0.3-0.3-0.1-0.7-0.4-0.4zm-3.4-1.2q-2.3 1.3-4.5 2.7c-0.5 0.4-0.3 1.4 0.4 1.2 1.9-0.7 3.4-1.8 4.7-3.3 0.2-0.3-0.2-0.8-0.6-0.6zm199.6-102c-0.2-1.5-2.2-2.6-3.4-3.2-1.5-0.8-3-1.2-4.8-0.9-0.4 0.1-0.6 0.9-0.1 1.1 1.3 0.7 2.8 1.1 4.2 1.7 1.1 0.6 2.4 1.7 3.7 1.7 0.3 0.1 0.4-0.2 0.4-0.4zm-1.4 2.7c-0.9-2.3-4.2-3.6-6.5-2.9-0.6 0.1-0.8 1-0.3 1.3 1.1 0.5 2.2 0.7 3.3 1.1 1.1 0.4 2.1 0.8 3.2 1 0.3 0 0.4-0.3 0.3-0.5zm0.1 3.8c-0.6-2.5-4.2-3.3-6.4-3.7-1.4-0.3-2 1.5-0.6 2.1 1.9 0.8 4.5 2.6 6.8 2.1 0.1-0.1 0.3-0.3 0.2-0.5zm-2.7 2.5c-0.7-1.6-3.4-2.4-4.9-3-2.2-0.9-4.5-1.3-6.8-1.5-1.1-0.1-1.4 1.6-0.3 1.9 2.1 0.6 4.2 1.3 6.3 1.9 1.6 0.4 3.8 1.7 5.5 1.3 0.2-0.1 0.3-0.4 0.2-0.6zm-2.5 2.6c-1.3-1-2.4-2.1-4.1-2.3-0.5-0.1-0.8 0.6-0.4 1 1.1 1 2.7 1.4 4 2.2 0.6 0.3 1-0.5 0.5-0.9zm-23.2 7.5q0.8 1.5 1.5 3.2c0.4 0.9 0.6 2 1.4 2.7 0.3 0.2 0.7 0.1 0.7-0.3 0.1-1-0.5-2.1-1.1-3-0.5-1.1-1.2-2.1-2-3-0.2-0.3-0.7 0-0.5 0.4zm-1.4 2.4q0.9 2.1 1.9 4.1 0.5 0.9 1 1.8c0.2 0.5 0.9 1.3 1 1.9 0 0.4 0.5 0.7 0.8 0.4 1-1-0.2-2.3-0.7-3.2q-1.6-2.8-3.5-5.3c-0.2-0.4-0.6 0-0.5 0.3zm-5.1-0.8c1.9 4.1 4 8.3 6.6 12 0.3 0.5 1.2 0.3 1-0.3-1.3-4.5-4.1-8.7-7.2-12-0.2-0.2-0.5 0-0.4 0.3zm-73.2 35.2c1.1 4 2.6 7.9 4.6 11.5 0.5 0.9 1.7 0.2 1.4-0.8-1.5-3.7-3.5-7.4-5.7-10.8-0.1-0.1-0.4-0.1-0.3 0.1zm-0.5 6q-0.1-0.2-0.1-0.4c-0.2-0.6-1.1-0.4-0.9 0.2 0.5 1.6 1.3 3 2 4.5 0.7 1.4 1.2 3 2.4 3.9 0.4 0.3 1-0.1 1-0.5 0.1-1.6-0.9-2.9-1.7-4.2-0.8-1.5-1.7-2.9-2.9-4.1q0 0.3-0.1 0.6 0 0.1 0 0.2c0.1 0.1 0.4 0 0.3-0.2zm-0.7 5.9c0.5 2 1.6 3.9 2.6 5.7 0.5 1 1.8 0.2 1.5-0.7-0.8-1.9-1.8-4-3.3-5.5-0.3-0.3-0.9 0-0.8 0.5zm13.6-2.5c0.3 1.1 0.3 2.4 1 3.4 0.2 0.3 0.9 0.2 1-0.3 0.3-1.2-0.5-2.4-1.2-3.4-0.2-0.4-1-0.3-0.8 0.3zm-51.4 14.1c0.1 1 0.1 1.9 0.4 2.9 0.3 0.9 0.6 1.7 1 2.6 0.5 0.9 2.1 0.3 1.7-0.7-0.2-0.8-0.5-1.7-0.9-2.5-0.5-1-1.1-1.6-1.7-2.5-0.2-0.3-0.6-0.1-0.5 0.2zm-2.5 4.2c0.4 1.5 0.7 4 2.2 4.9 0.2 0.2 0.6 0 0.7-0.3 0.5-1.8-1.2-3.7-2.3-4.9-0.2-0.3-0.8-0.1-0.6 0.3zm8.2 0.8c0.7 1 1.1 2 1.9 2.9 0.2 0.2 0.7 0.1 0.6-0.2 0-1.6-0.9-2.3-2.1-3.2-0.3-0.2-0.6 0.2-0.4 0.5zm-15.4 7.2c0.2 1.2 0.1 2.5 0.8 3.6 0.3 0.5 0.9 0.6 1.2 0.1 1-1.6-0.1-3.3-1.4-4.1-0.3-0.2-0.6 0-0.6 0.4zm-6.1 4.1c-0.1 0.8-0.2 1.6-0.3 2.3-0.1 0.8 1.1 1 1.3 0.3 0.1-1 0.1-1.7-0.2-2.6-0.1-0.5-0.8-0.5-0.8 0zm-25.5-0.8c0.6 0.8 1.2 1.6 1.9 2.4 0.8 1 2.4-0.5 1.4-1.4-0.8-0.9-1.6-1.4-2.8-1.8-0.5-0.2-0.7 0.4-0.5 0.8zm131.1-63.7q-0.2 0.5-0.3 1c-0.3 0.7 0.9 1.1 1.1 0.4q0.1-0.5 0.2-1.1c0.2-0.6-0.8-1-1-0.3zm20.4-2c0.9 0.9 1.8 1.8 3.2 2 0.4 0 0.8-0.4 0.7-0.9-0.2-0.9-0.7-1.3-1.5-1.7-0.8-0.4-1.3-0.4-2.1-0.2-0.4 0.1-0.5 0.5-0.3 0.8zm-3.6 10.3q-0.6 0.5-1.2 0.9c-0.5 0.3-0.1 1.1 0.4 0.8q0.7-0.4 1.3-0.8c0.5-0.4 0-1.2-0.5-0.9zm-51.8 16.5q0.4 0.4 0.9 0.9c0.4 0.4 1-0.3 0.5-0.6q-0.5-0.4-1-0.8c-0.3-0.2-0.6 0.2-0.4 0.5zm81.3-39q-0.1 0.2-0.1 0.4c-0.1 0.5 0.7 0.7 0.9 0.3q0.1-0.2 0.2-0.4c0.4-0.8-0.9-1.2-1-0.3zm-11.3-10.8q0.1 0.6 0.2 1.3c0.1 0.6 1.1 0.4 1-0.2q-0.1-0.7-0.1-1.3c-0.1-0.7-1.2-0.5-1.1 0.2zm-218.6 37.9c-1.7 4.1 0.9 12.1 4.9 14.1 0.4 0.2 0.7-0.1 0.6-0.5-1-2.3-2.7-4-3.6-6.4-0.8-2.4-0.8-4.8-1.4-7.2-0.1-0.2-0.4-0.2-0.5 0zm9.4 15.7c-0.9-1.8-2.1-3.4-2.9-5.1-1-2-1.6-4.1-2.2-6.2-0.2-0.5-1-0.5-1 0 0 4.1 2.2 9.4 5.8 11.5 0.2 0.1 0.4-0.1 0.3-0.2zm-1.5-7.7c-0.3-1.8-1.3-3.5-1.7-5.3-0.2-0.8-1.5-0.5-1.3 0.3 0.4 1.8 1 4 2.5 5.3 0.2 0.2 0.6 0 0.5-0.3zm1-1.5c0.1-1.2-0.5-2.7-1-3.7-0.4-0.7-1.4-0.3-1.3 0.4 0.2 1.2 1 2.8 2.1 3.4 0.1 0.1 0.2 0 0.2-0.1zm95.4-53.1c0.5 1.7 1.2 3.4 2.4 4.6 0.2 0.3 0.7 0.1 0.6-0.3-0.5-1.6-1.5-3.1-2.3-4.5-0.2-0.3-0.9-0.2-0.7 0.2zm3-0.2c0.1 0.9 0.5 1.7 0.8 2.5 0.5 1 0.8 2 1.6 2.8 0.3 0.2 0.7 0 0.7-0.4-0.1-1-0.7-1.8-1.2-2.7-0.4-0.8-0.8-1.7-1.5-2.3-0.1-0.1-0.4-0.1-0.4 0.1zm0.6-4.9c0.1 1.8 0.9 3.4 1.6 5 0.8 1.8 1.6 3.8 3.1 5.2 0.5 0.3 1.3 0 1.1-0.6-0.5-1.8-1.7-3.3-2.6-4.9-0.9-1.6-1.5-3.4-2.7-4.8-0.2-0.2-0.5-0.1-0.5 0.1zm5.7 3.3c-0.3 1 0.4 2 0.8 2.9 0.6 1.2 1.3 2.3 2.2 3.3 0.5 0.5 1.2-0.1 0.9-0.6-0.6-1.3-1.3-2.4-2-3.6-0.5-0.8-0.8-1.7-1.7-2.1-0.1 0-0.2 0-0.2 0.1zm88.6-59c1 2.8 2.6 5.4 3.9 8.1 1.2 2.3 2.1 5 3.9 6.8 0.3 0.3 0.7 0 0.7-0.3-0.4-2.8-2.2-5.4-3.6-7.8-1.4-2.4-2.8-4.9-4.6-7.1-0.2-0.1-0.4 0.1-0.3 0.3zm6.7 7.2q0.1-0.1 0.1-0.2-0.2 0-0.5 0c0.2 1.1 0.9 2.1 1.4 3.1 0.6 1.2 1.1 2.5 1.8 3.6 0.3 0.5 1.2 0.2 1-0.4-0.2-1.4-0.9-2.6-1.6-3.8-0.6-1-1.2-2.2-2.2-2.8-0.3-0.2-0.5 0.2-0.3 0.4q0 0.1 0.1 0.2c0.1 0 0.2 0 0.2-0.1zm-11.2-6.4c2 3.9 4.2 7.7 6 11.7 0.3 0.7 1.4 0.1 1.1-0.6-1.7-4.1-3.9-8-6.9-11.3-0.1-0.1-0.3 0.1-0.2 0.2zm0 7.3c0.1 1.4 0.9 2.5 1.5 3.7 0.9 1.6 1.7 3.1 2.7 4.6 0.6 0.8 1.9 0.2 1.5-0.8-0.8-1.6-1.7-3.1-2.7-4.5-0.8-1.2-1.4-2.5-2.7-3.1-0.1-0.1-0.3 0-0.3 0.1zm7.9 9c0.3 0.6 0.6 1.1 1.1 1.5 0.2 0.2 0.6 0.1 0.5-0.3-0.2-0.6-0.5-1.1-1-1.7-0.3-0.3-0.8 0.1-0.6 0.5zm-47.8 22.3c0.6-0.6 1.2-1.1 1-2-0.1-0.3-0.4-0.4-0.6-0.3-0.8 0.3-0.9 0.9-1.2 1.6-0.3 0.5 0.3 1.1 0.8 0.7zm4.7-2c0.4-0.4 0.4-0.5 0.3-1 0-0.2-0.3-0.3-0.4-0.1q-0.3 0.3-0.4 0.7c-0.1 0.3 0.2 0.6 0.5 0.4zm-19.2 2.5c0.1 0.8 1 1.3 1.7 1.1 0.2-0.1 0.3-0.3 0.2-0.5-0.3-0.7-1.2-1.1-1.8-0.7q-0.1 0-0.1 0.1zm-50.2 33.8c0.9-0.1 1.5-0.3 1.8-1.2 0.1-0.4-0.3-0.6-0.5-0.5-0.7 0.3-1 0.8-1.6 1.2-0.2 0.2 0.1 0.5 0.3 0.5zm-34 16.7c0.7 0.3 1.2 0.4 2 0.4 0.7-0.1 0.8-1.2 0-1.2-0.7-0.1-1.3 0-2 0.2-0.3 0.1-0.3 0.5 0 0.6zm4.6-1c0.4 0.4 0.8 0.5 1.3 0.2 0.3-0.1 0.3-0.4 0.1-0.6q-0.1-0.1-0.1-0.2c-0.2-0.2-0.4-0.2-0.6-0.2-0.4 0.1-0.5 0.2-0.7 0.5-0.1 0.1 0 0.2 0 0.3zm-39.7 22.6c0.4-0.2 0.7-1.3 0.9-1.4 0.6-0.2 0.6-1-0.1-1.1-1.3-0.1-1.7 1.3-1.2 2.4 0.1 0.1 0.3 0.2 0.4 0.1zm2.9-4.7c0.2-0.3 0.3-0.5 0.4-0.8 0.2-0.7-1.1-1-1.1-0.2q0 0.4 0 0.7c0 0.4 0.6 0.7 0.7 0.3zm-11 28.8c-0.1-0.2-0.1-0.2-0.2-0.2-0.2-0.1-0.4 0-0.4 0.1-0.3 1.4 1.2 3.4 1.8 4.5 1.1 2.1 2.2 4.1 3.6 6 0.3 0.4 0.8-0.1 0.7-0.5-0.7-1.9-1.7-3.6-2.7-5.3-0.7-1.3-1.7-3.8-3-4.4 0.2 0 0.3-0.1 0.2-0.2zm0.8-2.6c0.9 4.3 3.6 8.7 5.8 12.5 0.4 0.7 1.4 0.2 1.1-0.6-1.7-4-3.6-8.8-6.5-12.1-0.1-0.2-0.5 0-0.4 0.2zm2.7-1.9c1.5 5.4 5.2 10.8 8.4 15.3 0.2 0.3 0.8 0.1 0.6-0.3-2.4-5-5-10.9-8.6-15.1-0.1-0.2-0.4 0-0.4 0.1zm3.3-1.3q0.1-0.1 0.1-0.2c0.3-0.7-1-0.9-0.8-0.1 0.4 2.3 1.8 4.3 2.8 6.4 1.2 2.4 2.4 4.7 3.7 7 0.4 0.8 1.5 0.2 1.2-0.6-1-2.5-2.1-4.9-3.3-7.3-1.1-2-2-4.2-3.7-5.9q-0.2 0.4-0.3 0.8 0.1 0 0.2 0 0.1 0 0.1-0.1zm2.6-1.4c-0.2 1.3 0.6 2.4 1.2 3.5q1.3 2.6 2.9 4.9c0.4 0.6 1.4 0.2 1-0.5q-1.2-2.6-2.7-5c-0.6-1.1-1-2.4-2.2-3-0.1 0-0.2 0-0.2 0.1zm2-1.5c0.4 2.1 1.5 3.9 2.6 5.7 0.5 0.8 1.8 0.1 1.3-0.7-1.1-1.8-2.1-3.6-3.4-5.3-0.2-0.3-0.6 0-0.5 0.3zm2.2-1.3c0.8 2.2 2 4.3 2.9 6.5 0.3 0.6 1.2 0.1 0.9-0.5-0.8-2.2-1.7-4.4-3.4-6.2-0.1-0.2-0.4 0-0.4 0.2zm-16.7 10.3c1.7 3.6 3.2 7.3 5.2 10.7 0.2 0.3 0.6 0.1 0.5-0.1-1.4-3.8-3.3-7.4-5.2-10.8-0.2-0.3-0.6-0.1-0.5 0.2zm-1.2 0.3c-0.5 1.1 0.5 2.7 1 3.7q1.3 3.2 2.8 6.4c0.4 0.9 1.6 0.2 1.3-0.7q-1.1-2.4-2.2-4.9-0.5-1.1-1-2.2c-0.3-0.7-1-1.5-1.1-2.2 0-0.5-0.6-0.6-0.8-0.1zm23.6 1.4q0.1 0.1 0.2 0.1c0.5 0.2 0.8-0.5 0.3-0.6q-0.1 0-0.2 0c-0.3-0.1-0.6 0.3-0.3 0.5zm5.1 0.5c0.7 0.7 1.3 1.3 2.2 1.7 0.3 0.1 0.5-0.3 0.3-0.6-0.6-0.7-1.3-1.1-2.1-1.6-0.3-0.2-0.7 0.3-0.4 0.5zm29.7-26.2c0 1.2 0.7 2.4 1.6 3.2 0.3 0.3 0.9 0 0.6-0.4-0.6-1-1.2-2-2-2.9 0-0.1-0.2 0-0.2 0.1zm1.2-0.4c0.3 0.9 0.7 1.8 1.2 2.7 0.4 0.8 0.6 1.4 1.4 1.8 0.2 0.1 0.4-0.1 0.4-0.3 0.2-0.9-0.4-1.5-0.9-2.2-0.5-0.8-1-1.6-1.7-2.3-0.1-0.1-0.4 0-0.4 0.3zm1.8-0.3c0.2 2.1 1.2 4.5 2.7 5.9 0.3 0.4 1 0.1 0.9-0.4-0.7-2-1.9-4.1-3.1-5.6-0.2-0.2-0.5-0.1-0.5 0.1zm2.1 0.2c-0.3 0.8 0.2 1.5 0.6 2.3q0.8 1.7 1.9 3.3c0.4 0.6 1.4 0.1 1.1-0.6q-0.8-1.8-1.8-3.3c-0.5-0.7-0.9-1.6-1.7-1.8 0 0-0.1 0-0.1 0.1zm1.2-1.8c0.9 2.2 2 4.3 3.1 6.5 0.3 0.6 1.2 0.1 0.9-0.5-0.9-2.4-2-4.3-3.8-6.2-0.1-0.1-0.2 0-0.2 0.2zm66.7-12.3q0.8-0.6 1.6-1.2c0.6-0.5-0.2-1.5-0.8-0.9q-0.7 0.7-1.5 1.4c-0.4 0.4 0.2 1.1 0.7 0.7zm-44.2 18.4q0.2 0.2 0.4 0.4c0.5 0.5 1.3-0.2 0.8-0.7q-0.2-0.2-0.4-0.4c-0.5-0.5-1.2 0.2-0.8 0.7zm-19.9 9.5q-0.4 0-0.8 0c-0.9 0.1-0.8 1.3 0.1 1.2q0.4-0.1 0.8-0.1c0.6-0.1 0.5-1.1-0.1-1.1zm90.4-69.9c0.1 0 0-0.2-0.1-0.1-0.1 0 0 0.2 0.1 0.1zm-0.4 0c0.6 1.8 1.1 3.7 1.8 5.4 0.1 0.3 0.6 0.2 0.6-0.1-0.2-1.9-0.8-3.8-1.7-5.5-0.2-0.4-0.8-0.2-0.7 0.2zm3.2 1.8c-0.1 1.2 0.6 2.6 1.3 3.5 0.2 0.2 0.5 0 0.5-0.3-0.2-1.1-0.7-2.5-1.7-3.3 0 0-0.1 0.1-0.1 0.1zm2.1-0.3c0.4 1.2 0.5 2.4 1.1 3.5 0.2 0.6 1.1 0.2 0.9-0.3-0.2-1.3-0.9-2.3-1.4-3.5-0.1-0.4-0.8-0.1-0.6 0.3zm35.9-26.1c-0.5 1.3 1 2.8 1.7 3.8 0.6 0.8 1.9 0.2 1.4-0.7-0.7-1-1.5-3.1-2.9-3.2q-0.1 0-0.2 0.1zm1.3-0.9c0.3 1.9 2.1 3.8 3.3 5.2 0.6 0.8 1.6-0.3 1.1-1-1.1-1.5-2.1-3.7-3.6-4.7-0.4-0.3-0.8 0.1-0.8 0.5zm1.9-0.7c0.9 2.3 2.6 4.3 4 6.4 0.3 0.5 1.2 0.1 0.9-0.5-1.2-2.2-2.6-4.7-4.7-6.1-0.1-0.1-0.3 0-0.2 0.2zm2.1-0.2c1 2.6 2.9 4.9 4.4 7.2 0.5 0.7 1.5 0.2 1.2-0.7-1.1-2.5-2.6-5.5-5-7-0.4-0.3-0.7 0.2-0.6 0.5zm3.8 1.3c1.4 2.2 2.7 4.4 4.2 6.6 0.3 0.3 0.8 0.1 0.6-0.3-1.1-2.6-2.6-4.6-4.4-6.6-0.2-0.2-0.6 0-0.4 0.3zm-0.5-0.1c0 1.3 0.8 2.3 1.3 3.4 0.8 1.4 1.4 2.9 2.3 4.2 0.5 0.8 2 0.5 1.7-0.6-0.4-1.6-1.2-3-2.2-4.4-0.7-1-1.6-2.4-2.9-2.8-0.1 0-0.2 0.1-0.2 0.2zm4.9 14.1c0 0.8 0.1 1.4 0.4 2.1 0.3 0.6 1.1 0.2 1-0.3-0.1-0.8-0.4-1.3-0.8-2-0.2-0.2-0.6-0.2-0.6 0.2zm2.3 1.5c0.1 0.4 0.1 0.9 0.2 1.4 0 0.6 0.7 0.6 0.8 0 0.1-0.6 0-1.1-0.3-1.7-0.2-0.3-0.8-0.1-0.7 0.3zm-31.9 24.3c0.9 0.9 2 1 2.9 0.1 0.2-0.3 0.1-0.7-0.3-0.8-0.8 0-1.5 0.1-2.3 0.1-0.3 0.1-0.5 0.4-0.3 0.6zm1.8-1.7c0.5 0.4 1 0.5 1.6 0.5 0.9 0 0.8-1.4-0.1-1.2q-0.6 0.1-1.2-0.1c-0.5-0.1-0.7 0.5-0.3 0.8zm0-2.6c0.5 0.3 0.9 0.4 1.5 0.3 0.6-0.1 0.4-1-0.2-0.9q-0.5-0.1-0.9-0.1c-0.5-0.2-0.7 0.5-0.4 0.7zm-4.9-17.3c0 0.7 0.2 1.1 0.6 1.7 0.1 0.2 0.5-0.1 0.4-0.3-0.3-0.5-0.6-1-0.8-1.5-0.1-0.1-0.2 0-0.2 0.1zm1.9 0.4q0.2 0.3 0.5 0.7c0.3 0.4 0.9-0.1 0.6-0.5q-0.3-0.3-0.6-0.6c-0.2-0.2-0.7 0.1-0.5 0.4zm-171.4 73.3q-0.5 0-1 0.1c-0.3 0-0.6 0.2-0.5 0.5 0.6 2.1 1.5 3 3.5 3.7 0.6 0.2 1.2-0.4 0.9-1-1.3-1.9-3-2.8-5.3-2.8-0.5 0-0.8 0.5-0.6 0.9 0.9 2 2.1 3.9 4.4 4 0.3 0 0.6-0.2 0.6-0.5 0.7-2.3-3.1-5-5.2-4.2-3.2 1.2 0.2 3.9 2 4.3 0.3 0.1 0.8-0.1 0.8-0.6 0-2.4-4.1-4.3-5.2-1.6-0.7 1.7 2.1 4.6 3.9 3.5 2.8-1.6-1.6-4-3.1-3.9-3.5 0.4-1.7 3.7 0.9 4.2 0.4 0 0.7 0 0.9-0.3 3-5.2-10.1-2.7-4 1.1 1.4 0.9 3.8 0.1 3.3-1.8-0.6-2.8-4.6-1.5-5.7 0.1-0.1 0.2-0.1 0.5 0 0.7 0.8 1.2 3.7 3 4.2 0.6 0.6-3.2-6.1-2.1-7.2-1.7-0.6 0.2-0.7 0.9-0.2 1.2 1.4 1 4.7 2.1 5.5-0.2 0.1-0.2 0-0.5-0.2-0.6-1.1-1.2-3.3-0.4-4.5 0.3-0.2 0.2-0.3 0.4-0.3 0.7 0.4 3.5 6.8 1.8 8.6 0.5 0.7-0.6 1.3-2.2 1.7-2.5 1.1-0.6 2.2 0.6 3.3-0.4 0.1-0.1 0.2-0.3 0.1-0.5-0.2-1-0.7-1.2-1.2-2q-0.3 0.5-0.6 0.9 1.8 0.5 3.5 1c0.3 0 0.7-0.1 0.7-0.4q0.1-0.3 0.2-0.7c0.1-0.6-0.6-0.9-1-0.4-2.3 2.8-7.4 5.2-10.5 7.2-3.3 2-6.8 3.4-10 5.4q0.5 0.6 0.9 1.3c2.2-1.7 3.7-3.5 5.1-5.8 0.4-0.7-0.4-1.6-1.1-1.2-1.4 0.8-2.5 1.7-3.7 2.8q0.6 0.5 1.3 1.1c0.7-1.5 1.5-2.8 2.8-3.9q-0.8-0.4-1.5-0.7-0.1 1.1-0.3 2.1c-0.2 0.8 0.9 1.1 1.4 0.7 1.5-1.2 2-2.1 2.3-4q-0.8 0-1.6 0.1c2.2 6.8 9.2-2.7 1.5-1.8q0.1 0.7 0.3 1.4c3.2-1.1 6.3-2.5 9.4-4.1 0.7-0.3 0.3-1.5-0.5-1.4q-0.5 0.1-1 0.2c-0.8 0.2-0.7 1.5 0.1 1.5 1.7 0 3.2 0.3 4.8 0.9 0.9 0.4 1.4-1.1 0.4-1.5-1.7-0.7-3.2-0.9-5.1-0.9q0.1 0.7 0.1 1.5 0.5-0.1 1-0.2-0.3-0.7-0.5-1.4c-3 1.6-6.1 2.9-9.2 4.1-0.8 0.3-0.3 1.4 0.5 1.3q-0.1 0-0.2 0.1c-0.2-0.7-1.5-1-1.6-0.1q-0.9 1.5-1.9 3 0.8 0.4 1.5 0.7 0.1-1.1 0.3-2.1c0.1-0.8-0.9-1.1-1.4-0.7-1.3 1.3-2.3 2.6-3.1 4.3-0.3 0.8 0.6 1.7 1.3 1q1.5-1.5 3.4-2.5-0.6-0.6-1.1-1.2c-1.3 2.2-2.8 4-4.8 5.5-0.7 0.6 0.2 1.8 0.9 1.3 3.8-2.3 7.9-4 11.5-6.6 3.2-2.2 6.7-3.7 9.2-6.9q-0.5-0.2-1-0.4-1.5-0.1-3-0.7c-0.5-0.1-0.9 0.5-0.5 1q1.6 1.6-2.4 0.7c-0.4-0.1-0.8 0.2-0.7 0.7q-1.5 2.9-4.4 3.2-2.1-0.7-4-1.8-0.1 0.6-0.2 1.2c1.8-0.6 12.4-5.1 13.7-2.6q0.4-0.5 0.9-1-1.2-1.3-2.4-2.5c0.3-0.1 0.2-0.5-0.1-0.5zm-0.3 0.6c0.1 2.1 4.2 4.6 5.9 3.1 0.1-0.1 0.1-0.3 0.1-0.4-0.6-1-1.6-1.1-2.6-1.5-1-0.4-1.9-1.4-3-1.5-0.2 0-0.4 0.2-0.4 0.3zm-19.7-21.3c-1.3-0.2-1.6 1.3-2.2 2.2-1.9 2.6-5 3.6-7.9 2.2q-0.3 0.9-0.6 1.8c1.9-0.1 3.7-0.5 5.4-1.3 2.1-1 3.6-3.1 5.8-3.8q-0.5-0.6-1-1.2c-0.6 2-2.3 3.5-4.2 4.4-2.2 1.1-6.5 0.9-5.7-2.8 0.2-0.9-1-1.2-1.3-0.4-1.3 3.1 1.5 5.6 4.5 5.6 3.5 0 7.4-2.9 8.4-6.3 0.2-0.6-0.4-1.3-1-1.1-1.6 0.5-2.7 1.5-4 2.5-2 1.6-4.2 2.4-6.8 2.4-0.9 0-1.5 1.3-0.5 1.8 2.1 1.1 4.5 1.5 6.7 0.5 1.1-0.5 2.1-1.2 2.8-2.1 0.4-0.5 0.7-0.9 0.9-1.5 0.3-0.6 0.3-2.2 0.8-2.7 0.1-0.1 0-0.2-0.1-0.2zm29.5 17.6c5.4 4 11.5 2.1 17.1-0.5 8.2-3.7 17.2-10.8 26.2-11.9 0.8-0.1 0.6-1.3-0.1-1.3-5.7-0.4-11.3 3.8-16.2 6.3-8.2 4.2-17.3 11-26.7 6.7-0.4-0.1-0.6 0.4-0.3 0.7zm4.4-1.7q-0.3-0.2-0.5-0.5c-0.3-0.4-1 0-0.6 0.4 1.1 1.3 3.2 1.4 4.7 0.9 0.6-0.2 0.4-1.1-0.2-1-1.5 0.2-2.8-0.2-4.2-0.5q0 0.4-0.1 0.7 0.4 0.1 0.9 0.2c0 0 0.1-0.1 0-0.2zm2.4-2c0.5 1.1 2.2 1.1 3.2 0.7 1-0.3 0.5-1.7-0.5-1.3-0.9 0.3-1.7 0-2.5 0.2-0.2 0-0.3 0.2-0.2 0.4zm40.3-18.5c0.6-0.6 1.1-1.1 1.6-1.8 0.3-0.4-0.2-0.7-0.5-0.5-0.7 0.6-1.2 1.1-1.7 1.8-0.3 0.3 0.3 0.8 0.6 0.5zm20-64.5c0.3 0.5 0.8 0.6 1.3 0.8 0.9 0.5 1.6 1 2.3 1.6 0.6 0.5 1.6 0 1.2-0.8-0.7-1.2-3.5-3.3-4.8-1.8 0 0-0.1 0.1 0 0.2zm3.7-1.4c0.4 0.9 1.3 1.6 1.9 2.2 0.8 0.9 2-0.3 1.3-1.2-0.7-0.8-1.8-1.7-3-1.5-0.2 0-0.3 0.3-0.2 0.5zm4.6-1.9q-0.1-0.1-0.3-0.3c0.1-1.3-2.2-0.6-1.3 0.5 0.8 0.9 1.6 1.6 2 2.7 0.4 1.5 2.8 0.9 2.3-0.5-0.6-1.7-1.7-3.3-3.7-3.4q0.3 0.5 0.6 1.1 0.2 0 0.4 0c0.1 0 0.1-0.1 0-0.1zm31.2-4.4c1.6-0.1 2.9 0 4.3 0.6 1.2 0.4 2.4 0.8 3.7 0.8 2.2 0 4.4-1.1 5.4-3 0.3-0.6-0.3-1.6-1-1.1-1.3 0.9-2.7 1.8-4.3 1.8-1.5 0.1-2.7-0.6-4.1-1-1.6-0.3-3.7-0.3-4.2 1.6-0.1 0.1 0 0.3 0.2 0.3zm7.7-3.1c1.5 0.2 3.4-0.6 4.4-1.7 0.3-0.4 0.2-1.1-0.4-1.1-1.6 0.1-3.4 1.1-4.2 2.4-0.1 0.2 0 0.4 0.2 0.4zm1.4-3.2c1.9 1.4 5.2-1.4 4.6-3.5-0.1-0.3-0.5-0.5-0.7-0.2-0.6 0.6-1.1 1.4-1.7 2-0.7 0.6-1.5 0.7-2.2 1.2-0.2 0.1-0.1 0.4 0 0.5zm-0.4-3.6c1.9-0.1 3.6-1.3 3.3-3.4-0.1-0.4-0.7-0.5-0.9-0.2-0.6 1.2-1.2 2.6-2.5 3.1-0.2 0.1-0.1 0.5 0.1 0.5zm-86.3 53.8c1-1.2 2.6-1.9 4.2-2 1.2 0 2.3 0.4 3.5-0.1 0.4-0.2 0.3-0.8 0-1-1.4-1-3.6-0.8-5.2-0.3-1.6 0.5-2.6 1.4-3.1 3-0.1 0.3 0.3 0.6 0.6 0.4zm2.4-5.2c1.6-0.2 3.2-0.2 4.8 0.2 1 0.3 1.4-1.1 0.5-1.4-1.9-0.8-4-0.5-5.4 1-0.1 0.1 0 0.2 0.1 0.2zm-0.2-3c1.7 0.9 5.1 1.6 6.5-0.1 0.2-0.2 0-0.6-0.3-0.7-0.8-0.3-1.7 0.1-2.6 0.2-1.1 0.2-2.3 0.2-3.4 0.2-0.2 0-0.4 0.3-0.2 0.4zm1.4-2.3c1.3 1.3 5.3 0.6 5-1.6-0.1-0.2-0.3-0.4-0.5-0.4-0.9 0-1.1 0.6-1.8 1-0.8 0.5-1.7 0.5-2.6 0.8-0.1 0-0.2 0.1-0.1 0.2zm-41.5 23.6c1.1 0.1 2.2-0.7 3.2-1.2 0.6-0.4 0.1-1.3-0.5-1-1 0.5-2.3 0.8-2.9 1.8-0.1 0.2 0 0.4 0.2 0.4zm1-4.8c0.8 0.1 1.5 0.2 2.3 0.4 0.8 0.3 1.1-1 0.3-1.2-0.9-0.3-1.9-0.3-2.8 0.2-0.2 0.2-0.2 0.6 0.2 0.6zm51.7-28.8c0.3 1.2 2.1 2.5 3.2 3.2 1 0.7 2.4 1 3.5 0.3 2.7-1.6-0.1-4.8-2-5.5-1.4-0.6-2.5 0.2-3.8-0.2-1-0.4-2.2-0.2-2.5 1-0.2 1.4 1.2 2.4 2.1 3.2 1.3 1 2.9 2.1 4.6 2.1 0.3 0 0.6-0.4 0.3-0.7-1.4-1.3-3.2-1.9-4.6-3.3q-0.2-0.3-0.4-0.6-0.1-0.3-0.4 0c0.3 0.1 0.6 0.3 0.9 0.4 0.7 0.2 1.2 0 1.9-0.2 0.9-0.2 1.6 0.1 2.3 0.7 0.3 0.2 0.9 0.6 0.9 0.9q-0.2 0.5-0.5 1.1-0.5 0.2-1.1-0.1c-1.5-0.5-2.6-2.5-4.3-2.5 0 0-0.1 0.1-0.1 0.2zm-63 36.1c-0.3 1.8-0.7 3.7-0.6 5.5 0.1 1 0.5 2 1.7 2.3 2.5 0.5 3.5-2.2 3.5-4.2 0-1.7-0.5-6.6-3.5-5.7-2.6 0.9-1.7 5.6-0.7 7.3 0.3 0.6 1.2 0.3 1.1-0.4-0.4-1.3-1.4-4 0.1-4.8 0.7-0.4 0.8 0 1.1 0.7q0.2 0.6 0.2 1.1c0.1 0.8 0.2 1.6 0.1 2.3 0 0.7-0.1 1.7-0.8 2-0.5 0.3-1.1 0-1.4-0.5-0.1-0.3 0-1 0-1.3q-0.1-2.2-0.3-4.3c0-0.3-0.4-0.2-0.5 0zm37.5-24.2c1.2 1.1 3.6 2 4.5 0 0.8-2-1.4-3.3-3.1-3.3-1.5-0.1-4.2 0.1-4.4 2.1-0.3 2.4 2.8 2.6 4.3 2.1 0.8-0.2 0.6-1.4-0.2-1.2-0.7 0.1-3.6 0.4-2.6-1.1 0.4-0.5 1.6-0.6 2.2-0.6 0.7-0.1 2.4-0.2 2.6 0.8q-0.2 0.6-0.4 1.2-0.7 0.3-1.5 0-0.6-0.1-1.2-0.4c-0.2 0-0.4 0.3-0.2 0.4zm5.8 11.1c-1.5 0.6-3.5 2.4-1.9 4.2 1.4 1.6 3.7-0.3 4.3-1.8 0.6-1.3 0.7-4.5-1.3-4.5-2.1-0.1-3.4 2.9-3.3 4.6 0 0.6 0.9 0.9 1.1 0.2 0.2-0.8 0.4-1.6 0.9-2.3 0.1-0.2 0.8-1 1.1-1.1 0.5 0 0.6 1.2 0.6 1.5-0.1 1-0.6 2.3-1.6 2.6-1.4 0.4-1.4-1.2-0.9-1.9 0.3-0.5 0.7-1 1.1-1.4 0.1-0.1 0-0.2-0.1-0.1zm-27.8-1.2c-0.2 1.5 0.6 3.6 2.5 3.1 1.9-0.4 1.3-2.7 0.5-3.9-0.9-1.2-2.9-2.4-4.2-0.9-1.4 1.6 0.3 3.5 1.8 4.2 0.7 0.5 1.3-0.6 0.7-1.1-0.4-0.3-1.8-1.2-1.3-2 0.4-0.8 1.5 0.3 1.8 0.7 0.4 0.4 1 1.4 0.1 1.8-0.7 0.3-1.4-1.5-1.6-1.9-0.1-0.2-0.3-0.1-0.3 0zm88-44.5c0.8 1.5 3.3 3.3 5.1 2.2 2.1-1.2-0.2-3.6-1.6-4.2-1.5-0.8-3.9-0.7-4.4 1.3-0.6 2.5 2.3 3.5 4.2 3.7 0.9 0.1 0.9-1.3 0-1.4-1-0.2-2.7-0.3-2.7-1.7 0-1.4 1.6-1.1 2.6-0.6 0.4 0.2 0.7 0.5 1 0.9q1.1 0.8-0.7 1.2-0.3-0.1-0.7-0.1c-0.9-0.3-1.7-0.8-2.4-1.6-0.1-0.2-0.5 0-0.4 0.3zm43.8-18.8q0-0.3 0-0.6c0-0.3-0.3-0.4-0.5-0.2-0.8 1.5-1 4 1 4.6 2.1 0.6 3.2-2.3 3.3-3.9 0-1.6-0.9-4-2.9-3.8-2.6 0.3-1.6 3.6-1.8 5.3-0.1 0.6 1 0.8 1.2 0.2 0.2-0.9 0.1-1.7 0.1-2.6 0-0.7 0.3-1.8 1.3-1.3 0.4 0.3 0.7 0.9 0.7 1.4 0.2 0.8 0 2.8-0.8 3.2q-0.7 0-1.3 0-0.5-0.5-0.4-1.2c0-0.6 0.1-1.2 0.1-1.7q-0.2 0.1-0.3 0.2 0.1 0.2 0.2 0.4c0 0.1 0.1 0.1 0.1 0zm25.4-15.8c-0.8 2.2-0.8 5.5 2.2 6 2.7 0.4 3.2-2.4 2.5-4.4-0.5-1.4-3-5.2-5-3.6-0.8 0.7-0.7 2.3-0.6 3.2 0.1 1.2 0.4 2.9 1.5 3.6 0.3 0.2 0.7 0 0.7-0.3-0.1-1.2-0.7-2.2-0.8-3.5 0-0.7-0.2-1.9 0.9-1.4 0.6 0.3 1.3 1.2 1.6 1.7 0.3 0.6 0.6 1.3 0.6 2 0 0.6-0.3 1.1-0.9 1.2-0.5 0.1-0.8-0.1-1.2-0.3-1.1-0.9-1.1-2.9-1.2-4.1 0-0.2-0.2-0.2-0.3-0.1zm-5.4 11.2c0.3 1.7 3.1 2.6 4.3 1.4 1.4-1.6-1.3-3.1-2.3-3.7-0.9-0.5-1.8-0.9-2.8-0.6-0.7 0.2-1.3 0.9-1.2 1.7 0 2 3.2 3.5 4.9 3.4 0.6 0 0.8-0.9 0.2-1.1-0.9-0.4-1.7-0.5-2.5-1-0.3-0.1-1-0.5-1.1-0.8-0.5-1.9 1.5-0.7 2-0.4 0.4 0.2 0.8 0.4 1.1 0.6 0.4 0.3 0.9 0.5 0.6 1-0.5 1-2.3-0.4-2.9-0.7-0.2-0.1-0.3 0-0.3 0.2zm-46.8 15.1c-1.3 1.6-1 4.8 1.3 5.4 2.4 0.7 3.5-2.2 3.2-4.1-0.2-1.1-0.4-2.5-1.4-3.1-0.8-0.4-1.8-0.2-2.5 0.3-1.7 1.2-1.8 5.1-0.2 6.4 0.5 0.4 1.3-0.2 0.8-0.8-0.8-0.8-0.9-3.1-0.2-4.1 0.6-1 1.5-0.7 1.9 0.4 0.1 0.4 0.2 1 0.3 1.5 0.1 1.5-1.4 3.3-2.6 1.5-0.7-1.1-0.2-2.3-0.5-3.4 0-0.1-0.1-0.1-0.1 0zm37.7 98.7c-0.5 2 2.7 4 4.4 4.1 1 0 1.9-0.7 1.8-1.8-0.1-1.1-1.2-2.1-2.1-2.7-1-0.9-5-3.2-5.4-0.5-0.1 1.2 0.9 2.3 1.7 2.9 0.9 0.8 2.1 1.2 3.3 1.2 0.9 0 1.5-0.9 1.1-1.7-0.7-1.4-1.9-2.4-3.4-2.8-0.8-0.2-1.6 0.5-1.4 1.3 0.2 0.8 0.5 1.2 1.2 1.7 0.9 0.6 2-0.7 1.2-1.5q-0.1-0.4-0.2-0.7-0.7 0.7-1.4 1.3c0.9 0.3 1.5 0.9 1.9 1.8q0.6-0.9 1.1-1.7c-0.7 0-1.2-0.2-1.8-0.5q-0.4-0.3-0.7-0.6c-0.3-0.3-0.2-0.6-0.4-0.3q-0.4 0.3-0.7 0.5c0.7-0.2 3.9 1.8 3.8 2.7q0.2-0.4 0.3-0.8c-0.2 0.2-3-1.5-3.1-1.9-0.1-0.6-1-0.7-1.2 0zm-54.5 22.9c-2 1-1.6 4.2-0.3 5.7 0.8 0.9 2.1 1.2 3 0.3 0.9-1 0.9-2.5 0.8-3.7-0.1-1.6-1-5.7-3.5-4.3-2.3 1.3-0.9 5.4 0.6 6.8 0.7 0.6 2 0.3 2-0.8q0.1-2.2-1.4-4c-0.5-0.6-1.7-0.2-1.6 0.7 0 0.5 0.1 1 0.2 1.6 0.1 0.2 0.3 0.6 0.6 0.6 1.4 0.3 1.1-1.2 1.1-2.1q-0.9 0.2-1.8 0.4c0.5 0.7 0.8 1.5 0.6 2.4q1-0.2 2-0.4c-0.4-0.5-0.8-1-1-1.7-0.1-0.2 0-1.2-0.2-1.3-0.9-1-0.2 0.8-0.2 1q0.2 0.8 0.2 1.6 0 0.4 0 0.7-0.4 0.7 0.4 0.5c-0.2-0.4-0.6-0.7-0.7-1.2-0.3-0.8-0.2-1.7-0.3-2.6 0-0.2-0.3-0.3-0.5-0.2zm45.9-17.3c-0.4 1 0 1.9 1.1 2.2 0.6 0.1 1-0.3 0.9-0.9-0.1-1.9-1.6-3.4-3.4-3.9-0.6-0.2-1 0.2-1.1 0.7-0.3 1.7 0.7 3.7 2.5 4.1 0.7 0.2 1.5 0.1 1.9-0.6 0.4-0.7 0-1.4-0.4-2-0.7-1.1-2.9-3.3-4.1-1.6-1.3 1.8 1.1 3.7 2.6 4 0.9 0.3 1.5-0.9 0.7-1.5-0.2-0.1-1.8-1.3-1.6-1.5q-0.3 0.2-0.7 0.3c0.4 0 0.9 0.5 1.1 0.8q0.2 0.3 0.4 0.6 0.3 0.6 0.2 0.3 0.1-0.4 0.3-0.7c-0.1 0.1-0.9-0.8-0.9-0.8-0.3-0.4-0.3-0.8-0.3-1.3q-0.5 0.4-1.1 0.8c1.4 0.3 2.2 1.3 2.5 2.6q0.4-0.4 0.8-0.8-0.7-0.2-0.8-0.8c-0.1-0.3-0.5-0.3-0.6 0zm16.6-9.1c0.5-0.3 2-2.2 2.1-2.2q-0.3-0.2-0.6-0.4c-0.1-0.3-0.8 0.7-1 1q-0.7 0.8-1.3 1.6 0.9 0.4 1.7 0.8 0.5-1.3 0.9-2.6c0.3-0.8-0.6-1.3-1.3-1.1-1.1 0.5-2.4 1.3-2.3 2.7 0.1 1 0.9 1.9 1.9 1.8 1.8-0.2 4.2-4.3 2.1-5.3-2.1-1-4.1 2.7-3 4.4 0.6 0.9 1.7 0.8 2.5 0.2 1-0.8 1.6-2.1 1.3-3.4-0.1-0.7-1.2-0.8-1.4-0.1-0.1 0.3-0.3 2-0.8 2-0.1 0 0.5-1.3 1.1-1.3q-0.4-0.1-0.7-0.1c-0.5-0.3 0-0.5-0.3 0.1-0.2 0.3-0.2 0.6-0.5 0.9-0.1 0.3-0.8 0.7-0.1 0.3 0.4-0.2 0.6-0.4 1.1-0.5q-0.7-0.6-1.4-1.1-0.4 1.3-0.9 2.5c-0.4 1.1 1.1 1.6 1.7 0.8 0.7-0.8 4.2-4.2 1.8-5-1.8-0.6-3.4 2.1-3.3 3.6 0 0.3 0.3 0.6 0.7 0.4zm-112.2 50.2q0 0 0 0c-0.1-0.1-0.2-0.1-0.3 0-1.4 1.2 2.1 2.1 2.8 2 0.9 0 1.8-0.4 1.8-1.4 0.1-1-1-1.6-1.8-1.9-1.3-0.5-5.5-1.3-5.3 1.2 0.2 2.3 4.3 2.3 5.8 1.8 0.7-0.2 1-1 0.5-1.6-1.1-1.2-2.6-1.7-4.2-1.3-0.6 0.1-1 0.8-0.6 1.3 0.4 0.7 1 1.5 1.9 1.6 0.7 0.2 1.6-0.1 1.9-0.9 0.5-1.3-1.3-2.7-2.1-1.3-0.2 0.4 0.1 0.8 0.6 0.8q-0.4-0.6-0.7-1.1-0.3 0.7-0.6 1.4 1.4-0.3 2.4 0.8 0.3-0.8 0.5-1.6c-0.9 0.3-1.8 0.4-2.6 0.1-0.5-0.1-0.8-0.5-1 0-0.2 0.4 0.8 0.1 1.2 0.1q0.7 0.1 1.3 0.3 0.4 0 0.7 0.2 0.3 0.2 0.5-0.1-0.7 0.1-1.3 0.1c-0.2 0-1.3-0.4-1.4-0.3 0.1-0.1 0.1-0.1 0-0.2zm51.9-35.6c-0.3 0-0.4-0.2-0.6-0.4q0 0.3 0.1 0.5c0.2-0.4 0.1-0.7 0.2-1.2 0.2-0.7 0.8-1.2 1.3-1.6 0.4-0.5 0-1.4-0.7-1.2-1.6 0.4-3.6 1.9-2.5 3.8 0.3 0.4 0.7 0.6 1.1 0.5 0.5-0.1 0.7 0 1.2-0.2 0.1 0 0-0.2-0.1-0.2zm16.1-127.8q-0.1 0-0.2 0-0.1 0-0.1 0.1c-0.2 0.5 0 0.8 0.5 0.9 0.2 0.1 0.5 0.1 0.6-0.1 0.9-0.8 1.3-2 1.8-3.1 0.5-1.2 0.9-2.4 1-3.7 0.1-0.8-1-1.1-1.3-0.5-0.6 1.1-1 2.3-1.4 3.4-0.2 0.7-0.5 1.3-0.7 1.9-0.1 0.2-0.6 1.6-0.2 1.4 0.3-0.1 0.2-0.4 0-0.3zm4.4-0.5c-0.3 0.4-0.6 0.8-0.8 1.3-0.2 0.6 0.6 1 1 0.6 2.6-2.2 4.3-6.5 3.2-9.9-0.2-0.6-1.1-0.6-1.2 0.1-0.2 1.6-0.3 3.2-0.8 4.8-0.4 1.6-1.2 2.9-2.1 4.3q0.5 0 0.9-0.1 0.1-0.4 0.1-0.9c0.1-0.1-0.2-0.3-0.3-0.2zm6-1.4c0.8-0.8 1.3-1.7 1.6-2.8 0.4-1.2 0.2-2.1 0.1-3.3-0.1-0.6-1.1-0.7-1.2-0.1-0.3 1.9-1 3.8-1.5 5.6-0.2 0.5 0.6 1 1 0.6zm4-3.7c0.8-0.6 0.9-1.9 1.2-2.9 0.3-1.1 0.9-2.2 0.7-3.4-0.1-0.6-1.1-0.7-1.4-0.2-0.6 1-0.6 2.3-0.7 3.4-0.1 1-0.5 2.2 0 3.1 0 0.1 0.1 0.1 0.2 0zm-99.3 47.4c-1 0.9-1.2 2.9-1.4 4.2-0.1 0.9 1.4 1.2 1.6 0.3 0.1-0.6 0.4-1.1 0.6-1.7 0.1-0.4-0.4-0.7-0.7-0.4-0.4 0.4-0.7 0.9-1.2 1.2q0.7 0.4 1.4 0.7c0.1-1.3 0.6-3.2-0.1-4.3q-0.1-0.1-0.2 0zm2.2-0.7q0.2-0.4 0.5-0.7-0.2-0.2-0.3-0.3c-0.5 1.5-0.8 3.3-1 4.9-0.2 0.9 1.3 1.1 1.6 0.2 0.1-0.5 0.1-0.9 0.1-1.4-0.1-0.3-0.5-0.6-0.7-0.3-0.4 0.3-0.7 0.6-0.9 1.1q0.7 0.3 1.5 0.6c0.4-1.5 0.4-3.6-0.2-5.1 0-0.2-0.3-0.3-0.4-0.1-0.2 0.4-0.3 0.7-0.4 1.1 0 0.1 0.1 0.1 0.2 0zm3-3.1c-0.7 1.2-1 2.6-1.3 3.9-0.1 0.4-0.1 0.8 0.2 1q0.1 0.1 0.2 0.2c0.2 0.2 0.5 0.3 0.7 0.2q0.1-0.1 0.3-0.2c0.2-0.2 0.5-0.5 0.5-0.8-0.1-1.4 0-2.9-0.4-4.3 0-0.1-0.2-0.1-0.2 0zm111.6-12c0.1 1.5 1.1 2.9 1.8 4.2 1 1.6 1.8 3.1 3.2 4.3 0.4 0.4 0.9 0 0.7-0.5-0.7-1.7-1.8-3.2-2.9-4.8-0.7-1.2-1.4-2.5-2.6-3.3 0-0.1-0.2 0-0.2 0.1zm1.6-4.9c0-0.2 0-0.3-0.2-0.4-0.1-0.1-0.3-0.2-0.4-0.1q-0.1 0.1-0.1 0.1c-0.4 0.3-0.5 0.7-0.4 1.1 1.8 4.4 4.7 10.4 8.5 13.4 0.6 0.5 1.4-0.2 1.2-0.8-0.8-3.1-3.1-5.8-4.8-8.4-0.7-1.1-1.4-2.2-2.1-3.3-0.4-0.4-1.1-1.8-1.5-1.9 0.1 0-1.4-0.4-0.4 0.3 0.1 0.1 0.1 0 0.2 0zm2.7-1.3c0.8 2.4 2 4.6 3.3 6.8 1.1 1.9 2.1 4.1 3.9 5.4 0.4 0.3 0.9-0.1 0.8-0.6-0.4-2.3-2.2-4.2-3.4-6.1-1.2-2-2.5-4-4-5.8-0.2-0.2-0.7 0-0.6 0.3zm6.9 4.7c-0.2 1.2 0.5 2.5 1.1 3.5 0.5 1 0.9 2.1 2.1 2.3 0.3 0.1 0.5-0.2 0.6-0.5 0.1-1.1-0.9-1.9-1.5-2.7-0.7-0.9-1.2-2.1-2.2-2.7 0 0-0.1 0-0.1 0.1zm2.9-0.7c0.5 1.3 0.9 2.6 1.3 3.9 0.2 0.9 1.7 0.6 1.5-0.4-0.4-1.5-1.2-2.7-2.4-3.8-0.3-0.1-0.6 0-0.4 0.3zm-19.6 5.4c0.5 1 1 1.8 1.8 2.6 0.4 0.3 1-0.1 0.7-0.5-0.5-1-1.2-1.7-1.9-2.5-0.3-0.3-0.8 0.1-0.6 0.4zm-121.6 66.3c0.1 2 0.5 4.2 2.4 5.2 0.5 0.3 1.2-0.2 0.9-0.8-0.8-1.6-2.2-2.7-2.7-4.5-0.1-0.3-0.7-0.3-0.6 0.1zm2.2-1.1q-0.1 0.1-0.2 0.2c-0.1 0.1-0.2 0.3-0.1 0.5 0.3 1.6 1 2.8 2.1 4 0.7 0.7 1.8-0.3 1.1-1.1q-0.7-0.8-1.3-1.7c-0.3-0.4-0.6-1.2-0.9-1.6-0.2-0.1-0.5-0.4-0.7-0.3zm-0.3-4.5c1 3.7 3.3 7.6 6.2 10.2 0.5 0.5 1.5 0 1.1-0.8-1.9-3.3-4.3-6.7-6.8-9.7-0.2-0.2-0.6 0-0.5 0.3zm6.5 5.8c0.6 1 1.2 1.9 2 2.7 0.3 0.4 0.9 0 0.7-0.5-0.6-0.9-1.4-1.7-2.1-2.6-0.3-0.3-0.8 0.1-0.6 0.4zm51.9 37.1c-0.2 1.1 0.5 2.3 1 3.3 0.7 1.4 1.5 2.6 2.7 3.6 0.4 0.4 1.2 0 0.8-0.6-0.8-1.2-1.7-2.3-2.5-3.6-0.6-0.9-1-2.1-1.9-2.7 0-0.1-0.1 0-0.1 0zm4.7 3c0.6 1.5 1.1 3 1.8 4.5 0.2 0.7 1.3 0.1 1-0.5-0.7-1.5-1.5-2.9-2.1-4.4-0.2-0.5-0.9-0.1-0.7 0.4zm52.2-31.1c0.5 1.9 1.1 3.5 2.5 5 0.3 0.3 0.8-0.1 0.6-0.5-0.8-1.6-2-3-3-4.6 0-0.1-0.2-0.1-0.1 0.1zm3.3 1.3c0.3 1.2 0.7 2.3 1.3 3.4 0.3 0.6 1.1 0.2 0.9-0.4-0.6-1-1-2.1-1.4-3.2-0.2-0.5-0.9-0.3-0.8 0.2zm2.1 0.1c0.2 1.5 0.5 2.8 1.4 3.9 0.5 0.6 1.5-0.1 1.1-0.8-0.6-1.1-1.5-2.1-2-3.2-0.1-0.3-0.5-0.1-0.5 0.1zm27.4-17.2c0.4 2.6 1.6 5.5 4 6.9 0.5 0.3 1.1-0.2 0.8-0.7-1.3-2.2-3.1-4.1-4.3-6.4-0.1-0.3-0.6-0.1-0.5 0.2zm3.7 1.2c0.2 1.8 0.8 4.1 2.5 5 0.5 0.3 1.1-0.2 1.1-0.8q-0.1-0.3-0.1-0.6c0-0.6-0.9-0.9-1.1-0.2q-0.1 0.4-0.2 0.8 0.7 0 1.4 0c-0.6-1.6-2.1-3-3.2-4.4-0.1-0.2-0.4 0-0.4 0.2zm1.8-1.6q0-0.4 0-0.8-0.4 0-0.7 0c-0.1 1.8 1.1 4.3 2.7 5.3 0.6 0.4 1.2-0.2 1.1-0.8-0.2-2.6-2.8-4.9-2.5-7.6q-0.7 0.1-1.3 0.3c0.8 2.1 1.9 4.2 3.6 5.8 0.6 0.5 1.5-0.1 1.2-0.8-1-2-2.4-3.8-3.6-5.7-0.6-0.9-1.8 0.1-1.1 0.8 0.9 1 1.4 2.8 1.8 4 0.2 0.7 1 2.3 0.5 3q0.7 0.1 1.4 0.2c-0.3-0.9-0.9-1.5-1.4-2.3-0.6-0.8-1.1-1.7-1.8-2.5-0.3-0.3-0.8 0.1-0.6 0.5q0.2 0.3 0.4 0.7c0 0.1 0.2 0.1 0.3-0.1zm23.6-9.4c0.5 1.1 0.9 2.2 1.6 3.2 0.2 0.3 0.7 0.2 0.6-0.2-0.4-1.2-0.9-2.2-1.5-3.3-0.3-0.5-0.9-0.1-0.7 0.3zm2.8 1.5q0.2 0.5 0.4 0.9c0.3 0.5 1 0.1 0.8-0.4q-0.3-0.4-0.5-0.9c-0.2-0.5-1-0.1-0.7 0.4zm-86.5-3.4c1.7-0.9 2.8-2.9 4-4.5 1.5-2.1 2.9-4.2 4.2-6.5 0.5-0.9-0.7-1.6-1.4-0.8-1.5 2-3 4.1-4.4 6.4-1 1.6-2.4 3.3-2.6 5.3-0.1 0.1 0.1 0.2 0.2 0.1zm-5.1-2.5q-0.2 0.1-0.3 0.3 0.2 0.2 0.4 0.5c0.1-0.3 0.5-0.6 0.7-0.8 0.3-0.4 0.6-0.9 1-1.3q0.9-1.2 1.8-2.4c0.6-0.7-0.6-1.8-1.2-1.1-0.9 1-1.6 2-2.2 3.1-0.4 0.7-1 1.6-0.9 2.5 0.1 0.2 0.4 0.3 0.6 0.2q0 0 0.1 0c0.1-0.1 0.2-0.3 0.2-0.4q-0.1-0.2 0-0.4c0.1-0.2-0.1-0.3-0.2-0.2zm-18.2 8.5c-0.6 0.7-0.6 1.7-0.7 2.5-0.1 1.2-0.1 2.4 0.2 3.6 0.2 0.6 1.2 0.6 1.2-0.1 0-1.1-0.2-2.3-0.3-3.4 0-0.9 0.2-1.8-0.2-2.5-0.1-0.1-0.2-0.1-0.2-0.1zm3.7 0.8c-0.3 1-0.8 1.9-1 2.9-0.1 1-0.1 2 0 3.1 0 1.1 1.7 0.9 1.5-0.2-0.3-1.7-0.6-4-0.2-5.7 0.1-0.2-0.3-0.3-0.3-0.1zm-26.7 15.9c1.8-3 3.1-6.1 4.1-9.5 0.3-1-1.1-1.4-1.5-0.5-1.4 3.2-2.4 6.5-3 9.9-0.1 0.2 0.3 0.3 0.4 0.1zm4-2.2c1.8-3.1 4.3-6.8 4.4-10.5 0-0.6-0.8-1.1-1.3-0.5-2.4 2.8-3.1 7.1-3.9 10.7 0 0.4 0.5 0.7 0.8 0.3z"/></svg>