<svg version="1.2" xmlns="http://www.w3.org/2000/svg" viewBox="0 0 213 190" width="213" height="190"><style>.a{fill:#ff7e58}</style><path class="a" d="m13.1 171.8q-0.3 0-0.6-0.1c-0.1 0 0-0.1 0-0.1q0.3 0.1 0.6 0.2c0.1 0 0 0.1 0 0zm188.4-94.3c2.3 3.2-5.5 5.4-7.4 6.2-5.4 2-5.4 7.6-9.3 10.8-2.1 1.7-4.9 2.2-7.5 2.5-3.3 0.5-6.7 0.4-9.8 1.6-4.3 1.6-4.6 6.1-8.5 8.1-4.4 2.2-8.2 4.1-12 7.4-3.8 3.3-7.3 6.9-11.4 9.9-17 12.4-38.3 17.1-56 28.3-10.8 6.8-21 14.6-31.3 22.1-2.5 1.9-5.1 3.7-7.6 5.6-3 2.3-3.1 4.9-5.2 7.9-1 1.3-1.2 2.5-3.2 2-3.4-0.7-5.7-8.1-7-10.8-1.4-2.9-2.7-5.8-1-8.8 1.9-3.4 7-5.8 10.1-7.7 5.8-3.5 11.9-6.5 18.2-9.2 1-0.4 1.8 1.1 0.8 1.6-4.3 1.8-8.5 3.8-12.6 6-3.5 1.9-10.6 4.8-13 8.1-0.9 1.4-1.8 6.9-1.4 8.4 0.4 1.3 1.4 2.6 2 3.8 1.1 2 1.8 5.2 4.1 4.9 2-0.3 3.2-4.3 4.9-5.9 7.2-6.4 16-11.7 23.9-17.4 7.2-5.2 14.5-10.4 22.3-14.9 15.3-8.9 33.1-13.2 47.9-23.2 6.8-4.6 12.2-10.8 18.9-15.5 3.4-2.4 8.1-3.6 11-6.8 1.7-2 1.8-3.7 4.3-5 5.6-2.8 13.9 0.2 18.7-4.2 2.5-2.3 2.3-6.2 4.9-8.4 1.4-1.3 13.8-4.3 11.9-7.3-0.1-0.1 0.2-0.3 0.3-0.1zm-200.1 84.4c1.6 2.5 3.9 5.7 6.7 6.9 4.5 1.9 6.6-0.6 10.2-2.4 4.4-2.3 9-4.2 13.7-5.7 5.4-1.8 11.2-2.6 16.4-5.1 4.9-2.4 8.5-6.4 12.6-9.9 7.9-6.8 17.7-10.2 26.9-15 4.4-2.3 8.4-5.8 13.1-7.6 5.1-2.1 9.5-1.5 13.8-5.7 2.9-2.9 5.4-5.8 8.9-8 4.2-2.6 8.9-4.2 13.2-6.5 9.7-5.3 17.9-13.1 27.4-18.8 9.5-5.7 19.9-10.2 29.1-16.4 18.2-12.3-14.9-18.6-22-21-1.3-0.4-0.7-2.4 0.6-2 6.7 2.3 37.9 7.3 26.9 21-2.5 3.1-6.5 5-9.9 6.9-5 2.8-10.2 5.6-15.2 8.4-9.8 5.5-19 11.5-27.9 18.3-7.7 5.9-17.4 8.3-24.7 14.4-2.8 2.4-4.9 5.6-7.9 7.7-4.1 2.8-9.4 2.3-13.8 4.7-3.9 2.1-7.5 4.9-11.6 6.9-4.5 2.3-9.3 4.3-13.8 6.6-5.2 2.6-9.8 5.8-14.1 9.7-3.3 3-6.6 6.1-10.7 8-4.3 2.1-9.2 3-13.8 4.3-6.3 1.8-12.4 4.2-18.3 7.2-3.3 1.7-4.6 3.8-8 2-3.7-1.9-6.5-4.9-8.5-8.5-0.3-0.5 0.5-0.9 0.7-0.4zm70.1-149.8q0-0.1 0-0.1c-0.1-0.1-0.1-0.3 0-0.4 5.1-7.1 12.9-7.7 20.6-5.6 4.3 1.2 7.5 0.6 11.8-0.3 2-0.4 4.2-0.8 6.2-0.3 2 0.5 3.2 1.7 4.7 2.9 4.2 3.4 8.1 5.8 13.5 6.9 6.2 1.2 10.5 1.8 15.6 5.5 6.6 4.8 13.1 7.7 21.1 9.4 6.4 1.4 13.4 2 18.8 6.3 5.3 4.3 9.2 11.3 13.4 16.7 0.8 1-0.7 2.4-1.5 1.4-3.7-5-7.2-10.6-11.6-15.1-5.4-5.6-13.5-6.1-20.8-7.7-5-1.1-10-2.6-14.5-5.2-2.4-1.4-4.5-3.1-6.7-4.7-3.8-2.7-7.4-3.6-11.8-4.3-4.5-0.8-8.7-1.9-12.6-4.4-2.9-1.9-5.8-5.2-9.4-6-2.5-0.5-5.8 1.1-8.3 1.4-5.7 0.9-10.5-2.7-16.1-2.4-3 0.2-5.4 1.4-7.9 3-0.4 0.3-3.9 2.5-3.9 2.8 0.1 0.3-0.4 0.5-0.6 0.2zm18.5-6.1c4.8-1.3 9.1-4.9 14.2-5.3 5.8-0.4 11.1 3.6 16.8 4.7 8.1 1.7 14.4 5.8 22 8.8 7.6 3 15.8 4.3 23.6 6.8 6.7 2.2 12 6 18.1 9.3 7.7 4.2 16.2 2.1 23.8 5.4 2.4 1.1 4.8 3.1 4 6-0.5 1.6-2.3 2.8-3.4 3.8q-5 4.7-10.1 9.3c-0.9 0.8-2.1-0.5-1.2-1.3q3.2-3.2 6.6-6.3c1-1 2.5-2 3.3-3.1q0.8-0.8 1.7-1.6-1.1-2.5-2.2-5c-2.2-2-8.9-1.2-11.8-1.5-2.3-0.3-4.6-0.6-6.8-1.4-4.9-1.7-8.9-4.9-13.4-7.4-6.5-3.5-13.5-5.2-20.6-7-5.4-1.4-10.7-3-15.7-5.5-6.1-3-11.7-6.1-18.4-7.6-5.7-1.2-11.4-5.5-17.1-4.9-4.6 0.6-8.7 3.6-13.3 4.2-0.3 0.1-0.4-0.3-0.1-0.4zm110.6 55.1c4.1 2.4 9.8 6.4 7.6 12.1-2.2 5.4-12.2 8-17 10.4q-6.3 3.1-12.7 6.2c-4.2 2-9.3 3.8-12.3 7.4-1.9 2.3-2 4.7-4.9 5.8-4.3 1.7-8.7 1.8-13.1 3.8-8.1 3.9-15.8 8.9-23.6 13.5-8.8 5.2-19.2 10-26.7 17-2.6 2.3-4.4 4.5-7.6 5.8-3.1 1.3-6.5 1.7-9.8 2.5-9.8 2.2-19.1 5.8-28.1 10.3-1 0.5-1.8-1-0.8-1.5q9.6-5.2 20.1-8.4c7-2.2 16.6-2.4 22.1-7.5 2.3-2.2 4.1-4.5 6.7-6.3 3.5-2.4 7.2-4.5 10.8-6.7 7.1-4.2 14.2-8.5 21.4-12.6 6-3.5 11.9-7.4 18.4-9.8 3.6-1.4 8.6-1.5 11.2-4.5 1.7-2 2.4-3.8 4.6-5.6 5.4-4.2 12.6-6.7 18.8-9.7q5.3-2.6 10.6-5.1c1.3-0.6 5.4-1.9 6.4-3q0.9-4.7 1.8-9.4-2.1-2.1-4.4-3.8c-0.5-0.4 0-1.2 0.5-0.9zm-16.7-6.6c-19.1-13.7-43.5-18.8-64.8-27.8-10.2-4.3-20.6-9-31.2-12.2-3.3-1.1-6.8-2-10.2-2.1-5.5-0.2-7.7 2.5-10.6 6.5-3.4 4.8-6.8 9.7-9.5 14.9-5.9 11.2-5.7 22.4-8 34.5-2.1 11.2-7.2 21.5-12.1 31.6-10.5 21.5-21.1 43-35.1 62.5q-0.5-1-1-1.9c21.9-0.9 37.7-18.8 56.3-28.2 18.5-9.4 38.4-15.7 56.6-25.9 18.7-10.5 36.6-22.6 54.9-33.7 4.5-2.8 9.3-5.9 12.4-10.3 2.3-3.3 3-4.9 0.4-7.9-1.4-1.8-4-3.5-6-4.8-8.9-6-19.5-9.3-29.8-12.3-0.9-0.3-0.5-1.7 0.5-1.5 8 2.2 16.1 4.3 23.6 7.8 4 1.9 7.7 4 11.1 6.8 1.7 1.3 5.2 3.6 5.7 5.7 1.1 4.9-6.7 11.9-9.9 14.4-6.6 5.1-14.4 8.6-21.5 12.9-17 10.3-33.2 22-51.1 30.9-17.1 8.5-35.8 13.9-52.4 23.6-16.4 9.7-30.8 24.2-50.9 25-0.9 0-1.6-1.2-1-1.9 11.9-16.6 21.4-34.7 30.4-53 4.9-9.8 10.2-19.7 13.8-30.1 3.2-9.5 3.3-19.2 5.1-29 1.6-8.9 5.8-17 10.8-24.5 3.4-5.2 7.2-13.5 14-14.5 7.7-1.2 16.4 2.6 23.4 5.3 9.2 3.6 18.5 7 27.7 10.7 10.8 4.2 21.3 9.1 32 13.5 9.4 3.9 18.7 8 26.7 14.5 0.4 0.2 0 0.7-0.3 0.5zm17.5 9q-0.7-0.1-1.4-0.1c-0.4-0.1-0.4-0.8 0-0.7 2.7 0.4 1.7 0.1 4.3 1 0.8 0.2 0.6 1.2-0.2 1.3q-2.6 0.1-5.3 0.2 0.1-0.7 0.2-1.3c1.7 0.2 3.3 0.6 5 1.2 0.8 0.2 0.6 1.4-0.2 1.4q-3.2-0.1-6.4-0.1 0.1-0.7 0.2-1.4 3.3 0.8 6.6 1.6c0.9 0.2 0.7 1.6-0.2 1.6-2.8-0.1-5.6-0.2-8.4-0.2q0.2-0.8 0.3-1.5 4.6 0.8 9.2 1.6c1 0.2 0.7 1.7-0.3 1.7q-5.4 0-10.8 0 0.1-0.8 0.1-1.7c3.5 0.5 6.8 1.1 10.2 2.4 1.1 0.4 0.6 2-0.6 1.8-3.6-0.8-7.2-1.2-10.9-1.2q0.2-0.9 0.3-1.7c2.8 0.8 5.5 1.5 8.3 2.2 1 0.3 0.8 2-0.3 1.9-4.1-0.5-8.3-1-12.4-1.5q0.1-0.8 0.2-1.6c3.5 1.2 7 2.3 10.4 3.4 1.2 0.4 0.6 2.1-0.5 1.9-2.2-0.4-8.2-2.8-10-1.3q-0.1-0.7-0.3-1.3 3.6 1 7.2 1.9c0.9 0.2 0.7 1.8-0.3 1.7-3.2-0.2-6.4-0.5-9.6-0.7q0.2-0.8 0.5-1.6c2.1 1.1 4.3 1.8 6.5 2.6 0.9 0.2 0.8 1.8-0.3 1.7q-5.1-0.6-10.3-1 0.2-0.8 0.4-1.5c2.8 1.4 5.1 2.2 8 2.9 1 0.3 0.7 1.7-0.3 1.7-3.9 0.2-7.5-2.1-11.5-1.4q0-0.7 0-1.4 4.3 1.3 8.7 2.5c1.1 0.3 0.6 1.8-0.5 1.6-3.8-0.6-7.6-1-11.5-1q0.1-0.7 0.3-1.4 4.8 1.7 9.6 3.4c1 0.3 0.7 1.6-0.2 1.7-4.1 0.3-7.5-2-11.6-1.9q0.1-0.8 0.2-1.5 3.5 1.2 7 2.4c0.8 0.3 0.7 1.8-0.3 1.6q-4.7-0.6-9.3-1.2 0.1-0.8 0.2-1.6 3 1.2 6 2.3c0.8 0.4 0.8 2-0.3 1.8-2.9-0.3-5.8-0.7-8.7-1.1-1.1-0.1-1.1-1.8 0-1.6 2.9 0.3 5.8 0.5 8.7 0.9q-0.1 0.9-0.3 1.8-2.9-1.3-5.8-2.5c-0.8-0.4-0.7-1.7 0.2-1.6q4.7 0.6 9.4 1.1-0.2 0.9-0.3 1.7-3.5-1.3-6.9-2.6c-0.8-0.2-0.7-1.4 0.2-1.4 4-0.1 7.6 2 11.6 1.6q-0.1 0.9-0.2 1.7-4.9-1.8-9.7-3.7c-0.7-0.3-0.6-1.4 0.3-1.4 3.9 0.1 7.8 0.3 11.7 0.9q-0.1 0.8-0.3 1.6-4.3-1.4-8.6-2.7c-0.7-0.2-0.7-1.3 0-1.4 4.2-0.7 7.8 1.3 12 1.1q-0.2 0.8-0.3 1.7c-2.9-0.9-5.6-1.9-8.3-3.3-0.7-0.3-0.3-1.5 0.4-1.4q5.2 0.4 10.4 0.8-0.1 0.9-0.3 1.7c-2.4-0.8-4.7-1.7-6.9-2.8-0.8-0.3-0.3-1.6 0.4-1.5 3.2 0.2 6.4 0.4 9.6 0.7q-0.1 0.8-0.2 1.7-3.6-1.1-7.2-2.1c-0.5-0.1-0.8-1-0.3-1.4 2.5-2 8.5 0.3 11.4 0.6q-0.2 0.9-0.3 1.9c-3.5-1.3-6.9-2.5-10.4-3.7-0.8-0.3-0.7-1.7 0.3-1.6 4.1 0.4 8.3 0.8 12.4 1.2q-0.1 0.9-0.2 1.8c-2.8-0.8-5.5-1.6-8.3-2.4-0.9-0.2-0.7-1.6 0.3-1.6 3.8 0 7.6 0.4 11.4 1.1q-0.3 0.9-0.6 1.8c-3.2-1.3-6.2-2-9.7-2.5-1-0.1-1.1-1.7 0.1-1.7q5.4 0 10.7 0-0.1 0.8-0.2 1.7-4.6-0.9-9.2-1.8c-0.8-0.2-0.6-1.6 0.3-1.6 2.8 0.1 5.5 0.1 8.3 0.2q-0.1 0.8-0.2 1.6-3.3-1-6.6-1.8c-0.8-0.2-0.6-1.5 0.2-1.5q3.2 0.1 6.4 0.1-0.1 0.7-0.2 1.4c-1.7-0.6-3.2-1-5-1.3-0.8-0.1-0.5-1.3 0.2-1.3q2.7-0.1 5.4-0.2-0.1 0.7-0.2 1.3-1.9-0.1-2.5-1.6c0.1 0.1 0.1 0.3-0.1 0.2zm-36.5 22.3q5.3 0.3 10.7 0.5c1.2 0.1 1.1 1.9 0 1.8-4.4-0.1-8.6-0.3-12.9-0.1q0.1-0.9 0.2-1.8c3.2 0.7 6.1 1.8 9 3.2 0.9 0.4 0.3 1.7-0.5 1.7-3.9 0.3-7.6-1.5-11.4-0.7q0-0.9 0-1.7 4.3 1.4 8.5 3.3c1.1 0.5 0.9 2-0.3 2-3.8 0.2-7.3-1.5-11.2-1.4q0.2-0.9 0.3-1.8c2.8 0.9 5.3 1.7 7.7 3.3 0.7 0.5 0.4 2-0.6 1.9q-4.9-0.5-9.8-1 0.2-0.9 0.3-1.8c3.1 1.3 7.2 1.9 9 4.9 0.4 0.8-0.4 1.6-1.2 1.4q-5.2-1.5-10.5-3 0.3-0.8 0.5-1.6c2.8 0.8 5.4 1.9 7.9 3.3 0.7 0.4 0.4 1.3-0.3 1.6-3.1 1-7-0.8-10-1.5q0.2-0.8 0.4-1.6c2.1 0.6 3.5 1.3 5.3 2.7 0.6 0.5 0.5 1.7-0.5 1.6-2.8-0.4-5.5-1.1-8.3-1.9q0.4-0.8 0.8-1.6c1.8 0.8 3.3 1.7 4.9 3 0.8 0.6 0.3 1.9-0.7 1.6-2.3-0.7-4.6-1.1-7-1.3q0.2-0.8 0.5-1.5 2 1 3.9 2.1c0.8 0.4 0.4 1.7-0.4 1.6q-3.1-0.3-6.2-0.6 0.2-0.8 0.4-1.6 2.3 1 4.6 2.1c0.8 0.4 0.4 1.8-0.5 1.7-1.7-0.2-1.6-0.2-3.1-0.9-0.7-0.3-0.1-1.2 0.5-1.1q1.3 0.1 2.7 0.2-0.3 0.8-0.5 1.7-2.3-1.1-4.6-2.2c-0.8-0.4-0.3-1.7 0.5-1.6q3.1 0.3 6.2 0.6-0.3 0.8-0.5 1.6-2-1.1-3.9-2.2c-0.7-0.4-0.4-1.6 0.4-1.6 2.6 0.3 5 0.7 7.5 1.3q-0.4 0.8-0.7 1.6c-1.7-1.2-3.2-2.2-5-3-0.9-0.5-0.2-1.9 0.7-1.6 2.7 0.9 5 1.5 7.9 1.9q-0.3 0.8-0.5 1.6-2-2-4.8-2.6c-1.1-0.4-0.6-1.9 0.4-1.6 2.4 0.5 6.9 2.3 9.2 1.4q-0.1 0.8-0.2 1.5c-2.4-1.2-4.9-2.3-7.5-3.1-1-0.3-0.5-1.9 0.5-1.6q5.3 1.3 10.6 2.7-0.6 0.7-1.2 1.4c-1.1-2-5.6-3.1-7.7-4-0.9-0.4-0.8-1.9 0.3-1.8q4.9 0.4 9.8 0.8-0.3 0.9-0.6 1.8c-2.2-1.4-4.6-2.4-7.1-3.3-1-0.3-0.7-1.7 0.3-1.7 3.8-0.1 7.3 1.5 11.2 1.2q-0.3 0.9-0.6 1.9-4-2-8.2-3.5c-0.8-0.3-0.8-1.5 0.1-1.7 4-0.9 7.8 0.8 11.8 0.5q-0.3 0.9-0.5 1.8c-2.8-1.4-5.4-2.4-8.5-3.1-1-0.2-0.6-1.6 0.3-1.7 4.3-0.2 8.6-0.3 12.9 0.1q0 0.9 0 1.8-5.4-0.7-10.7-1.4c-0.6-0.1-0.6-0.9 0-0.9zm-18.6 18.5c-2.8-0.3-5.5-0.6-8.3-0.5q0.1-0.7 0.2-1.5c2.4 0.7 4.7 1.6 6.9 2.7 0.8 0.4 0.2 1.5-0.5 1.5-3 0.3-5.8-1.1-8.8-0.7q0.1-0.8 0.1-1.6c2.1 0.6 4 1.4 6 2.5 0.8 0.5 0.3 1.7-0.5 1.7-3 0-5.8-0.4-8.7-0.9q0.2-0.8 0.5-1.6 2.6 1.1 5.2 2.2c0.5 0.3 0.9 1.1 0.3 1.6-2.3 1.8-6.6-0.5-9.1-1.1q0.3-0.8 0.6-1.7c1.9 0.6 3.8 1.3 5.7 2.2 0.7 0.3 0.5 1.6-0.3 1.7-2.9 0.3-5.5-0.9-8.3-0.7q0.1-0.9 0.2-1.8c1.8 0.7 3.6 1.2 5.4 1.9 0.8 0.3 0.9 1.3 0.2 1.8-1.8 1.3-5.1 0-7.1-0.2q0.1-0.9 0.3-1.8c1.4 0.6 2.9 1.3 4.3 2 0.9 0.5 0.2 2-0.7 1.6-1.5-0.6-2.9-1.3-4.4-2-0.8-0.3-0.3-1.7 0.5-1.6 1.2 0.1 4.9 1.2 6 0.4q0.1 0.8 0.3 1.7c-1.7-0.7-3.5-1.4-5.3-2-0.9-0.4-0.7-1.7 0.3-1.8 2.7-0.2 5.2 1.1 7.8 0.7q0 0.9 0 1.8c-1.8-0.8-3.6-1.6-5.5-2.2-1.1-0.3-0.6-2 0.6-1.7 1 0.3 6.4 2.2 7.2 1.4q0.2 0.8 0.4 1.6-2.7-1.2-5.3-2.5c-1-0.4-0.2-1.7 0.7-1.5 2.7 0.5 5.4 0.7 8.2 0.7q-0.2 0.8-0.5 1.6c-1.7-1-3.5-1.8-5.5-2.4-0.7-0.3-0.8-1.5 0.1-1.6 3.1-0.4 6 1 9.2 0.7q-0.3 0.7-0.5 1.5c-2.1-1.1-4.2-1.9-6.5-2.6-0.8-0.2-0.6-1.6 0.3-1.5 2.8 0.2 5.7 0.5 8.4 1.4 0.3 0.1 0.2 0.6-0.1 0.6zm-16.3 9.6c-2.9-0.5-5.8-0.8-8.7-1.1q0.1-0.7 0.2-1.4c2.5 1 4.9 2.1 7 3.8 0.6 0.4 0.5 1.6-0.4 1.5q-4.2-0.5-8.4-1 0.2-0.7 0.4-1.4 2.3 1.2 4.6 2.5c0.7 0.3 0.3 1.5-0.4 1.5-2.3-0.1-4.6-0.3-6.9-0.5q0.2-0.7 0.4-1.4 1.7 1.2 3.4 2.3c0.8 0.5 0.2 1.7-0.7 1.5-2.3-0.5-3.9-0.6-6.2-0.2q0.1-0.7 0.2-1.4c1.5 0.8 2.7 1.6 3.9 2.8 0.5 0.4 0.1 1.5-0.6 1.4-2.6-0.5-5.2-0.5-7.8-0.3q0.2-0.7 0.4-1.5 1.8 1.1 3.8 1.9c0.8 0.3 0.7 1.7-0.3 1.6-0.4-0.1-6.5-1-6.6-0.8-0.3 1-1.8 0.5-1.5-0.5q0-0.2 0.1-0.4c0.1-0.3 0.3-0.5 0.6-0.6 2.2-0.5 5.2 0.3 7.4 0.6q-0.1 0.8-0.2 1.7c-1.5-0.6-2.8-1.3-4.1-2.1-0.8-0.5-0.3-1.4 0.4-1.5 2.8-0.3 5.4-0.2 8.1 0.2q-0.4 0.7-0.9 1.4c-1.1-1.2-2.2-1.8-3.5-2.6-0.6-0.3-0.5-1.3 0.2-1.4 2.5-0.4 4.7-0.4 7.1 0.1q-0.3 0.8-0.7 1.5-1.6-1.2-3.3-2.4c-0.6-0.4-0.4-1.5 0.4-1.4 2.3 0.2 4.6 0.3 6.9 0.3q-0.2 0.8-0.4 1.5-2.3-1.2-4.6-2.5c-0.7-0.4-0.4-1.5 0.4-1.5q4.2 0.5 8.4 1-0.3 0.7-0.6 1.4c-2-1.7-4.1-2.7-6.4-3.7-0.9-0.4-0.5-1.6 0.4-1.4q4.3 0.9 8.6 1.9c0.4 0.1 0.2 0.7-0.1 0.6zm-24.9 9.8q2.9 0.6 5.8 1.4c0.4 0.1 0.6 0.8 0.1 1-2.7 1.3-7.3-0.5-10.1-1q0.2-0.6 0.4-1.3 2.8 1.1 5.6 2.3c0.6 0.2 0.8 0.9 0.3 1.3-1.5 1.7-6.5 0.1-8.5-0.1q0.3-0.8 0.5-1.6c1.9 1.5 4.3 1.4 5.9 3.3 0.4 0.5 0.1 1.6-0.7 1.5-2.8-0.4-5.7-0.8-8.5-1.3q0.4-0.7 0.7-1.4c1.9 1.3 4.2 1.2 5.7 3 0.5 0.6 0.1 1.5-0.7 1.5-3.1 0.1-5.9-1.5-9.1-1.5q0.2-0.8 0.5-1.5 3.1 1.4 6.2 2.8c0.7 0.3 0.4 1.5-0.3 1.6-2.8 0.6-5.9-0.5-8.7-1.1q0.4-0.8 0.7-1.6 2.5 1.3 4.9 2.7c0.9 0.6 0.1 1.9-0.9 1.5q-2.5-1.3-4.9-2.7c-0.9-0.5-0.2-1.7 0.7-1.6 2.3 0.5 5.4 1.6 7.8 1.1q-0.2 0.8-0.3 1.6-3.1-1.5-6.1-2.9c-0.8-0.4-0.3-1.6 0.5-1.6 3.1 0.1 5.9 1.6 9.1 1.4q-0.4 0.8-0.7 1.6c-1.4-1.5-3.6-1.8-5.3-3-0.5-0.4-0.4-1.6 0.5-1.5 2.7 0.5 5.5 0.9 8.2 1.1q-0.3 0.7-0.6 1.5c-1.4-1.7-3.9-1.8-5.5-3.1-0.6-0.4-0.4-1.6 0.5-1.5 0.9 0.1 6.6 1.3 7.3 0.6q0.2 0.7 0.3 1.4-2.8-1.3-5.6-2.6c-0.8-0.3-0.2-1.3 0.5-1.2 2.5 0.5 7 2.1 9.3 1.3q0 0.5 0 1.1-2.8-1.2-5.6-2.1c-0.3-0.1-0.2-0.5 0.1-0.4zm-10.2 12.9c-3.3-0.7-6.6-1.3-9.8-1.8q0.2-0.7 0.4-1.5 4.5 2.1 8.9 4.3c0.8 0.4 0.4 1.8-0.5 1.7-4.3-0.2-8.3-1.9-12.4-3.1q0.4-0.8 0.8-1.6 4.1 2.4 8.3 4.8c0.9 0.6 0.2 1.8-0.7 1.6q-6.2-1.3-12.3-2.7 0.4-0.8 0.7-1.5 3 1.7 6 3.4c0.9 0.5 0.1 1.7-0.8 1.6q-4.2-0.8-8.5-1.6 0.3-0.7 0.5-1.5c1.9 0.8 5.6 1.4 6.2 3.7 0.2 0.7-0.5 1.2-1.2 1.1-2.7-0.6-5.5-1-8.3-1.1q0.1-0.9 0.3-1.7 2.1 1 4.3 1.8c1.1 0.5 0.6 2-0.6 1.8-5.2-0.9-9 1.3-13.5 3.5q-0.4-0.8-0.7-1.7c2.2-0.6 4.4-1.1 6.7-1.4 1.1-0.2 1.6 1.6 0.4 1.8-2.9 0.4-5.3 1.3-7.8 2.8q-0.3-0.7-0.5-1.4 7.8-3 15.9-5.3 0.2 0.8 0.4 1.5-6 1.2-11.7 3.2-0.2-0.7-0.3-1.3c6.8-1.6 13.4-3.7 20.1-5.9q0.2 0.7 0.3 1.4c-3.8 1.1 3.2-1 3.7-1.1 0.9-0.1 1.2 1.2 0.3 1.3-10.5 1.5-20.6 4.8-30.2 9.2-1 0.4-1.8-1.1-0.8-1.5 9.9-4.4 20.1-7.2 30.7-9q0.2 0.7 0.3 1.3c-2.3 0.3-4.6 0.5-6.9 0.6-0.8 0.1-0.7-0.9-0.1-1.1q1.3-0.5 2.7-1.1c0.8-0.3 1.2 1.1 0.3 1.4-6.6 2.3-13.3 4.1-20.1 5.8-0.8 0.1-1-1-0.3-1.3 3.8-1.3 7.7-2.3 11.6-3.4 1-0.3 1.3 1.3 0.4 1.5q-8.1 2.3-16 5.2c-0.8 0.3-1.2-0.9-0.5-1.3 2.6-1.5 5.2-2.5 8.1-3.3q0.2 0.9 0.4 1.8c-2.3 0.3-4.4 0.8-6.7 1.4-1 0.3-1.6-1.2-0.6-1.7 5.5-2.8 8.8-4.8 15-3.7q-0.3 0.9-0.6 1.8c-1.9-0.8-2.5-1.1-4.4-2-0.8-0.4-0.4-1.7 0.4-1.6 3 0.1 5.9 0.4 8.9 1q-0.6 0.6-1.2 1.1c-0.2-1-4.1-2.2-5.1-2.6-0.9-0.5-0.1-1.7 0.7-1.5q4.3 0.7 8.5 1.4-0.3 0.8-0.7 1.6-2.9-1.8-5.9-3.5c-0.8-0.5-0.2-1.7 0.7-1.5q6.1 1.3 12.3 2.6-0.4 0.8-0.8 1.6-4.1-2.4-8.3-4.8c-0.8-0.5-0.2-1.9 0.8-1.6 3.8 1.2 7.8 2.8 11.9 3q-0.3 0.8-0.6 1.7-4.4-2.2-8.7-4.5c-0.8-0.5-0.2-1.7 0.6-1.4 3.2 1 6.5 1.8 9.7 2.7 0.4 0.1 0.3 0.7-0.1 0.6zm-63.2 31.1q-0.1 0-0.2 0c-0.5 0-0.4-1 0.2-0.8 1.6 0.6 2.4 3.2 2.9 4.7 0.2 0.7-0.9 1.1-1.2 0.4-0.4-0.9-0.9-1.7-1.3-2.6-0.4-0.7-0.9-1.3-0.9-2.1q0.3 0 0.7 0.1 0 0.1 0 0.1-0.1 0.2-0.2 0.2zm-2 1.7q0 0 0 0c-0.1 0-0.2-0.1-0.2-0.2q0 0 0 0c0-0.1 0.1-0.2 0.2-0.2 0.8-0.3 1.7 1.4 2.1 1.9 1 1.5 1.7 3 2.4 4.5 0.3 0.7-0.6 1.2-0.9 0.6-0.9-1.3-1.8-2.6-2.5-4-0.3-0.6-0.7-1.2-1-1.9-0.1-0.1-0.3-0.6-0.2-0.8-0.1 0.1 0.2 0 0.1 0.1zm-2 1.8c2.8 2.1 4.8 5.3 6.4 8.3 0.4 0.8-0.7 1.3-1.2 0.6-1.8-2.8-3.9-5.6-5.5-8.6-0.1-0.2 0.1-0.4 0.3-0.3zm1 4.3c0.7 0.9 1.4 1.6 2 2.5 0.7 1 1.2 2 1.8 3.1 0.5 0.9-0.9 1.6-1.3 0.7-0.6-0.9-1.1-1.9-1.6-2.9-0.5-1-0.8-2.1-1.2-3.2-0.1-0.2 0.2-0.5 0.3-0.2zm19.7-13.5c0.7 0.8 1.4 1.6 1.8 2.6 0.2 0.5-0.5 0.9-0.8 0.4-0.5-0.8-1-1.7-1.6-2.5-0.3-0.4 0.3-1 0.6-0.5zm-0.2 2.9c1 0.9 1.7 1.6 2.1 2.8 0.1 0.3-0.3 0.5-0.5 0.3-1-0.9-1.3-1.8-1.7-3-0.1-0.1 0-0.1 0.1-0.1zm154.3-87.4c0.6 2.5-2 3.7-3.9 4.4-3.5 1.1-6.4 2.6-9.6 4.4-0.6 0.4-1.1-0.5-0.7-0.9 1.9-2 4.3-3.4 6.7-4.4 1.1-0.5 2.3-0.8 3.4-1.2 1.5-0.5 2.5-1.6 3.7-2.5 0.2-0.1 0.4 0 0.4 0.2zm-18.1 10.8c0.5 0.9 1 1.8 0.9 2.9 0 0.2-0.3 0.4-0.5 0.1-0.4-0.9-0.5-1.8-1-2.7-0.1-0.3 0.4-0.6 0.6-0.3zm-2.9-0.2c1.4 0.6 1.8 2.8 1.9 4.1 0 0.4-0.5 0.4-0.6 0.1-0.3-0.8-0.6-1.5-0.8-2.3-0.3-0.6-0.6-1.2-0.6-1.9 0 0 0.1-0.1 0.1 0zm-51.2 32.8q0.1 0.4 0.2 0.8c0 0.3-0.3 0.5-0.5 0.3-0.4-0.4-0.4-0.7-0.3-1.2 0.1-0.4 0.6-0.2 0.6 0.1zm0.7-2q0.1 0.2 0.1 0.5c0 0.2-0.4 0.2-0.4 0q0-0.3 0-0.5c0-0.2 0.3-0.2 0.3 0zm-12.5 7.4c0.2 0.4 0.4 0.8 0.5 1.2 0.2 0.5-0.6 0.8-0.8 0.3-0.2-0.4-0.3-0.8-0.5-1.2-0.2-0.4 0.6-0.7 0.8-0.3zm-44.8 25.1q0 0.1 0.1 0.2c0.3 0.4-0.4 0.7-0.6 0.3q0-0.1 0-0.2c-0.1-0.3 0.3-0.5 0.5-0.3zm-4.6 2.1q-0.1 0.2-0.1 0.3c-0.3 0.7-1.1-0.2-0.6-0.4q0.2-0.1 0.3-0.2c0.2-0.1 0.5 0.1 0.4 0.3zm8.6-145.4c1.8-0.5 3.6-0.9 5.4-1.3 0.3 0 0.6 0.4 0.3 0.6 0.5-0.4 5-0.2 5.3-0.2 0.6 0 0.9 0.8 0.5 1.2q0.3 0 0.6 0c0.9 0 0.8 1.3 0 1.3q-2.6 0.2-5.1 0.3 0.1-0.6 0.2-1.2c2.9 0.7 6.2 0.4 9.2 0.8 2.3 0.4 5.7 0.7 8-0.1 0.5-0.2 0.8-1.3 1.3-1.4 2.3-0.5 4.2 0.1 6.5 0.1 0.3 0 0.5 0.2 0.6 0.4 0.8 6.8 6.9 5.6 11.5 7.4 3 1.1 5.1 3.5 8.4 4.7 2.4 1 3.8 1.4 5.9 3.1 2.6 2 5.5 1.9 8.1 3.7 2.8 2 2.7 2.7 5.8 3.6q4.8 1.3 9.7 2c4.1 0.6 8.5 0.3 12.6 0.9 6.7 1.1 12 7.9 16.7 12.3 0.7 0.6-0.3 1.6-1 1-4.3-3.8-8.7-9.4-14.1-11.5-4.1-1.6-10.1-0.8-14.4-1.4-7.8-1.2-13.7-3.5-20.3-7-1.1-0.6-1.7-1-2.8-1.8q-2.2-2-4.9-3.4-1.7-0.2-3.3-0.5c-2.9-0.7-3.6-2.1-5.9-3.7-2.9-2-6.7-1.5-9.7-3.6-1.9-1.4-3.1-5.6-6.1-4.4-0.2 0.1-0.6 0.1-0.8-0.2 0.3 0.4-7.1 3.3-8.2 3.2-2.5-0.2-4.6-2.2-7.1-2.5-2.1-0.3-4 0-6.1-0.5-0.7-0.2-0.5-1.2 0.2-1.3q2.6-0.1 5.1-0.3 0 0.7 0 1.3-1.2 0-2.4 0c-0.6 0-0.8-0.8-0.4-1.1-0.4 0.3-4.7-0.1-5-0.1-0.5 0-0.6-0.6-0.2-0.9q-2.1 0.2-4.1 0.8c-0.1 0.1-0.2-0.2 0-0.3zm114.3 41.6c-5.4-1-9.5-3.5-14.2-6.2-5.9-3.5-11.9-5.2-18.7-6.2-10.1-1.6-18.2-4.7-26.9-10.2-9.8-6.2-18.8-11.1-30.1-13.4-4.4-1-8.6-2.6-13-3.5-2.6-0.6-6.7 0.3-9.1-0.4-2.7-0.9 0.4 1-1.9-0.4q-0.1-0.1-0.1-0.3c0.9-4.5 14.9-3.3 17.8-3.3 10 0 18.1 2.6 26.8 7.6 4.9 2.7 10.5 4.1 15.3 7.1 1.5 1 2.6 2.5 4.1 3.5 2.7 1.7 6.1 2.6 9 3.7 11.1 4.1 22.4 7.8 33.3 12.4 0.7 0.3 0.4 1.4-0.3 1.1-10.6-3.3-20.8-7.5-31.2-11.3-3.3-1.3-6.8-2.3-10-3.9-4.7-2.4-8.8-5.4-13.8-7.5-9.9-4.3-17.6-10.4-28.8-11.4-5.1-0.4-10.4-0.3-15.5 0q-3.2-1.1-4.2 1.3-1.5 1.8 1.3 0.3c1.5 0.2 3.1-0.2 4.7 0 3.5 0.3 6.9 1.5 10.3 2.5 4.5 1.2 9.1 1.4 13.6 2.7 8.5 2.6 16.1 7.9 23.6 12.5 5.2 3.2 10.4 6.1 16.4 7.7 4.4 1.2 8.9 1.6 13.4 2.4 10.6 2.1 18.1 10 28.3 12.6 0.4 0.1 0.3 0.6-0.1 0.6zm-2.1-4.4c-4.2-0.3-8.4-1-12.6-1.7q0.2-0.6 0.4-1.2c4.5 1.6 10.5 2.5 14 5.9 0.3 0.3 0.1 1.1-0.4 1.1-4.5 0.6-8.5-1.3-12.6-2.8-6.1-2.3-12-4.7-17.9-7.3-0.7-0.4-0.4-1.5 0.4-1.3 4.9 1.5 9 2.3 13.8 0.5 1.5-0.5 2.4-1 4.2-0.9 7 0 9.2 6.1 14.1 10.2 0.6 0.5 0 1.5-0.6 1.1-2.4-1.6-3.8-3.7-5.9-5.6-6.9-6.5-6.9-4.3-12.4-2.6-4.3 1.3-9.4-0.2-13.6-1.4q0.2-0.7 0.4-1.3 9.9 4.2 20 7.9c1.4 0.5 2.7 1.1 4.1 1.5 1.5 0.4 5.8 1.9 3 0.2-3.2-1.9-7.5-2.7-11-4-0.6-0.2-0.5-1.4 0.2-1.2q6.3 0.9 12.5 2.2c0.5 0.1 0.3 0.7-0.1 0.7zm-7.8-0.2c-9.4-3.1-19.2-4.8-28.4-8.1-4.7-1.7-7.9-5.5-12.6-7.2-3.7-1.3-7.7-1.6-11.3-3.5-4.4-2.3-7.9-4-12.8-5-3.5-0.8-5.1-2.6-8.3-4.4-4.1-2.3-9.1-1.7-13.7-3-5.6-1.7-11.6-7.5-17.3-4-0.4 0.2-0.8-0.4-0.5-0.7 5.5-5.8 14.4 2.5 20.2 3.7 4.8 1.1 8.8 0.5 13.1 3 2.7 1.6 0.7 2.1 5.3 3.6 2.3 0.7 4.8 0.7 7.1 1.5 4.4 1.5 8 4.3 12.5 5.7 4.6 1.4 8.1 2 12.1 4.9 5.4 3.9 10.7 5 16.9 6.9 6.1 1.8 11.9 4 17.7 6.4 0.1 0.1 0.1 0.3 0 0.2zm-105.9-35.7c3.3-4 8.7-3.1 13.1-1.3 9 3.7 17.7 7.8 27 11.1 17.7 6.2 35.9 11.8 53.1 19.3 0.6 0.3 0.3 1.2-0.3 1-15.6-4.4-30.8-10.6-46-16-7.2-2.6-14.5-5.1-21.5-8.2-7.8-3.3-17.1-10.9-25.3-5.7-0.1 0.1-0.2-0.1-0.1-0.2zm1 6.5c0.5-0.6 1.4-0.4 2.1-0.2 1.1 0.2 2.2 0.7 3.2 1.2 0.7 0.4 0.2 1.7-0.6 1.4q-1.5-0.7-3-1.3c-0.7-0.2-1.5-0.3-1.8-1q0-0.1 0.1-0.1zm-3.9 1.3c3.7-0.3 8.3 2.2 11.6 3.7 0.8 0.3 0.4 1.7-0.4 1.3q-3-1.3-6.1-2.4c-1.7-0.7-3.7-1.2-5.1-2.4-0.1 0-0.1-0.2 0-0.2zm4.5 4.5c0.8-0.2 1.5 0.1 2.3 0.3 1 0.3 1.8 0.7 2.6 1.2 0.5 0.3 0.1 0.9-0.4 0.8-1.4-0.2-3.8-0.7-4.6-2-0.1-0.1 0-0.3 0.1-0.3zm-61.3 128q1.3-0.5 2.7-1c0.5-0.2 0.8 0.8 0.2 0.9q-1.4 0.3-2.7 0.5c-0.3 0.1-0.4-0.3-0.2-0.4zm1.1 2.1c0.9-0.3 1.6-0.7 2.6-0.9 0.4-0.1 0.6 0.6 0.1 0.7-0.9 0.3-1.7 0.2-2.6 0.4-0.1 0-0.2-0.2-0.1-0.2zm154.7-100c2.5 0.5 4.2 2 5.1 4.4 0.3 0.6-0.9 1.1-1.2 0.4-0.7-1.8-2.3-3.4-4.1-4.2-0.4-0.1-0.2-0.7 0.2-0.6zm0.6 4.4c-0.2-0.1-0.2-0.1-0.3-0.2-0.2-0.2-0.1-0.6 0.2-0.7 1.6-0.4 3.6 1.9 3.3 3.5-0.1 0.3-0.5 0.4-0.7 0.2-0.5-0.3-0.8-0.8-1.2-1.3-0.3-0.4-0.8-1.3-1.2-1.7 0.1 0.1 0 0.2-0.1 0.2zm-1.6 2.4c1.4-0.6 2.8 1.7 3.1 2.8 0.1 0.7-0.9 1.1-1.3 0.4q-0.4-1-1.1-1.9c-0.3-0.5-0.7-0.7-0.8-1.2q0-0.1 0.1-0.1zm-1.6 1.2c1.6 1 2.8 2.4 2.6 4.4 0 0.4-0.7 0.7-0.9 0.2-0.5-1.4-1-3-2-4.2-0.3-0.2 0-0.6 0.3-0.4zm-2.8 2.7q0 0 0-0.1c-0.1-0.1 0-0.3 0.2-0.4q0.1 0 0.1 0c0.3-0.2 0.6-0.2 0.8 0 1.5 1.5 2.1 3.3 1.5 5.3-0.3 0.8-1.4 0.5-1.4-0.2-0.1-1-0.2-1.9-0.4-2.8-0.2-0.6-0.7-1.4-0.6-2q0.2 0.2 0.4 0.4-0.1 0-0.2 0 0.1-0.2 0.2-0.4 0.1 0 0.1 0.1c0 0.4-0.6 0.6-0.7 0.1zm-9-3.7c4 2.4 9.9 8.5 7.3 13.6-0.3 0.6-1.3 0.1-1.1-0.5 0.6-2.4-0.8-5.3-1.9-7.3-1.2-2-2.8-3.8-4.6-5.2-0.4-0.3 0-0.8 0.3-0.6zm4.3 11c1.2 0.8 1.6 2 0.8 3.3-0.5 0.7-1.8 0.2-1.5-0.7 0.3-0.5 0.4-1.5 0.1-2.1-0.2-0.3 0.2-0.7 0.6-0.5zm-41.5-38.9q0.1-0.3 0.2-0.6c0.1-0.2 0.2-0.3 0.4-0.3 6.3 0.1 13.9 4.8 19.7 7.1 6.9 2.7 14.2 5 20.7 8.4 0.6 0.3 0.1 1.2-0.5 1.1-7.1-1.4-14.2-4.5-20.9-7.2q-3.9-1.6-7.8-3.3c-2.3-1-9.4-5.9-11.7-5.1-0.1 0-0.2 0-0.1-0.1zm32.1 14.8c2.7 0.6 5.2 1.2 7.4 2.7 0.4 0.3 0.2 1-0.3 0.8-2.4-0.9-4.7-2.1-7.2-2.8-0.5-0.1-0.3-0.8 0.1-0.7zm-75.1 0.1c12.6 3.7 25.1 7.7 37.5 11.9 11.2 3.7 24 7.1 33.9 13.6 0.5 0.3 0.2 1.1-0.4 0.9-11.9-3.4-23.5-8.7-35.3-12.8-12-4.1-24-8.4-35.8-13.1-0.3-0.1-0.2-0.5 0.1-0.5zm66.8 30.3c-4.2-1.3-8.4-2.9-12.6-4.5-3.7-1.3-7.6-2.3-10.9-4.4-0.4-0.2-0.2-0.8 0.2-0.8 7.8 0.8 16.7 5.7 23.4 9.6 0.1 0 0 0.2-0.1 0.1zm-36.2-12.2c2.5 0.1 5 1.4 7.3 2.3 2.4 0.9 5 1.6 7.2 2.9 0.6 0.3 0.2 1-0.4 0.9-2.9-0.4-5.6-1.8-8.3-2.9-2-0.8-4.3-1.5-5.8-3.1-0.1 0 0-0.1 0-0.1zm-28.1-1.3q-0.9-0.5-1.8-1c-0.5-0.3-0.1-0.9 0.3-0.8 10.4 2.1 21.1 5.9 30.8 10.2 0.9 0.4 0.5 1.9-0.5 1.6-5.1-1.7-10.2-3.7-15.2-5.5q-3.3-1.2-6.6-2.4c-1.3-0.4-6-1.2-6.9-2.2 0 0 0 0.1-0.1 0.1zm31.1 11.4c0 0.1-0.1 0-0.1 0 0 0 0.1 0 0.1 0zm-3.7 0.6c3.7 0.6 7.9 1.8 11 4.1 0.4 0.3 0.1 1.1-0.4 0.9-3.7-1.2-7.2-3.1-10.7-4.6-0.3-0.1-0.2-0.4 0.1-0.4zm-50.1 9.6c6.8-0.2 14.3 5.1 20.6 7.4 7.8 3 16.2 4.7 23.9 7.9 0.7 0.3 0.7 1.6-0.3 1.5-15.7-1.3-30.3-10.1-44.3-16.7 0 0 0-0.1 0.1-0.1zm27.5 17c3.6 0.4 7.1 1.9 10.1 4 0.7 0.5 0 1.6-0.7 1.2-3.2-1.7-6.4-3.1-9.6-4.6-0.3-0.2-0.1-0.6 0.2-0.6zm-41.9 5c10.1 0.1 17.2 8.2 26.1 11.8 0.9 0.4 0.5 1.6-0.4 1.4-4.6-1-8.3-3.1-12.1-5.9-4.3-3.3-8.7-4.9-13.7-6.7-0.3-0.1-0.3-0.6 0.1-0.6zm14.8 12.1c1.8 0.4 3.7 0.8 5.5 1.3 1 0.3 2.1 0.5 2.2 1.7 0 0.2-0.1 0.4-0.3 0.5q-0.1 0.1-0.2 0.1c-0.1 0.1-0.3 0.1-0.4-0.1-0.7-0.8-2.3-1.2-3.2-1.6-1.3-0.5-2.5-1-3.8-1.3-0.4-0.1-0.2-0.7 0.2-0.6zm-26.9 9.5c3.4 1.4 6.8 2.5 10.1 4.1 0.7 0.4 0.1 1.8-0.7 1.5-3.3-1.5-6.4-3.4-9.6-5.1-0.2-0.2 0-0.6 0.2-0.5zm0.3 4.6c3.6 1.4 7.3 2.5 10.6 4.4 0.4 0.3 0.1 0.9-0.3 0.7-3.8-1-7-3-10.5-4.6-0.3-0.1-0.1-0.6 0.2-0.5zm0.4-12.4c5 1.8 9.7 4.3 14.6 6.2 0.9 0.3 0.5 1.6-0.4 1.3-4.9-1.6-10.4-3.8-14.3-7.3-0.1-0.1 0-0.2 0.1-0.2zm8.7-23.5c2 0.4 3.9 1.3 5.7 2.2 0.3 0.2 0.1 0.8-0.3 0.7-1.9-0.6-3.9-1.4-5.5-2.6-0.2-0.1-0.1-0.4 0.1-0.3zm-2.4 0.7q3 1.1 5.8 2.3c0.8 0.3 0.3 1.4-0.4 1q-2.8-1.3-5.6-2.7c-0.3-0.2-0.1-0.7 0.2-0.6zm1.6-5c4.1 0.8 8.2 2.5 11.9 4.5 0.5 0.2 0.1 0.9-0.3 0.8-4.1-1.1-8.3-2.5-11.9-4.7-0.3-0.2-0.1-0.6 0.3-0.6zm2.4-1.8q-0.4-0.3-0.7-0.6c-0.2-0.2 0-0.6 0.3-0.5 4.2 1.5 8.3 3.4 12.5 4.9 3.7 1.4 7.4 2.4 10.9 4.2 0.3 0.1 0.2 0.7-0.2 0.6-4.1-0.6-8.1-2.3-12-3.9-1.2-0.5-10.5-3.4-10.8-4.7q0 0 0 0zm12.5-12.6c2.7-1.2 7.3 2 9.7 3 5.1 2.2 10.7 4 15.3 7.1 0.4 0.3 0.1 1-0.4 0.8-8.2-1.8-17.1-6.7-24.6-10.7 0 0 0-0.1 0-0.2zm47.1 17.6c5.7 2.4 12.1 3.5 17.6 6.3 0.3 0.2 0.1 0.7-0.2 0.6-6.1-0.6-12-4-17.5-6.5-0.3-0.1-0.1-0.5 0.1-0.4zm10.9 1.4c3.3 1 7.3 1.4 10.1 3.5 0.3 0.2 0.2 0.8-0.2 0.8-3.5-0.2-6.9-2.4-10.1-3.7-0.3-0.2-0.2-0.7 0.2-0.6zm0.4 5.6q-0.2-0.1-0.5-0.2c-0.5 0.1-0.4-0.7 0-0.7 1.6-0.1 4.1 0.8 4.6 2.5 0.1 0.2-0.2 0.6-0.4 0.5-0.8 0-1.4-0.4-2-0.9-0.8-0.5-1.6-0.9-2.4-1.4q0.3-0.2 0.6-0.4 0.1 0.2 0.2 0.5c0.1 0 0 0.2-0.1 0.1zm-3.1 0.6c1.7 0.6 3.3 1 4.9 1.7 0.8 0.4 0.4 1.7-0.4 1.4-1.7-0.7-3.2-1.5-4.8-2.3-0.5-0.2-0.1-1 0.3-0.8zm3-51.6q0.8-0.7 1.8 0.1 1.2 0.4 2.4 0.9 1.8 0.6 3.6 1.2c2.5 0.9 5 1.8 7.3 3 0.5 0.3 0.1 1.1-0.4 0.9-5.3-1.2-10.7-3.8-15.7-6.1-0.3-0.2-0.1-0.7 0.3-0.7 0.6 0.1 0.5 0 0.8 0.6 0.1 0.1 0 0.1-0.1 0.1zm16.7 2.1c4.8 0.5 9.5 2 13.9 3.9 0.7 0.3 0.4 1.3-0.3 1.1-4.6-1.3-9.3-2.8-13.7-4.7-0.1-0.1-0.1-0.3 0.1-0.3zm9.7 5.5c3.9 0.8 7.6 2 11.3 3.6 0.6 0.3 0.3 1.2-0.3 1-3.9-1-7.6-2.5-11.1-4.4-0.1 0 0-0.2 0.1-0.2zm1.6 18.8c3 0.6 6.5 1.9 8.6 4.2 0.4 0.4 0 1.1-0.5 0.9-2.8-1.3-5.5-3.2-8.3-4.5-0.4-0.2-0.1-0.7 0.2-0.6zm-79.8-14c1.5 0.3 2.8 0.4 4.2 1 1.1 0.5 2.1 1.1 2.9 2 0.3 0.3 0 0.8-0.4 0.6-2.3-0.9-4.4-2.5-6.8-3.2-0.3-0.1-0.2-0.5 0.1-0.4zm2 3.6c4.1 0.6 8.1 2.1 11.6 4.2 0.5 0.3 0.3 1.3-0.4 1.2q-4.6-0.5-9.1-1.7 0.2-0.5 0.3-1c4.1 1.7 8.3 3.2 12.2 5.2 0.4 0.3 0.1 1-0.4 0.8-4.1-1.4-8.1-3.3-12.1-5-0.6-0.2-0.4-1.1 0.3-1 2.9 0.8 5.8 1.2 8.8 1.4q-0.1 0.6-0.2 1.3c-3.7-1.6-7.4-3-11.1-4.5-0.4-0.2-0.4-0.9 0.1-0.9zm41 86.3c0 0.1-0.2 0.1-0.2-0.1 0.1-0.1 0.3 0 0.2 0.1zm-56.9 23.6c2.4 0.5 4.5 1.2 6.5 2.6 0.3 0.2 0 0.6-0.3 0.5-2.1-1-4.1-2-6.3-2.8-0.1 0-0.1-0.3 0.1-0.3zm-0.9 10.4c1.3 0.5 2.6 0.5 3.9 1.3 0.2 0.2 0.1 0.6-0.2 0.6-1.5-0.2-2.5-0.9-3.8-1.4-0.3-0.1-0.2-0.6 0.1-0.5z"/></svg>