<svg version="1.2" xmlns="http://www.w3.org/2000/svg" viewBox="0 0 149 148" width="149" height="148"><style>.a{fill:#ff7e58}</style><path class="a" d="m14.7 116.2c23.2 11.7 54.4 5.7 77-5.1 23-11 45.4-34.4 46.7-60.8 0.7-14.2 0.5-28-13.1-36-11.3-6.8-28.7-8.7-41.6-8-13.9 0.7-26.2 7.1-37.5 14.8-10.5 7.2-21.9 15-30.2 24.9-15.8 19-21.5 74.9 15 73.8 1.5-0.1 1.5 2.2 0 2.3-31.1 2-34.8-36.8-28.1-59.1 4.3-14.5 14.2-24.5 25.8-33.5 11.9-9.2 24.3-18.8 38.7-23.7 14.9-5 31.3-3.2 46.3 0.6 12.6 3.3 25 10.7 27.5 24.5 2.3 12.9 1.6 29.4-4.5 41.2-6.4 12.6-18.6 24.3-30 32.5-13.6 9.9-29.9 15.5-46.4 18.1-15.1 2.3-33 3.6-46.1-5.6-0.6-0.4-0.1-1.2 0.5-0.9zm13.9 5.3c9.1-1.4 18.3-1.9 27.3-2.9 9.9-1.2 21-1.7 30.4-5.2 4.3-1.6 8.1-4.4 12.3-6.3 5.1-2.3 9.4-4.1 13.6-7.8 6.9-6.1 12.6-13.7 18.8-20.5 0.4-0.5 1.1 0.2 0.7 0.7-6.2 7.5-12.3 16-19.9 22.2-3.3 2.7-6.8 4.4-10.6 6.2-4.2 1.9-8 4.6-12.2 6.4-8.3 3.5-18.1 3.9-26.9 5.1-11 1.4-22.2 3-33.3 3-0.6 0-0.7-0.9-0.2-0.9zm112.5-88.3c8 17.3 6.5 40.8-0.2 58.3-6 15.9-17 29.9-31.9 38.4-16.3 9.4-38.8 13.9-57.4 10.8-9.9-1.7-19.1-6.4-27.6-11.8-6.5-4.2-12-8.8-14.6-16.4-0.4-1.1 1.3-1.7 1.9-0.8 8.7 14.2 29.3 24.5 45.5 25.8 17.6 1.3 37.9-3.1 52.8-12.6 13.7-8.7 24-22.8 29.2-38.2 2.8-8.5 4.2-17.4 4.3-26.3 0.1-9.2-1.9-17.9-2.9-27 0-0.5 0.7-0.7 0.9-0.2zm-9.1 50c-0.8 2.6-2.2 5.3-4.6 6.7-0.5 0.3-1.2-0.3-0.8-0.8 1.6-2.1 3.4-3.9 4.8-6.2 0.2-0.3 0.8-0.1 0.6 0.3zm-2 6.5c-0.6 1.6-1.9 3.9-3.6 4.5-0.3 0.1-0.5-0.2-0.4-0.4 0.3-0.8 0.9-1.3 1.5-2 0.7-0.8 1.4-1.6 2.2-2.3 0.1-0.2 0.4 0 0.3 0.2zm0 3.2c-1.2 1.9-2 3.7-3.5 5.4-0.5 0.6-1.6-0.2-1.1-0.9 1.2-1.7 2.8-3.1 3.9-4.9 0.3-0.4 0.9 0 0.7 0.4zm-57.7-48c-0.4-3 0.8-4.9 3.4-6.2 2.4-1.2 7.1-1.2 7.8-4.7 1.7-8-9.6-1.8-11.8-0.3-1.8 1.2-3.3 2.7-5.3 3.5-2.9 1.1-6.1 0.9-8.8 2.4-2.5 1.5-6.4 2.2-2.7 7.9 0.2 0.3 1.4 0.1 1.6 0.5 0.5 0.7 1.2 1.4 1.4 2.2 0.5 2.6-1.8 4.8-3.8 5.8-1.6 0.8-3.3 0.8-5 1.1-3.7 0.7-5.8 2.1-9 3.4-2.5 1.1-5.5 1.3-7.3-1.1-3-4 2-7 1.1-10.9-0.7-2.7-3.4-3.5-1.8-7 1.8-4.1 6.5-4.3 10.2-5.3 6.8-1.8 9-7.3 13.8-11.6 3.9-3.4 8.6-5.4 13.6-6.1 7.1-1 13.9-0.2 20.7-2.7 4.1-1.5 9.3-4.4 13.9-3.1 8.1 2.4 3.3 10.6-1.3 13.8-3.7 2.6-5.8 5.4-7.4 9.5-0.6 1.3-1.2 2.7-2.3 3.6-2.4 1.8-4.7 0.8-7.5 1.5-3.9 1-5.7 5.1-9.3 6.2-2 0.7-3.7-0.1-4.4-2.1-1.6-4.1 3.4-6.4 6.3-7.8 0.7-0.3 1.4 0.7 0.6 1.2-1.7 0.9-1.5 0.4-1.5 2.8 0 3.9 0.1 1.2 1.6 0.6 1.3-0.6 2.4-1.9 3.7-2.5 1.4-0.7 3-0.6 4.3-1.2 3.1-1.2 5.5-3.7 7-6.3 1.3-2.2 2.1-3.7 4.1-5.2 1.4-1.1 5.5-2.8 6.2-4.3q-0.6-1.9-1.1-3.8 0.6-5-2.9-3.6c-1.5 0-3.2 0.7-4.6 1.2-3.8 1.3-7.3 2.9-11.2 3.6-5.5 0.9-11.3-0.1-16.8 1.3-5.9 1.4-10.2 4.8-14 9.4-1.9 2.5-3.7 4.8-6.5 6.4-1.1 0.6-2.3 1-3.5 1.3-4.2 1.1-4 0-6.4 4.8q-1 1.9-2 3.9 0.6 0.6 1.2 1.2c0 0.1 0.3 0.2 0.3 0.3-0.1 0.8-0.2 1.7-0.2 2.5 0 1.1-2-1.3-1.3 1.9 0.3 1.5 5.2 4.3 6.1 4.1 1-0.1 2.4-1.2 3.5-1.5 1.6-0.5 3.4-0.3 5-0.7q0.9-0.2 1.7-0.3 0.9-2.4 1.7-4.9c0-0.1-0.5 0-0.5-0.2-0.6-1.3-2.3-1.1-2.7-3.1-0.5-2.3 0.7-4.3 2.3-5.8 1.9-1.9 4.5-3.1 7.2-3.7 2.1-0.5 4.1-0.7 6.1-1.6 2.6-1 4.4-2.8 6.8-4.1 2.7-1.6 11.6-4.9 13-0.7 2.6 7.5-12.7 8.6-12.6 14.5 0 0.5-0.6 0.4-0.7 0zm-4.7 22.6c-3.3-8 4.2-12.6 10.6-15.1 5.7-2.3 11.9-3.8 16.7-7.8 2.8-2.4 5-7.2 8.9-8.1 4-0.9 6.6 0.6 10.1-4 1.4-1.8 2.1-4.5 3.8-6 1.5-1.4 2.8-2 4.4-0.3 2.4 2.5 0.7 7.9 0.8 11 0.4 6.3 3.7 12.4 3.7 18.6 0.1 7.8-7 13.5-14.5 12.6-2.3-0.2-4.5-1.3-6.7-1.5-4.6-0.4-7.5 1.6-11.7 2.5-2.3 0.5-5.2 0.6-6.4-1.8-4.6-8.7 13-6.2 15-7.3 5.7-3.1 3.8-13.1-2.8-9.4-1.6 0.9-2.8 2.3-4.6 3.1-3.6 1.5-5.6 1-8.4 5.3-0.7 0.9-0.8 2.2-1.8 3-1.9 1.4-2.1 0-3.9 0.7-3.9 1.5-3.9 4.7-6.8 6.8-1.9 1.4-3.9 1.8-5.8 0.1-2.4-2.1-1.9-6.5-0.8-9.1 2.2-5.5 6.7-5.8 11.3-8.5 0.8-0.4 1.4 0.7 0.7 1.2-2.3 1.7-5.6 2.3-7.7 4.2q-2.9 2.8-2.9 6.9 4.9 3.5 6.1-0.6c1.2-0.9 1-2.1 2.5-2.9 1.5-0.8 2.5 0.1 3.7-0.5 4.2-1.7 2.9-6 6.6-8 2.3-1.3 5.1-0.2 7.7-1.8 1.9-1.1 3.6-3.4 5.7-4 4.7-1.5 7.5 4.2 7.2 8.4-0.3 3-2.1 5.7-4.7 7.2-1.2 0.7-2.3 1-3.7 1.2q-1.8 0.1-3.6-0.2-2.5-1.2-2.6 1.6c-2 4 3.5 0.2 5.3-0.2 1.8-0.4 3-0.6 4.9-0.5 3.5 0.2 6.8 2.1 10.4 1.9 5.5-0.3 9.9-4.8 10-10.4 0-5.4-2.9-10.9-3.3-16.4-0.2-1.5 0.8-8 0-9-3-3.9-4.7 2.3-5.9 4-1.6 2.4-3.1 3.9-6 4.3q-1.7-0.1-3.4-0.4-3.9 0.8-5.8 3.9c-1.4 1.3-2.4 2.8-3.9 4-7.2 5.9-31.2 8.1-27.6 21 0.1 0.6-0.6 0.7-0.8 0.3zm-27.5 0.3c-0.6 3.1-8.9 7.8-2.6 7.5 2-0.1 4-2.1 6.1-0.5 4 3.1-3.3 7.9-6 8.4-1.1 0.2-2.3-0.1-3.5-0.1-4.8 0.3-8 2.4-11.5 5.4-1.9 1.6-4.7 5.2-7.7 5.1-2.4 0-3.1-1.1-3.5-3.2-0.2-0.6 0.2-1.2 0.2-1.8 0.1-2.6 0.5-5.6 0.7-8.1 0.1-1.7 0-3.4 1.4-4.6 1.4-1.2 1.5-0.1 2.9-0.9 2.5-1.4 2.3-3.3 3.9-5.2 1.8-2.4 4.4-3 7.2-3.6 2.9-0.5 5.6-0.7 8.3-1.6 2.2-0.6 4.2-1.4 6.4-1.9 2.6-0.6 15.9-3.8 15.8 2.1-0.1 1.8-1.7 2.7-3.2 3.1-1.8 0.6-2.6-0.2-4.3-0.4-6.8-0.5-7.2-0.8-11.8 3-0.9 0.8-2.2-0.5-1.3-1.3 2.6-2.4 5.8-5 9.5-5.3 0.7 0 2.6 0.4 3.4 0.4q2.4-0.8-1.3-0.2-3.1 0.2-6.2 0.9c-2.8 0.7-5.4 2-8.2 2.8-2.5 0.7-6.1 0.2-8.2 1.1-3.5 1.5-5.6 5.7-8.2 8.2-2.6 2.6-2.3-5.9-3.6 4.8 0.1-1.1 0.6 4.6 0.4 3.6 0.5 2-5.2 6.1 4.1 2.9 1.5-0.5 3.6-3.2 5-4.2 3.3-2.2 6-2.6 9.8-3.2q4.1 0.7 7.6-2.4-1.3-3.3-3.7-1.6c-1.6 0.1-3.1 1.2-4.7 1.2-0.3 0-0.7-0.2-0.8-0.4-2.1-4.4 5.1-7.6 7.3-10.1 0.1-0.2 0.3 0 0.3 0.1zm-21.7 33.5c4.2-3.6 6.8-7.3 10.4-11.3 3.3-3.8 5.7-3.1 10.3-4.5 4.2-1.3 6.9-7.3 10.9-8 1.3-0.2 2.6 0.3 3.1 1.6 0.6 1.6-1.2 3.6-2.1 4.6-1.4 1.8-4.6 3.5-5.6 5.5q-3.5 2.4 2.4 3.5 0.3-0.9 0.6-1.8c2.5-2.3 6.5-14.6 12.3-9.6 5 4.3-1.9 12-4 15.4-3.8 6.1 0.7 14.1-7.2 17.6-7.7 3.5-18.7-0.8-25.2-5.1-2.8-1.9-9.7-7.9-3.5-10 1.2-0.4 1.7 1.4 0.6 1.8-4 1.6 11.7 9.9 11.7 9.9 3.5 1.3 8.6 3 12.3 2.3 6.2-1.3 6.1-3 6.9-9.6 0-0.7-0.1-1.4 0-2 0.5-2.2 1.4-4 2.6-5.9 0.8-1.3 5.4-6.3 4.9-7.9q-2.7-1.4-5.3-2.7-1.8 1.8-2.9 4c-1 1.8-1.5 3.8-2.4 5.5-1.2 2.2-3.4 4.7-6.2 3.8-2.4-0.8-3.1-3.8-2.6-6 0.5-1.9 2.2-3.4 3.5-4.7 1-1.1 6.1-5.7 4.8-5.7-1.8 0.1-4.2 3.2-6.2 4.3-2.1 1.2-4.3 1.2-6.6 1.9-4.9 1.5-6.6 5.3-9.8 8.6-2.1 2.1-4.5 3.7-7 5.3-0.5 0.3-1.1-0.5-0.7-0.8zm47.4-20.8c-0.6 4.4 1.6 8.4 1.3 12.7-0.2 2.8-3.6 7.7-2.3 10.1q3.9 2.2 7.8 4.4 2-0.5 4-1.1 2.8-0.8 5.5-1.8c4.5-1.8 8.9-3.8 13.1-6.3 4.3-2.5 8.7-5.3 12.2-8.7 4.7-4.6 6.8-10.4-4.4-12.8-0.7-0.1-1.5 0.2-2.2 0-2.7-0.6-4.9-1.4-7.3-2.6-1.8-0.9-3.4-2-5.3-2.7q-2-1.1-4.3-1.2-1.8 9.9 3.9 9.1c2.6 0.4 6.2-0.4 6.1 3.5 0 1.3-0.6 2.1-1.6 2.8-2.6 1.9-5-0.7-7 2.9-1.6 2.9-3.2 7-7.7 5.6-1.9-0.6-1.9-1.2-2.8-2.9-0.6-1.4-0.6-3.1-1.1-4.5-1-2.8-4.9-7.2-7-2.9-0.4 0.8-1.7 0.6-1.9-0.2-0.5-2.3-0.1-3.4 1.9-4.6 0.8-0.5 1.7 0.5 1.3 1.4-3.3 6.6 2.5 12.9-3.2 18.9-0.6 0.7-1.6-0.4-1-1.1 4.5-5.4-0.2-12.8 2.5-18.8q0.7 0.7 1.3 1.3-0.4 1.2-0.8 2.3-1 0-2 0c1.5-3.5 4.5-6.2 8-3 2.2 1.9 1.9 4.6 3.1 7q0.2 0.9 0.5 1.8 3.3 0 6.7-0.1c0.3-0.2 0-1.3 0.3-1.6 0.8-0.9 0.5-1.6 1.6-2.3 0.8-0.5 1-0.2 1.8-0.6 0.5-0.2 2.1 0.3 2.4 0 3.1-3.8-1.8-2.4-2.5-2.6-3-1-5.8-0.1-8.3-2.9-3-3.4-2.2-8.3 1.9-10.1 6.5-2.7 12.2 3.6 17.8 5.4 5.6 1.8 13.4-2.3 15.4 5.8 1.4 6.3-4.1 11.3-8.6 14.6-7.7 5.8-16.3 10.4-25.5 13.4-5.6 1.9-13.4 4.4-16.2-2.7-2-4.9 0.5-6.2 1.7-10.8 1.4-4.6-1.1-9.5 0.2-14.3 0.1-0.4 0.8-0.2 0.7 0.2zm-17.3-29.8c0.2 1.1-1 1.9-1.8 2.4-1.3 1-2.8 1.8-4.3 2.4-0.8 0.3-1.6-0.6-1.4-1.4 0.3-1.1 0.7-2.6 1.7-3.3 1.1-0.8 3.1-0.6 4.3-0.8 1.1-0.2 1.6 1 0.8 1.7-1.1 0.8-2.5 1.9-3.8 1.5-0.4-0.1-0.7-0.6-0.4-1 0.7-1 2.2-1.4 3.2-2.1q0.2 0.9 0.5 1.8c-1 0.1-2.1 0.1-3 0.4-0.9 0.3-1 1.6-1.2 2.4q-0.8-0.6-1.6-1.2c1.2-0.5 2.3-1 3.4-1.6 0.5-0.3 1.1-0.7 1.6-1 0.3-0.1 0.8-0.2 1.1-0.5 0.3-0.2 0.8-0.2 0.9 0.3zm25.5-25.3c0.9-0.5 1.6-1.2 2.3-2.1 0.4-0.5 1.1 0 1.2 0.5 0.1 1.6-0.5 3.1-1.4 4.3-0.5 0.8-1.5 2-2.6 1.4-1.1-0.7-0.5-2.3-0.1-3.2 0.6-1.4 1.5-2.5 2.6-3.5 0.8-0.6 1.9 0.2 1.5 1.1-0.8 1.6-1.7 3-2.8 4.4-0.7 0.8-1.8-0.3-1.4-1.1 0.4-1 1-1.8 1.8-2.5 0.8-0.7 1.9 0.4 1.2 1.2q-0.1 0.2-0.3 0.3c-0.4 0.7-1.6 0.3-1.3-0.5q0.1-0.3 0.2-0.6 0.7 0.4 1.4 0.8c-0.6 0.7-1.1 1.4-1.4 2.2q-0.7-0.6-1.4-1.1 1.4-1.8 2.4-4 0.7 0.6 1.4 1.1c-0.6 0.6-1.2 1.1-1.7 1.8-0.3 0.6-1 1.8-0.8 2.5q-0.3-0.3-0.5-0.6 0.1 0.1 0.3 0.1-0.4 0-0.8 0c0.7-0.2 1.3-1.4 1.5-1.9 0.4-0.8 0.6-1.6 0.8-2.4q0.4 0.5 0.9 0.9c-1 0.3-2 0.6-3 1 0 0-0.1 0 0-0.1zm-7.4-2.9c0.9 0.9 1.2 1.9 1 3.2-0.1 0.9-0.6 1.9-1.7 2-1 0-1.5-0.8-1.7-1.7-0.1-1.1 0.4-2 1.3-2.6 0.7-0.5 1.5 0.2 1.5 0.9 0.1 0.9-0.1 1.7-0.8 2.4-0.5 0.7-1.8 0.2-1.7-0.7 0.1-1 0.3-2.1 1.3-2.6 0.5-0.3 1.2 0.2 1 0.8-0.1 0.5-0.4 1-0.3 1.5q-0.9-0.1-1.9-0.2c0.3-0.4 0.4-0.7 0.4-1.2q0.8 0.4 1.7 0.7-0.3 0.3-0.7 0.5-0.3 0.1-0.7 0.3c0.6-0.6 0.7-2.2 0.8-3.1 0-0.2 0.3-0.4 0.5-0.2zm51.4 35.8c-0.9 1.7-3.7 2.1-5.4 2.3-1.2 0.2-3.5 0.6-4.1-0.8-1.7-3.8 7.5-3 9-2.7 0.8 0.1 0.9 1.3 0.2 1.6-2 1.1-5.2 2.4-7.5 1.6-0.6-0.3-0.7-1.2 0-1.4 1.1-0.3 2.2-0.2 3.2-0.4q1.8-0.4 3.4-1.3 0.1 0.8 0.3 1.6c-1.6-0.3-3.1-0.3-4.6-0.1-0.5 0.1-1.2 0.5-1.7 0.4q-0.6 0.4-0.4-0.3 0.5 0 1-0.1c1.3-0.1 2.5-0.3 3.8-0.5 0.9-0.1 1.9-0.4 2.7 0 0.1 0 0.2 0.1 0.1 0.1zm-5.5-17.3q0 0 0.1 0c0.1-0.2 0.3-0.4 0.5-0.3q0.1 0 0.2 0.1c0.1 0 0.3 0.2 0.4 0.4 0.1 1-0.9 1.8-1.6 2.4-0.9 0.8-2.2 1.9-3.4 2.2-0.8 0.3-1.9-0.1-2.1-1-0.3-1.2 1-2.4 1.6-3.3 0.8-1 1.9-2.2 3.1-2.8 0.8-0.5 1.9-0.1 2 0.9 0.4 2.4-2.3 4.8-4.2 5.6-0.6 0.3-1.4 0.1-1.5-0.6-0.5-2.2 2.7-3.9 4.3-4.9 0.7-0.4 1.8 0.3 1.4 1.2-0.7 1.9-2.1 3.4-4 4.1-0.5 0.2-1.2-0.2-1.3-0.7-0.2-1.7 1.2-2.4 2.4-3.4 0.9-0.8 2-1.9 3.2-0.8 0.4 0.3 0.3 0.8 0.2 1.1-0.9 2-2.4 3.7-4.6 3.9-0.6 0.1-1-0.8-0.5-1.2 1.3-1.1 2.6-2 3.4-3.6q0.1 0.5 0.1 1.1-0.1 0-0.1-0.1 0.3 0.1 0.6 0.3c-0.3 0-2.8 1.9-2.7 2.2q-0.7-0.3-1.5-0.6c1.3-0.6 2.4-1.5 2.9-2.9q0.7 0.6 1.5 1.2-1 0.6-2 1.3c-0.2 0.2-1.4 1.1-1.3 1.2q-0.8-0.3-1.6-0.6c0.8-0.3 1.5-0.7 2-1.3 0.3-0.4 1.3-1.6 1.2-2.2q0.2 0.4 0.5 0.7-0.1-0.1-0.2-0.2 0.4 0.1 0.8 0.2c-0.5 0.1-1.4 1.2-1.8 1.6q-0.5 0.5-0.9 1c-0.2 0.2-0.9 1.6-1 0.9-0.1-0.5 0.4-0.6 0.9-0.9q0.6-0.3 1.1-0.7c0.5-0.4 1.8-1.1 2-1.5q0 0.3 0 0.6 0-0.1 0-0.1 0.3 0.1 0.5 0.2 0 0-0.1 0c-0.3 0.1-0.7-0.3-0.5-0.7zm-35.7 17.4q0.3 0 0.6 0c0.4 0 0.9 0.4 0.7 0.9-0.7 1.8-3.2 1.9-4.8 1.3-0.7-0.3-1.2-1.3-0.5-1.9 1.6-1.2 3.6-1.2 5.1 0.1 0.5 0.4 0.5 1.3 0 1.7-0.8 0.8-1.7 1-2.8 0.9-0.9-0.1-2.2-0.4-2.7-1.2-1.2-2.5 3.3-2.9 4.7-2.8 0.8 0.1 1.3 1 0.7 1.7q-0.9 1.1-2.2 0.5c-0.3-0.2-0.4-0.7-0.1-0.9 0.3-0.2 0.5-0.5 0.7-0.8q0.4 0.8 0.9 1.5c-0.6 0-1.1 0-1.6 0.1q-0.3 0.1-0.6 0.2-0.8 0.5-0.4-0.1-0.1-0.4-0.3-0.8c0.2 0.2 1.6 0.4 2 0q0 0.9 0 1.7c-0.6-0.6-1.3-0.5-2 0q-0.1-1.1-0.3-2.1c0.7 0.3 1.3 0.4 1.9 0.3 0.6-0.1 1.1-0.3 1.6-0.3q-0.3 0.4-0.7 0.7 0 0 0-0.1c-0.3-0.2-0.2-0.5 0.1-0.6zm24.2 30.2c-1.6 1-5.4 2.2-6.5-0.1-1.5-2.7 3.3-3.1 4.9-3.1 1 0 2.8-0.1 3.4 0.9 0.5 0.9 0 1.9-0.8 2.4-1.8 1.2-5.3 1.9-6.7-0.1-0.3-0.4-0.1-1.2 0.4-1.4 1.5-0.7 3-0.9 4.7-0.3 1 0.3 0.9 1.6 0 2-1.4 0.5-2.6 0.2-3.6-0.7-0.5-0.3-0.4-1.2 0.2-1.5 0.9-0.4 1.9-0.7 2.9-0.4 0.6 0.2 0.6 1.1 0 1.3-0.7 0.2-1.3 0.4-2 0.8q0-0.8 0-1.7c0.7 0.4 1.2 0.4 1.9 0.2q0 1 0 2c-1.1-0.4-2.1-0.4-3.1 0.1q0.2-0.7 0.3-1.4c0.5 0.7 2.4 0 3.1-0.2q0.6-0.5 1 0-0.5-0.1-1-0.1-0.8-0.1-1.7 0c-0.5 0-1.2 0-1.7 0.3-0.8 0.3-0.5 0.5 0.3 0.6 1.2 0.2 2.5 0.1 3.7-0.1 0.3-0.1 0.6 0.4 0.3 0.5zm1.8-6.7q0.3-0.2 0.6-0.4c0.5-0.3 1 0.4 0.6 0.8-1 1.3-8.3 3.3-7.4 0 0.4-1.3 2.5-2 3.7-2.4 1.9-0.8 4-1.2 6.1-1.2 0.6 0 1 0.5 1.1 1.1 0.2 1.9-1.5 3.1-3.1 3.8-1.7 0.7-5 1.7-6.8 0.6-1.6-0.9-0.7-2.4 0.5-3.1 2.2-1.2 4.7-1.7 7.2-1.7 1 0 1.4 1.3 0.5 1.8-2 1.1-5.4 2.7-7.7 2.1-0.4-0.1-0.6-0.7-0.2-0.9 0.8-0.8 1.8-0.9 2.8-1.2 1.5-0.4 2.8-1 4.1-1.7q0.3 0.9 0.5 1.8c-1.1 0-2.2 0.1-3.3 0.4q-1.1 0.3-2.1 0.7c-0.1 0.1-1.7 0.8-0.8 0.3 0.8-0.5 2.2-0.4 3.3-0.8 0.9-0.2 3.1-0.8 2.9-2.1q0.6 0.5 1.1 1c-1.4 0.1-2.8 0.2-4.1 0.6-0.7 0.2-3.6 0.9-3.9 1.6q-0.1-0.5-0.2-0.9c0.4 0.5 2.8-0.1 3.2-0.2 0.7-0.1 1.4-0.4 2.2-0.4q0 0.5 0 1-0.3 0-0.6 0c-0.4 0-0.4-0.4-0.2-0.6zm-26.5 16c1.1-0.4 2.5-0.4 2.9 1.1 0.4 1.4-0.6 2.7-2 2.9-1.6 0.1-2.9-1-3.5-2.4-0.6-1.3-1.1-4-0.2-5.2 1-1.2 2.9-0.9 3.9 0.1 1.3 1.2 2.3 3.4 2.1 5.2-0.1 1.5-1.7 2.4-2.9 1.3-1.4-1.2-1.7-3.8-1.5-5.5 0.1-0.9 1.3-1.4 1.8-0.5 0.7 1.2 0.9 2.5 0.8 3.9 0 1-1.2 1.3-1.7 0.5-0.5-0.7-2-2.7-0.2-2.7 0.7 0 1 0.8 0.5 1.3-1.3 1.6-3.6-0.7-2.3-2.3 0.5-0.7 1.5-0.9 2.3-0.4 0.8 0.6 0.9 1.6 0.5 2.5q0.1-0.4 0.1-0.8c0.2 0.5 0.4 1 0.7 1.4q-0.9 0.3-1.8 0.5c0.2-1.1 0-2-0.6-2.9q0.9-0.3 1.8-0.5c-0.1 0.7-0.1 1.4 0.1 2.1 0 0.2 0.4 1.7 0.6 1.8 0.2 0-0.6-2.5-0.6-2.6-0.3-0.5-0.9-1.7-1.7-1.6-1.2 0.4-0.5 3.4 0 4.2 0.4 0.7 1.3 1.3 2 0.9 1.2-0.7 0.1-2.6-1.1-2.2-0.1 0-0.1-0.1 0-0.1zm-6 0.8c1 1.3 1.9 2.6 1.4 4.3-0.4 1.3-1.7 2.3-3.1 2.1-3.3-0.5-2.5-5.1-1-6.9 0.7-0.9 2.1-1.8 2.9-0.5 0.8 1.1 0.9 3.8 0.4 5-0.5 1.2-2 1.2-2.7 0.1-0.8-1.3-0.4-3.1 0.5-4.3 0.5-0.7 1.7-0.7 1.9 0.2 0.4 1.3 0.2 2.5-0.4 3.6-0.5 0.9-1.8 0.7-2.1-0.3-0.5-1.5-0.3-6.6 2.5-5.8 1.4 0.4 1.4 2.1 1.5 3.3 0.2 1.6 0.6 3.4-0.4 4.8-0.7 1-2.1 1.5-3.2 1-1.3-0.5-1.6-1.9-1.7-3.1 0-1.5 1-8 3.8-6.2 0.5 0.3 0.6 0.8 0.5 1.4q0 0.1 0 0.2c-0.2 1.4-2.5 1-2.4-0.4q0-0.1 0-0.1 0.3 0.5 0.6 1-0.1 0-0.2 0 0.6 0 1.3 0c-0.5 0.2-0.8 1.8-0.9 2.4q-0.1 0.6-0.1 1.2c0 0 0.1 1.2-0.1 1 0.3 0.2 0.2-2.1 0.2-2.2 0-0.9 0.1-2-0.2-2.8q0.3 0.3 0.6 0.7-0.2-0.1-0.3-0.2 0.4 0 0.9 0.1c-1 0.2-0.5 2.4-0.3 2.9q-1 0-2 0c0.3-0.6 0.5-1.2 0.3-1.9q1 0.3 1.9 0.5-0.4 0.5-0.4 1.2c0 0.3 0.3 0.6 0.1 0.5q-0.6 0-1.2 0 0.1-0.1 0.3-0.2-0.3 0.4-0.6 0.7c0.2-0.4 0.6-2.8 0.1-3.3q0.4 0.2 0.7 0.3c-0.2 0-0.8 1.2-0.9 1.5-0.1 0.6-0.3 1.5 0 2 0.5 1 1.4 0 1.5-0.6 0.2-1 0-1.9-0.4-2.8-0.1-0.3 0.4-0.6 0.7-0.4zm-29.1 0.8c0.3 1.7 0.4 3-0.5 4.6-0.7 1-2 2.5-3.4 1.7-1.5-0.9-0.8-3-0.2-4.2 0.5-1.2 1.7-3.6 3.1-4 1.4-0.4 2 1.1 1.9 2.2-0.2 1.8-1.1 3.7-2.4 5-1 1-2.8 0.8-2.9-0.8-0.2-1.6 1.1-3.2 2.4-3.9 0.7-0.4 1.5 0.1 1.5 0.9 0 1-0.6 2-1.6 2.1-0.6 0.1-1.1-0.4-0.8-1 0.3-0.4 0.4-0.6 0.4-1.1q0.8 0.4 1.5 0.8c-0.8 0.5-1.4 1.2-1.3 2.2q-0.1-0.4-0.3-0.8 0.1 0.1 0.2 0.3-0.4-0.2-0.8-0.4c0.5 0.1 2.3-3.5 2-3.8q0.3 0.2 0.7 0.3c0.1 0-0.8 1.2-0.7 1q-0.4 0.6-0.7 1.1c-0.2 0.3-0.8 2.1-0.9 2.1 0.4-0.1 1.1-1.3 1.3-1.6 0.4-0.8 0.8-1.7 0.8-2.6-0.1-0.4 0.6-0.5 0.7-0.1zm-7.3-4.9c2.4 0.9-3.3 5.5-4.1 6-1 0.6-2.7 0.7-2.8-0.9-0.1-1.5 1.8-2.9 2.8-3.8 1-0.9 2.6-2.5 4-2.7 1.6-0.2 1.7 1.6 1.3 2.7-0.7 1.4-1.8 2.7-3.1 3.7-1 0.7-2.8 1.9-4.1 1.4-1.9-0.8-0.5-2.7 0.3-3.6 1.3-1.5 3-2.6 4.9-3.2 0.6-0.2 1.5 0.6 1.2 1.3-0.7 1.7-1.7 2.7-3.6 2.9-0.7 0-1-1.1-0.3-1.4 0.7-0.5 1.6-1.2 1.9-2q0.7 0.6 1.3 1.2-1.5 0.5-2.7 1.5c-0.5 0.4-1.8 1.4-1.8 2.1q-0.2-0.4-0.3-0.8c-0.3-0.3-0.1-0.1 0.2-0.3 0.2-0.1 0.5-0.2 0.8-0.3q0.8-0.5 1.5-1.1c0.5-0.4 2.3-2 2-2.7q0.3 0.3 0.5 0.6c0.3 0.2 0.4-0.2 0 0.2-0.3 0.2-0.5 0.3-0.8 0.5q-0.8 0.6-1.7 1.2c-0.2 0.3-2.5 2.3-2.3 2.5q-0.3-0.3-0.6-0.5c0.6 0.3 5.5-3.5 5.2-4.1-0.1-0.2 0.1-0.5 0.3-0.4zm-5.9-18.1c-1.2 0.8-4 2.2-5.4 1.1-1.8-1.5 1.1-3 2.2-3.4 1.6-0.6 3.7-0.4 3.5 1.8-0.3 2.7-3.4 1.9-5.1 1.9-0.7 0-1.4-0.9-0.9-1.6 1.1-1.5 2.9-2.2 4.7-1.8 0.7 0.1 1 1 0.7 1.5-0.4 0.7-0.9 1-1.7 1-1.3-0.1-1.3-2 0-2.1q-0.1 0.1-0.2 0.1 0.4 0.8 0.7 1.5c-1-0.2-1.9 0.1-2.4 0.9q-0.5-0.8-0.9-1.6c0.7 0 1.6 0.3 2.3 0.2q0.4-0.1 0.7-0.3-0.3 0.1-0.7 0.2c-0.4 0.2-0.8 0.4-1.2 0.6q-0.2 0.1-0.4 0.2-0.1-0.2-0.1-0.3c0.1-0.1 1 0 1.2 0q1.4-0.1 2.7-0.6c0.4-0.1 0.6 0.5 0.3 0.7zm-7.6 8.5c-0.2 1-0.6 1.7-1.5 2.3-0.7 0.4-1.6 0.5-2.1-0.3-1.2-2 2.8-4 4.1-4.6 0.4-0.2 1-0.1 1.2 0.4 0.6 1.2-0.2 2.3-1.1 3.1-0.8 0.7-2.3 1.9-3.5 1.7-1.1-0.2-1.3-1.5-0.7-2.4 1-1.1 2.8-1.7 4.2-2 0.8-0.2 1.8 0.8 1.2 1.6-1.2 1.6-2.7 2.6-4.8 2.7-0.9 0.1-1.2-1.1-0.7-1.7 1-1 5.6-6 6.8-3.1 0.6 1.4-0.8 2.6-1.8 3.4-1.4 1-2.9 1.6-4.7 1.3-0.6-0.1-0.9-1-0.6-1.5 1.1-1.4 3.1-3.4 5.1-2.9 0.5 0.1 0.7 0.8 0.3 1.2-0.5 0.5-1.2 0.6-1.8 1q-1.1 0.7-1.8 1.7-0.4-0.7-0.9-1.5c0.9 0.1 1.6-0.2 2.4-0.6 0.3-0.2 2.1-1.2 1.9-1.5q0.3 0.2 0.6 0.4c-0.3-0.1-1.6 0.8-2.1 1.2-0.7 0.5-1.4 1.3-1.8 2.1q-0.5-0.7-1.1-1.5c1.2-0.2 2.4-0.8 3.1-1.8q0.6 0.8 1.3 1.6c-0.6 0.1-1.1 0.2-1.7 0.5-0.2 0.1-1.3 0.4-1.4 0.8q0-0.5-0.1-0.9 0.1 0.1 0.1 0.2-0.4-0.2-0.9-0.5c0.5 0.1 3.1-1.4 2.9-2q0.5 0.4 1.1 0.7c-1.2 0.4-1.9 1.1-2.9 1.8q-0.3 0.7-0.4 0.2-0.1-0.4 0.3-0.3c0.5-0.4 1.1-0.5 1.5-1 0.2-0.1 0.4 0 0.3 0.2zm100.2-31.1c-2.3 0.7-5.1 1.3-7.6 0.8-0.5-0.1-0.4-0.8 0-0.9 2.4-0.9 5.1-0.7 7.6-0.5 0.3 0.1 0.4 0.5 0 0.6zm-3.9-2q0.2-0.2 0.4-0.3 0.1 0.2 0.3 0.5c-1.6 1-4.2 1.5-6.1 1.2-0.4-0.1-0.4-0.7-0.1-0.9 1.6-1 4.3-1.4 6.1-0.8 0.2 0.1 0.3 0.5 0 0.5q-0.2 0-0.5 0.1c-0.2 0-0.3-0.2-0.1-0.3zm-19.4-27.9c-2 1.7-3.9 3.4-6.2 4.8-0.6 0.3-1.3-0.6-0.7-1 2.1-1.7 4.3-2.9 6.6-4.3 0.3-0.1 0.6 0.3 0.3 0.5zm-5.1-0.5c-0.8 1.1-1.3 2.1-2.2 3.1-0.8 0.7-1.6 1.7-2.7 1.6-0.3 0-0.5-0.3-0.5-0.5 0.3-1.1 1.2-1.6 2-2.3 0.9-0.8 2-1.5 2.8-2.4 0.3-0.2 0.8 0.1 0.6 0.5zm-3.6-0.1c-0.8 0.8-1.4 1.8-1.9 2.8-0.5 0.8-1.7 0-1.2-0.7 0.7-1 1.6-1.8 2.5-2.7 0.4-0.3 0.9 0.2 0.6 0.6zm-42.6 22.7c-1.6 0-3.2 0-4.7 0-0.7 0-0.9-1-0.2-1.2 1.8-0.4 3.4-0.1 5 0.6 0.3 0.2 0.2 0.6-0.1 0.6zm-0.7-2.4c-1.3 0.1-2.5 0.2-3.7 0.2-0.8 0-0.8-1.3 0-1.2 1.2 0 2.4 0.1 3.7 0.2 0.4 0.1 0.4 0.7 0 0.8zm-16.2 29.1q-0.5 0-1.1 0.1c-0.6 0-0.6-1.1 0-1q0.6 0 1.1 0c0.6 0 0.6 0.9 0 0.9zm7.9 26.5c-0.2 2.4-1 5.2-2.5 7.1-0.5 0.6-1.2 0-1.1-0.6 0.4-2.3 1.8-4.8 3.2-6.7 0.1-0.2 0.5-0.1 0.4 0.2zm-3.3 3.6c-0.2 1.4-0.4 2.8-1.5 3.8-0.5 0.5-1.1 0-1-0.6 0.2-1.4 1.4-2.3 2.3-3.3 0.1-0.1 0.2 0 0.2 0.1zm17.3-4.7c0.8 1.1 0.4 2.8 0.3 4-0.3 1.5-0.5 3.1-1.2 4.5-0.3 0.6-1.1 0.2-1.2-0.3-0.2-1.6 0.2-3.4 0.5-4.9 0.2-1.2 0.4-2.6 1.4-3.3 0.1-0.1 0.2 0 0.2 0zm-2.5 5.1c0.5 2.2 0.1 5-1.9 6.4-0.5 0.3-1-0.2-0.9-0.7 0.2-1 0.8-1.8 1.1-2.8 0.4-0.9 0.7-1.9 0.9-2.9 0.1-0.4 0.7-0.4 0.8 0zm-3.1 0.9c0.1 1.1 0 2.3-0.4 3.4-0.4 1-2 0.6-1.6-0.4q0.5-1.6 1-3.2c0.2-0.5 0.9-0.4 1 0.2zm37.4-8c1 1.5 1.8 2.9 2.4 4.5 0.3 0.8-0.9 1.1-1.2 0.4-0.6-1.6-1-3.2-1.4-4.8-0.1-0.1 0.1-0.2 0.2-0.1zm3.7-3.5c1.9 1 2.4 3.5 3.1 5.4 0.3 0.9-1.1 1.5-1.5 0.7-1-1.8-2.6-3.9-2-6 0-0.2 0.2-0.2 0.4-0.1zm3.6 1c0.4 1 1 1.8 1.6 2.6 0.2 0.5-0.4 0.8-0.7 0.4-0.6-0.8-1-1.8-1.3-2.8-0.1-0.3 0.3-0.5 0.4-0.2zm17.8-7.8q-0.7 0.2-1.5 0.4c-0.7 0.1-0.9-1-0.2-1q0.9 0 1.7 0c0.3 0 0.4 0.5 0 0.6zm-36.6 39.8c-0.7 1.8-3 2.1-4.7 2.5-2.8 0.6-5.7 1.1-8.5 0.6-1.1-0.2-0.8-1.8 0.2-1.8 2.1-0.2 4.1-0.1 6.2-0.3 1.4-0.1 4.9-0.3 6-1.4 0.3-0.4 1 0 0.8 0.4zm-5 4.2c-2.6 1.9-7.5 2.2-10.5 1.2-0.8-0.2-0.6-1.2 0.2-1.3 3.2-0.3 7 1.3 10-0.4 0.3-0.1 0.5 0.3 0.3 0.5zm5.9 2.4c-2.9 1.5-6.2 2.6-9.5 2.5-1.1-0.1-1.4-1.8-0.3-2 3.2-0.5 6.5-0.6 9.7-0.9 0.2 0 0.3 0.3 0.1 0.4zm-4.8 4.1c-2.4 1.1-4.7 1.3-7.2 0.8-0.6-0.2-0.5-1.3 0.1-1.2 2.3 0.3 4.7 0.3 7 0.1 0.1 0 0.2 0.3 0.1 0.3zm-11.5-2.3c-2.5 1-5.4 1.7-7.7 0-0.6-0.3-0.4-1.2 0.3-1.2 2.5-0.2 4.9 0.6 7.3 0.5 0.4 0 0.4 0.6 0.1 0.7zm67.6-65.8q0.2-0.1 0.5-0.1c0.1 0 0.3 0.1 0.2 0.3-1.2 1.6-4.4 2.1-6.2 2.4-0.7 0.1-0.8-1-0.2-1.1q1.7-0.3 3.3-0.8c1-0.3 2-0.8 2.9-0.8q0 0.2 0 0.4-0.3-0.1-0.5-0.2c0 0-0.1-0.1 0-0.1zm3.1 1.9c-0.8 1.7-3.4 2.4-5.2 2.4-0.9 0-1.1-1.4-0.2-1.6 0.9-0.2 1.9-0.4 2.9-0.6 0.8-0.2 1.5-0.5 2.4-0.4 0.1 0 0.2 0.1 0.1 0.2zm-2.4 5.2c-1.4 0.6-2.7 1.1-4.3 1.2-0.8 0-0.8-1.4 0-1.4 1.4-0.1 2.7-0.1 4.1-0.3 0.3-0.1 0.5 0.3 0.2 0.5zm-104.2-29.6c0 1.2-0.7 2.1-1.3 3.1-0.6 1-1.1 1.9-2.1 2.6-0.4 0.2-0.7-0.2-0.7-0.5 0.2-1.2 0.9-2.2 1.5-3.2 0.6-0.8 1.2-1.8 2.1-2.3 0.2-0.1 0.5 0 0.5 0.3zm0.5 3.9c0 0.8-0.4 1.6-0.7 2.4-0.3 0.8-0.6 1.5-1.2 2.1-0.5 0.5-1.1 0-1-0.6 0.1-1 0.7-1.7 1.1-2.5 0.5-0.6 0.8-1.2 1.4-1.7 0.2-0.1 0.4 0.1 0.4 0.3zm1.9 4c0.1 1-0.5 1.8-0.9 2.7-0.5 0.9-0.9 2-1.8 2.5-0.3 0.2-0.9 0.1-0.9-0.4-0.2-1.1 0.5-2.1 1.2-3 0.5-0.8 1.2-1.7 2.2-1.9 0.1-0.1 0.2 0 0.2 0.1zm69.1-41.5c0.2 0-1 0.7-1.1 0.8-0.6 0.2-1.2 0.4-1.7 0.7-1.3 0.4-2.6 0.8-3.9 1.1-0.5 0.1-0.8-0.6-0.3-0.8 1.5-0.8 3.2-1.2 4.9-1.7 0.5-0.2 1.9-0.8 2.3-0.1 0.1 0 0 0.1 0 0.1q0 0.1-0.1 0.1c0 0.1-0.1 0.1-0.1 0q-0.1 0-0.1 0c-0.1-0.1 0-0.2 0.1-0.2zm-5.3-1.1c-1 1.6-3.1 2.4-5 2.7-0.6 0-0.7-1-0.1-1.1 1.7-0.6 3.3-1.3 5-1.8 0.1 0 0.1 0.1 0.1 0.2zm-4.2-0.6c-1.2 0.9-2.5 1.7-3.9 2.2m56.5 24.4q0.1 0.2 0.3 0.4 0 0 0 0-0.2-0.2-0.4-0.3 0-0.1 0.1-0.1zm-18.5 79.8c-1 1.6-2.1 3-3.5 4.4-1.3 1.1-2.8 2.6-4.4 3.1-0.7 0.2-1.2-0.7-0.7-1.2 1.1-1.1 2.8-1.8 4.1-2.8 1.5-1.1 3-2.4 4.4-3.6 0-0.1 0.2 0 0.1 0.1zm-5.5 2.2c0.4 1.4-1.3 2.3-2.3 2.9-1.7 1.2-3.9 2.7-6 3-0.6 0.1-1.4-0.7-0.7-1.2 1.4-1.1 3.2-1.7 4.8-2.6 1.3-0.6 2.7-1.9 4-2.2 0.1 0 0.2 0 0.2 0.1zm-0.8-2.3c-0.8 1.6-2.8 2.7-4.3 3.5-1.1 0.7-3.1 2.4-4.4 1.6-0.3-0.1-0.5-0.5-0.3-0.8q0-0.1 0-0.2c0.1-0.2 0.4-0.5 0.7-0.5q0 0 0.1 0c0.5 0.1 0.9 0.7 0.5 1.2q-0.1 0-0.1 0 0.1-0.4 0.1-0.8 0 0 0.1 0.1-0.6-0.1-1.2-0.2c1.1-0.9 2.8-1.5 4.1-2.2 1.4-0.7 2.8-1.9 4.3-2.2 0.3 0 0.5 0.2 0.4 0.5zm1.6-8.8c1.6-1.2 3-2.5 4.3-4.1q0.4 0.4 0.7 0.7c-3.4 2.7-6.8 5.9-10.6 8.1-0.4 0.3-1-0.3-0.6-0.7 3.2-3.1 7.1-5.6 10.6-8.2 0.5-0.4 1 0.4 0.6 0.8-1.4 1.5-2.9 2.8-4.7 3.9-0.3 0.2-0.6-0.3-0.3-0.5zm-64.3-84.6c-0.8 1.5-2.6 2.6-3.9 3.7-1.5 1.2-2.9 2.3-4.5 3.1-0.6 0.3-1-0.3-0.7-0.8 1.3-1.4 2.7-2.5 4.2-3.6 1.4-1.1 2.8-2.5 4.5-3 0.3-0.1 0.6 0.3 0.4 0.6zm-31.3 34.2c-0.5 0.9-0.9 1.8-1.4 2.6-0.4 0.6-1.2 0.1-0.9-0.5 0.5-0.9 1-1.7 1.5-2.6 0.3-0.4 1 0 0.8 0.5zm-3.5 0.8c0.6 0.9 0 1.9-0.3 2.7-0.4 0.9-1.6 0.6-1.4-0.3 0.2-1 0.3-2.2 1.4-2.6 0.1 0 0.2 0.1 0.3 0.2zm61.8 59c-7.2 1.6-14.8 1.8-22.2 2.4-7.8 0.6-15.7 1.4-23.5 1.4-0.8 0-0.8-1.1 0-1.2 15-1.6 30.5-2.8 45.6-3.3 0.4 0 0.5 0.6 0.1 0.7zm56.1-90.9q0.4-0.4 0.7-0.9c0.1-0.4 0.6-0.3 0.8 0 0.8 1.1 0.6 3.6-0.8 4.3-0.3 0.1-0.7-0.1-0.7-0.4-0.1-0.7 0.2-1.2 0.4-1.8 0.1-0.7 0.1-1.3 0.2-2q0.3 0.3 0.6 0.6c-0.4 0-0.7 0.1-1.1 0.3-0.1 0-0.1-0.1-0.1-0.1zm-0.9-0.9c-0.2 1-0.1 2.2-0.4 3.2-0.1 0.4-0.6 0.5-0.8 0.1-0.7-1.2-0.3-2.5 0.3-3.7 0.2-0.6 1-0.2 0.9 0.4zm16.3-0.2c-2.1-1.3-3.1-4.5-4.7-6.4-2-2.5-4.1-4.6-6.8-6.2-1.3-0.8-0.2-2.8 1.1-2 3 1.5 5.8 3.6 7.9 6.3 1.5 1.9 4 5.4 3.2 8-0.1 0.3-0.5 0.5-0.7 0.3zm2.3-10.9c-3.5-4.4-8-8-12-12-0.6-0.6 0-1.8 0.9-1.5 2.6 1.2 5.1 2.9 7 5 1 1.1 1.9 2.3 2.8 3.5 1 1.4 1.4 2.8 2.1 4.4 0.2 0.5-0.4 1.1-0.8 0.6zm-14.6-9.9q0.9 0.5 1.9 0.7c0.7 0.2 0.6 1.5-0.2 1.4-2.5-0.2-5-1.6-7.4-2.4-2.3-0.8-4.7-1.3-6.7-2.8-0.6-0.5 0-1.4 0.6-1.5 2.7-0.2 5.3 1.1 7.7 2.1 2.1 0.9 4.7 1.7 6.3 3.4q-0.6 0.5-1.1 0.9-0.6-0.9-1.3-1.6c-0.1-0.1 0-0.3 0.2-0.2zm-93.9 141.3c0.9 0.1 0.6 0 1.4 0.4 0.5 0.3 0.2 1-0.4 0.9-3.2-0.6-6.1-2.8-8.7-4.8-2.5-1.9-5-4-6.7-6.7-0.7-1 0.7-1.9 1.6-1.2 2.5 1.9 4.5 4.3 7 6.2 2.4 2 5.2 3.5 7.3 5.7q-0.4 0.2-0.8 0.4-0.4-0.2-0.7-0.4c-0.3-0.1-0.3-0.5 0-0.5zm-9.5-1.4c-3.5-1.1-6.8-4.3-8.9-7.2-0.9-1.1 0.9-2.4 1.9-1.4 1.3 1.3 2.6 2.7 3.9 4.1 1.2 1.4 2.5 2.5 3.5 4 0.1 0.3-0.1 0.6-0.4 0.5zm-6.1 1c-2.5-0.6-4.6-2.5-6-4.5-0.8-1.2 1.1-2.3 1.9-1.1 1.4 1.8 3 3.3 4.5 5 0.2 0.3 0 0.7-0.4 0.6z"/></svg>